M48
; DRILL file {KiCad 7.0.5-0} date 2023 June 25, Sunday 22:51:37
; FORMAT={-:-/ absolute / metric / decimal}
; #@! TF.CreationDate,2023-06-25T22:51:37+03:00
; #@! TF.GenerationSoftware,Kicad,Pcbnew,7.0.5-0
; #@! TF.FileFunction,Plated,1,2,PTH
FMAT,2
METRIC
; #@! TA.AperFunction,Plated,PTH,ViaDrill
T1C0.400
; #@! TA.AperFunction,Plated,PTH,ComponentDrill
T2C0.600
; #@! TA.AperFunction,Plated,PTH,ComponentDrill
T3C0.800
; #@! TA.AperFunction,Plated,PTH,ComponentDrill
T4C0.900
; #@! TA.AperFunction,Plated,PTH,ComponentDrill
T5C0.950
; #@! TA.AperFunction,Plated,PTH,ComponentDrill
T6C1.000
; #@! TA.AperFunction,Plated,PTH,ComponentDrill
T7C1.300
; #@! TA.AperFunction,Plated,PTH,ComponentDrill
T8C1.540
; #@! TA.AperFunction,Plated,PTH,ComponentDrill
T9C1.750
; #@! TA.AperFunction,Plated,PTH,ComponentDrill
T10C1.850
; #@! TA.AperFunction,Plated,PTH,ComponentDrill
T11C2.300
%
G90
G05
T1
X75.159Y-51.806
X156.958Y-73.66
T2
X83.82Y-84.36
X85.82Y-84.36
X91.44Y-84.36
X93.44Y-84.36
X185.42Y-91.44
X187.42Y-91.44
X191.04Y-91.44
X193.04Y-91.44
T3
X49.851Y-72.44
X57.471Y-72.44
X63.5Y-58.42
X66.04Y-83.82
X71.12Y-58.42
X73.66Y-83.82
X78.74Y-48.26
X86.36Y-48.26
X99.06Y-40.64
X99.06Y-43.18
X99.06Y-45.72
X99.06Y-48.26
X99.06Y-50.8
X99.06Y-53.34
X99.06Y-55.88
X99.06Y-58.42
X99.06Y-60.96
X99.06Y-63.5
X99.06Y-66.04
X99.06Y-68.58
X99.06Y-71.12
X99.06Y-73.66
X109.22Y-30.48
X109.22Y-33.02
X109.22Y-35.56
X109.22Y-38.1
X109.22Y-40.64
X109.22Y-43.18
X109.22Y-45.72
X109.22Y-48.26
X109.22Y-50.8
X109.22Y-53.34
X109.22Y-55.88
X109.22Y-58.42
X109.22Y-60.96
X109.22Y-63.5
X109.22Y-66.04
X109.22Y-68.58
X109.22Y-71.12
X109.22Y-73.66
X109.22Y-76.2
X109.22Y-78.74
X109.22Y-81.28
X109.22Y-83.82
X132.08Y-30.48
X132.08Y-33.02
X132.08Y-35.56
X132.08Y-38.1
X132.08Y-40.64
X132.08Y-43.18
X132.08Y-45.72
X132.08Y-48.26
X132.08Y-50.8
X132.08Y-53.34
X132.08Y-55.88
X132.08Y-58.42
X132.08Y-60.96
X132.08Y-63.5
X132.08Y-66.04
X132.08Y-68.58
X132.08Y-71.12
X132.08Y-73.66
X132.08Y-76.2
X132.084Y-78.737
X132.084Y-81.277
X132.084Y-83.817
X160.02Y-30.48
X167.64Y-30.48
X171.51Y-53.315
X171.51Y-55.855
X171.51Y-58.395
X171.51Y-60.935
X173.99Y-83.82
X173.99Y-88.9
X179.07Y-43.18
X181.61Y-83.82
X181.61Y-88.9
X186.69Y-43.18
X191.77Y-43.18
X199.39Y-43.18
X207.01Y-78.74
X214.63Y-78.74
X226.06Y-38.1
X226.06Y-45.72
X226.06Y-52.07
X226.06Y-59.69
X226.06Y-64.77
X226.06Y-72.39
T4
X172.72Y-30.48
X175.26Y-30.48
T5
X82.86Y-35.73
X85.36Y-35.73
X87.36Y-35.73
X89.86Y-35.73
T6
X58.42Y-33.02
X60.96Y-33.02
X63.5Y-33.02
X66.04Y-33.02
X68.58Y-33.02
X71.12Y-33.02
X73.66Y-33.02
T7
X45.92Y-55.88
X45.92Y-60.88
X58.42Y-55.88
X58.42Y-60.88
X60.96Y-43.18
X60.96Y-48.18
X60.96Y-68.58
X60.96Y-73.58
X73.46Y-43.18
X73.46Y-48.18
X73.46Y-68.58
X73.46Y-73.58
X76.2Y-55.88
X76.2Y-60.88
X88.7Y-55.88
X88.7Y-60.88
X185.42Y-30.48
X185.42Y-35.48
X185.42Y-50.8
X185.42Y-55.8
X187.96Y-66.04
X187.96Y-71.04
X197.92Y-30.48
X197.92Y-35.48
X197.92Y-50.8
X197.92Y-55.8
X200.46Y-66.04
X200.46Y-71.04
X203.2Y-30.48
X203.2Y-35.48
X203.2Y-48.26
X203.2Y-53.26
X205.74Y-63.5
X205.74Y-68.5
X215.7Y-30.48
X215.7Y-35.48
X215.7Y-48.26
X215.7Y-53.26
X218.24Y-63.5
X218.24Y-68.5
T8
X137.9Y-71.08
X138.2Y-93.98
X141.3Y-71.08
X148.9Y-71.08
X152.4Y-71.08
X152.4Y-93.98
T9
X140.9Y-60.96
X144.78Y-60.96
T10
X199.37Y-93.03
X201.06Y-83.82
X205.84Y-83.82
X210.57Y-83.82
X212.11Y-93.0
T11
X79.79Y-33.02
X92.93Y-33.02
T0
M30
