%TF.GenerationSoftware,KiCad,Pcbnew,7.0.5-0*%
%TF.CreationDate,2023-06-25T23:04:33+03:00*%
%TF.ProjectId,esp32_game,65737033-325f-4676-916d-652e6b696361,rev?*%
%TF.SameCoordinates,Original*%
%TF.FileFunction,Soldermask,Bot*%
%TF.FilePolarity,Negative*%
%FSLAX46Y46*%
G04 Gerber Fmt 4.6, Leading zero omitted, Abs format (unit mm)*
G04 Created by KiCad (PCBNEW 7.0.5-0) date 2023-06-25 23:04:33*
%MOMM*%
%LPD*%
G01*
G04 APERTURE LIST*
%ADD10O,3.048000X1.850000*%
%ADD11O,3.000000X1.500000*%
%ADD12C,2.500000*%
%ADD13C,4.300000*%
%ADD14C,1.600000*%
%ADD15O,1.600000X1.600000*%
%ADD16R,1.200000X1.200000*%
%ADD17C,1.200000*%
%ADD18C,1.800000*%
%ADD19R,1.800000X1.800000*%
%ADD20R,1.700000X1.700000*%
%ADD21O,1.700000X1.700000*%
%ADD22C,3.000000*%
%ADD23R,1.600000X1.500000*%
%ADD24R,2.800000X2.800000*%
%ADD25R,3.000000X3.000000*%
%ADD26R,2.000000X1.200000*%
%ADD27O,2.000000X1.200000*%
G04 APERTURE END LIST*
D10*
%TO.C,SW6*%
X185420000Y-30480000D03*
X197920000Y-30480000D03*
X185420000Y-35480000D03*
X197920000Y-35480000D03*
%TD*%
D11*
%TO.C,U2*%
X99060000Y-40640000D03*
X99060000Y-43180000D03*
X99060000Y-45720000D03*
X99060000Y-48260000D03*
X99060000Y-50800000D03*
X99060000Y-53340000D03*
X99060000Y-55880000D03*
X99060000Y-58420000D03*
X99060000Y-60960000D03*
X99060000Y-63500000D03*
X99060000Y-66040000D03*
X99060000Y-68580000D03*
X99060000Y-71120000D03*
X99060000Y-73660000D03*
X171510000Y-53315000D03*
X171510000Y-55855000D03*
X171510000Y-58395000D03*
X171510000Y-60935000D03*
%TD*%
D12*
%TO.C,SW11*%
X199370000Y-93030000D03*
X212110000Y-93000000D03*
X201060000Y-83820000D03*
X205840000Y-83820000D03*
X210570000Y-83820000D03*
%TD*%
D13*
%TO.C,H4*%
X223520000Y-30480000D03*
%TD*%
%TO.C,H3*%
X223520000Y-88900000D03*
%TD*%
%TO.C,H2*%
X48260000Y-88900000D03*
%TD*%
%TO.C,H1*%
X48260000Y-30480000D03*
%TD*%
D14*
%TO.C,R8*%
X160020000Y-30480000D03*
D15*
X167640000Y-30480000D03*
%TD*%
D14*
%TO.C,R12*%
X214630000Y-78740000D03*
D15*
X207010000Y-78740000D03*
%TD*%
D10*
%TO.C,SW1*%
X60960000Y-43180000D03*
X73460000Y-43180000D03*
X60960000Y-48180000D03*
X73460000Y-48180000D03*
%TD*%
%TO.C,SW9*%
X187960000Y-66040000D03*
X200460000Y-66040000D03*
X187960000Y-71040000D03*
X200460000Y-71040000D03*
%TD*%
D15*
%TO.C,R9*%
X181610000Y-83820000D03*
D14*
X173990000Y-83820000D03*
%TD*%
%TO.C,R4*%
X73660000Y-83820000D03*
D15*
X66040000Y-83820000D03*
%TD*%
D14*
%TO.C,R3*%
X63500000Y-58420000D03*
D15*
X71120000Y-58420000D03*
%TD*%
D10*
%TO.C,SW8*%
X203200000Y-48260000D03*
X215700000Y-48260000D03*
X203200000Y-53260000D03*
X215700000Y-53260000D03*
%TD*%
D14*
%TO.C,R7*%
X191770000Y-43180000D03*
D15*
X199390000Y-43180000D03*
%TD*%
D10*
%TO.C,SW2*%
X60960000Y-68580000D03*
X73460000Y-68580000D03*
X60960000Y-73580000D03*
X73460000Y-73580000D03*
%TD*%
D14*
%TO.C,R1*%
X226060000Y-45720000D03*
D15*
X226060000Y-38100000D03*
%TD*%
D14*
%TO.C,R11*%
X226060000Y-52070000D03*
D15*
X226060000Y-59690000D03*
%TD*%
D14*
%TO.C,R10*%
X173990000Y-88900000D03*
D15*
X181610000Y-88900000D03*
%TD*%
D16*
%TO.C,C2*%
X191040000Y-91440000D03*
D17*
X193040000Y-91440000D03*
%TD*%
D14*
%TO.C,R6*%
X179070000Y-43180000D03*
D15*
X186690000Y-43180000D03*
%TD*%
D10*
%TO.C,SW5*%
X203200000Y-30480000D03*
X215700000Y-30480000D03*
X203200000Y-35480000D03*
X215700000Y-35480000D03*
%TD*%
D14*
%TO.C,R2*%
X78740000Y-48260000D03*
D15*
X86360000Y-48260000D03*
%TD*%
D10*
%TO.C,SW4*%
X76200000Y-55880000D03*
X88700000Y-55880000D03*
X76200000Y-60880000D03*
X88700000Y-60880000D03*
%TD*%
D14*
%TO.C,R5*%
X49851000Y-72440000D03*
D15*
X57471000Y-72440000D03*
%TD*%
D16*
%TO.C,C4*%
X85820000Y-84360000D03*
D17*
X83820000Y-84360000D03*
%TD*%
D18*
%TO.C,D1*%
X172720000Y-30480000D03*
D19*
X175260000Y-30480000D03*
%TD*%
D16*
%TO.C,C1*%
X185420000Y-91440000D03*
D17*
X187420000Y-91440000D03*
%TD*%
D14*
%TO.C,R13*%
X226060000Y-72390000D03*
D15*
X226060000Y-64770000D03*
%TD*%
D10*
%TO.C,SW10*%
X205740000Y-63500000D03*
X218240000Y-63500000D03*
X205740000Y-68500000D03*
X218240000Y-68500000D03*
%TD*%
%TO.C,SW3*%
X45920000Y-55880000D03*
X58420000Y-55880000D03*
X45920000Y-60880000D03*
X58420000Y-60880000D03*
%TD*%
D17*
%TO.C,C3*%
X91440000Y-84360000D03*
D16*
X93440000Y-84360000D03*
%TD*%
D10*
%TO.C,SW7*%
X185420000Y-50800000D03*
X197920000Y-50800000D03*
X185420000Y-55800000D03*
X197920000Y-55800000D03*
%TD*%
D20*
%TO.C,J1*%
X58420000Y-33020000D03*
D21*
X60960000Y-33020000D03*
X63500000Y-33020000D03*
X66040000Y-33020000D03*
X68580000Y-33020000D03*
X71120000Y-33020000D03*
X73660000Y-33020000D03*
%TD*%
D22*
%TO.C,J2*%
X92930000Y-33020000D03*
X79790000Y-33020000D03*
D14*
X89860000Y-35730000D03*
X87360000Y-35730000D03*
X85360000Y-35730000D03*
D23*
X82860000Y-35730000D03*
%TD*%
D24*
%TO.C,tp1*%
X152400000Y-93980000D03*
X138200000Y-93980000D03*
X152400000Y-71080000D03*
X137900000Y-71080000D03*
X148900000Y-71080000D03*
X141300000Y-71080000D03*
%TD*%
D25*
%TO.C,J3*%
X144780000Y-60960000D03*
D22*
X140900000Y-60960000D03*
%TD*%
D26*
%TO.C,U1*%
X132080000Y-30480000D03*
D27*
X132080000Y-33020000D03*
X132080000Y-35560000D03*
X132080000Y-38100000D03*
X132080000Y-40640000D03*
X132080000Y-43180000D03*
X132080000Y-45720000D03*
X132080000Y-48260000D03*
X132080000Y-50800000D03*
X132080000Y-53340000D03*
X132080000Y-55880000D03*
X132080000Y-58420000D03*
X132080000Y-60960000D03*
X132080000Y-63500000D03*
X132080000Y-66040000D03*
X132080000Y-68580000D03*
X132080000Y-71120000D03*
X132080000Y-73660000D03*
X132080000Y-76200000D03*
X132083680Y-78737280D03*
X132083680Y-81277280D03*
X132083680Y-83817280D03*
X109220000Y-83820000D03*
X109220000Y-81280000D03*
X109220000Y-78740000D03*
X109220000Y-76200000D03*
X109220000Y-73660000D03*
X109220000Y-71120000D03*
X109220000Y-68580000D03*
X109220000Y-66040000D03*
X109220000Y-63500000D03*
X109220000Y-60960000D03*
X109220000Y-58420000D03*
X109220000Y-55880000D03*
X109220000Y-53340000D03*
X109220000Y-50800000D03*
X109220000Y-48260000D03*
X109220000Y-45720000D03*
X109220000Y-43180000D03*
X109220000Y-40640000D03*
X109220000Y-38100000D03*
X109220000Y-35560000D03*
X109220000Y-33020000D03*
X109220000Y-30480000D03*
%TD*%
M02*
