%TF.GenerationSoftware,KiCad,Pcbnew,7.0.5-0*%
%TF.CreationDate,2023-06-25T23:04:33+03:00*%
%TF.ProjectId,esp32_game,65737033-325f-4676-916d-652e6b696361,rev?*%
%TF.SameCoordinates,Original*%
%TF.FileFunction,Copper,L2,Bot*%
%TF.FilePolarity,Positive*%
%FSLAX46Y46*%
G04 Gerber Fmt 4.6, Leading zero omitted, Abs format (unit mm)*
G04 Created by KiCad (PCBNEW 7.0.5-0) date 2023-06-25 23:04:33*
%MOMM*%
%LPD*%
G01*
G04 APERTURE LIST*
%TA.AperFunction,EtchedComponent*%
%ADD10C,0.200000*%
%TD*%
%TA.AperFunction,ComponentPad*%
%ADD11O,3.048000X1.850000*%
%TD*%
%TA.AperFunction,ComponentPad*%
%ADD12O,3.000000X1.500000*%
%TD*%
%TA.AperFunction,ComponentPad*%
%ADD13C,2.500000*%
%TD*%
%TA.AperFunction,ComponentPad*%
%ADD14C,1.600000*%
%TD*%
%TA.AperFunction,ComponentPad*%
%ADD15O,1.600000X1.600000*%
%TD*%
%TA.AperFunction,ComponentPad*%
%ADD16R,1.200000X1.200000*%
%TD*%
%TA.AperFunction,ComponentPad*%
%ADD17C,1.200000*%
%TD*%
%TA.AperFunction,ComponentPad*%
%ADD18C,1.800000*%
%TD*%
%TA.AperFunction,ComponentPad*%
%ADD19R,1.800000X1.800000*%
%TD*%
%TA.AperFunction,ComponentPad*%
%ADD20R,1.700000X1.700000*%
%TD*%
%TA.AperFunction,ComponentPad*%
%ADD21O,1.700000X1.700000*%
%TD*%
%TA.AperFunction,ComponentPad*%
%ADD22C,3.000000*%
%TD*%
%TA.AperFunction,ComponentPad*%
%ADD23R,1.600000X1.500000*%
%TD*%
%TA.AperFunction,ComponentPad*%
%ADD24R,2.800000X2.800000*%
%TD*%
%TA.AperFunction,ComponentPad*%
%ADD25R,3.000000X3.000000*%
%TD*%
%TA.AperFunction,ComponentPad*%
%ADD26R,2.000000X1.200000*%
%TD*%
%TA.AperFunction,ComponentPad*%
%ADD27O,2.000000X1.200000*%
%TD*%
%TA.AperFunction,ViaPad*%
%ADD28C,0.800000*%
%TD*%
%TA.AperFunction,Conductor*%
%ADD29C,1.000000*%
%TD*%
%TA.AperFunction,Conductor*%
%ADD30C,0.500000*%
%TD*%
%TA.AperFunction,Conductor*%
%ADD31C,0.250000*%
%TD*%
G04 APERTURE END LIST*
D10*
%TO.C,SW11*%
X197730000Y-81720000D02*
X213750000Y-81720000D01*
X213750000Y-81720000D02*
X213750000Y-94700000D01*
X213750000Y-94700000D02*
X197730000Y-94700000D01*
X197730000Y-94700000D02*
X197730000Y-81720000D01*
%TD*%
D11*
%TO.P,SW6,1,C*%
%TO.N,GND*%
X185420000Y-30480000D03*
X197920000Y-30480000D03*
%TO.P,SW6,2,D*%
%TO.N,/VOL*%
X185420000Y-35480000D03*
X197920000Y-35480000D03*
%TD*%
D12*
%TO.P,U2,1,VCC*%
%TO.N,/+3.3V*%
X99060000Y-40640000D03*
%TO.P,U2,2,GND*%
%TO.N,GND*%
X99060000Y-43180000D03*
%TO.P,U2,3,CS*%
%TO.N,/TFT_CS*%
X99060000Y-45720000D03*
%TO.P,U2,4,RST*%
%TO.N,unconnected-(U2-RST-Pad4)*%
X99060000Y-48260000D03*
%TO.P,U2,5,DC*%
%TO.N,/TFT_DC*%
X99060000Y-50800000D03*
%TO.P,U2,6,MOSI*%
%TO.N,/MOSI*%
X99060000Y-53340000D03*
%TO.P,U2,7,SCK*%
%TO.N,/SCK*%
X99060000Y-55880000D03*
%TO.P,U2,8,LED*%
%TO.N,/TFT_LED*%
X99060000Y-58420000D03*
%TO.P,U2,9,MISO*%
%TO.N,/MISO*%
X99060000Y-60960000D03*
%TO.P,U2,10*%
%TO.N,unconnected-(U2-Pad10)*%
X99060000Y-63500000D03*
%TO.P,U2,11*%
%TO.N,unconnected-(U2-Pad11)*%
X99060000Y-66040000D03*
%TO.P,U2,12*%
%TO.N,unconnected-(U2-Pad12)*%
X99060000Y-68580000D03*
%TO.P,U2,13*%
%TO.N,unconnected-(U2-Pad13)*%
X99060000Y-71120000D03*
%TO.P,U2,14*%
%TO.N,unconnected-(U2-Pad14)*%
X99060000Y-73660000D03*
%TO.P,U2,15,SD_CS*%
%TO.N,/SD_CS*%
X171510000Y-53315000D03*
%TO.P,U2,16,SD_MOSI*%
%TO.N,/MOSI*%
X171510000Y-55855000D03*
%TO.P,U2,17,SD_MISO*%
%TO.N,/MISO*%
X171510000Y-58395000D03*
%TO.P,U2,18,SD_SCK*%
%TO.N,/SCK*%
X171510000Y-60935000D03*
%TD*%
D13*
%TO.P,SW11,*%
%TO.N,*%
X199370000Y-93030000D03*
X212110000Y-93000000D03*
%TO.P,SW11,1,A*%
%TO.N,unconnected-(SW11-A-Pad1)*%
X201060000Y-83820000D03*
%TO.P,SW11,2,B*%
%TO.N,Net-(SW11-B)*%
X205840000Y-83820000D03*
%TO.P,SW11,3,C*%
%TO.N,/ESP_VCC*%
X210570000Y-83820000D03*
%TD*%
D14*
%TO.P,R8,1*%
%TO.N,/ACT_LED*%
X160020000Y-30480000D03*
D15*
%TO.P,R8,2*%
%TO.N,Net-(D1-A)*%
X167640000Y-30480000D03*
%TD*%
D14*
%TO.P,R12,1*%
%TO.N,/+3.3V*%
X214630000Y-78740000D03*
D15*
%TO.P,R12,2*%
%TO.N,/BTN_B*%
X207010000Y-78740000D03*
%TD*%
D11*
%TO.P,SW1,1,C*%
%TO.N,/+3.3V*%
X60960000Y-43180000D03*
X73460000Y-43180000D03*
%TO.P,SW1,2,D*%
%TO.N,/GP_Y*%
X60960000Y-48180000D03*
X73460000Y-48180000D03*
%TD*%
%TO.P,SW9,1,C*%
%TO.N,GND*%
X187960000Y-66040000D03*
X200460000Y-66040000D03*
%TO.P,SW9,2,D*%
%TO.N,/BTN_B*%
X187960000Y-71040000D03*
X200460000Y-71040000D03*
%TD*%
D15*
%TO.P,R9,2*%
%TO.N,/BAT_CHARGE*%
X181610000Y-83820000D03*
D14*
%TO.P,R9,1*%
%TO.N,/VBAT*%
X173990000Y-83820000D03*
%TD*%
%TO.P,R4,1*%
%TO.N,/GP_Y*%
X73660000Y-83820000D03*
D15*
%TO.P,R4,2*%
%TO.N,GND*%
X66040000Y-83820000D03*
%TD*%
D14*
%TO.P,R3,1*%
%TO.N,/GP_X*%
X63500000Y-58420000D03*
D15*
%TO.P,R3,2*%
%TO.N,Net-(SW4A-D)*%
X71120000Y-58420000D03*
%TD*%
D11*
%TO.P,SW8,1,C*%
%TO.N,GND*%
X203200000Y-48260000D03*
X215700000Y-48260000D03*
%TO.P,SW8,2,D*%
%TO.N,/START*%
X203200000Y-53260000D03*
X215700000Y-53260000D03*
%TD*%
D14*
%TO.P,R7,1*%
%TO.N,/+3.3V*%
X191770000Y-43180000D03*
D15*
%TO.P,R7,2*%
%TO.N,/SEL*%
X199390000Y-43180000D03*
%TD*%
D11*
%TO.P,SW2,1,C*%
%TO.N,/+3.3V*%
X60960000Y-68580000D03*
X73460000Y-68580000D03*
%TO.P,SW2,2,D*%
%TO.N,Net-(SW2A-D)*%
X60960000Y-73580000D03*
X73460000Y-73580000D03*
%TD*%
D14*
%TO.P,R1,1*%
%TO.N,/+3.3V*%
X226060000Y-45720000D03*
D15*
%TO.P,R1,2*%
%TO.N,/MENU*%
X226060000Y-38100000D03*
%TD*%
D14*
%TO.P,R11,1*%
%TO.N,/+3.3V*%
X226060000Y-52070000D03*
D15*
%TO.P,R11,2*%
%TO.N,/START*%
X226060000Y-59690000D03*
%TD*%
D14*
%TO.P,R10,1*%
%TO.N,/BAT_CHARGE*%
X173990000Y-88900000D03*
D15*
%TO.P,R10,2*%
%TO.N,GND*%
X181610000Y-88900000D03*
%TD*%
D16*
%TO.P,C2,1*%
%TO.N,Net-(tp1-5V)*%
X191040000Y-91440000D03*
D17*
%TO.P,C2,2*%
%TO.N,GND*%
X193040000Y-91440000D03*
%TD*%
D14*
%TO.P,R6,1*%
%TO.N,/+3.3V*%
X179070000Y-43180000D03*
D15*
%TO.P,R6,2*%
%TO.N,/VOL*%
X186690000Y-43180000D03*
%TD*%
D11*
%TO.P,SW5,1,C*%
%TO.N,GND*%
X203200000Y-30480000D03*
X215700000Y-30480000D03*
%TO.P,SW5,2,D*%
%TO.N,/MENU*%
X203200000Y-35480000D03*
X215700000Y-35480000D03*
%TD*%
D14*
%TO.P,R2,1*%
%TO.N,/GP_Y*%
X78740000Y-48260000D03*
D15*
%TO.P,R2,2*%
%TO.N,Net-(SW2A-D)*%
X86360000Y-48260000D03*
%TD*%
D11*
%TO.P,SW4,1,C*%
%TO.N,/+3.3V*%
X76200000Y-55880000D03*
X88700000Y-55880000D03*
%TO.P,SW4,2,D*%
%TO.N,Net-(SW4A-D)*%
X76200000Y-60880000D03*
X88700000Y-60880000D03*
%TD*%
D14*
%TO.P,R5,1*%
%TO.N,/GP_X*%
X49851000Y-72440000D03*
D15*
%TO.P,R5,2*%
%TO.N,GND*%
X57471000Y-72440000D03*
%TD*%
D16*
%TO.P,C4,1*%
%TO.N,/ESP_VCC*%
X85820000Y-84360000D03*
D17*
%TO.P,C4,2*%
%TO.N,GND*%
X83820000Y-84360000D03*
%TD*%
D18*
%TO.P,D1,2,A*%
%TO.N,Net-(D1-A)*%
X172720000Y-30480000D03*
D19*
%TO.P,D1,1,K*%
%TO.N,GND*%
X175260000Y-30480000D03*
%TD*%
D16*
%TO.P,C1,1*%
%TO.N,/BAT_CHARGE*%
X185420000Y-91440000D03*
D17*
%TO.P,C1,2*%
%TO.N,GND*%
X187420000Y-91440000D03*
%TD*%
D14*
%TO.P,R13,1*%
%TO.N,/+3.3V*%
X226060000Y-72390000D03*
D15*
%TO.P,R13,2*%
%TO.N,/BTN_A*%
X226060000Y-64770000D03*
%TD*%
D11*
%TO.P,SW10,1,C*%
%TO.N,GND*%
X205740000Y-63500000D03*
X218240000Y-63500000D03*
%TO.P,SW10,2,D*%
%TO.N,/BTN_A*%
X205740000Y-68500000D03*
X218240000Y-68500000D03*
%TD*%
%TO.P,SW3,1,C*%
%TO.N,/+3.3V*%
X45920000Y-55880000D03*
X58420000Y-55880000D03*
%TO.P,SW3,2,D*%
%TO.N,/GP_X*%
X45920000Y-60880000D03*
X58420000Y-60880000D03*
%TD*%
D17*
%TO.P,C3,2*%
%TO.N,GND*%
X91440000Y-84360000D03*
D16*
%TO.P,C3,1*%
%TO.N,/ESP_VCC*%
X93440000Y-84360000D03*
%TD*%
D11*
%TO.P,SW7,1,C*%
%TO.N,GND*%
X185420000Y-50800000D03*
X197920000Y-50800000D03*
%TO.P,SW7,2,D*%
%TO.N,/SEL*%
X185420000Y-55800000D03*
X197920000Y-55800000D03*
%TD*%
D20*
%TO.P,J1,1,Pin_1*%
%TO.N,/I2S_LRC*%
X58420000Y-33020000D03*
D21*
%TO.P,J1,2,Pin_2*%
%TO.N,/I2S_BCLK*%
X60960000Y-33020000D03*
%TO.P,J1,3,Pin_3*%
%TO.N,/I2S_DIN*%
X63500000Y-33020000D03*
%TO.P,J1,4,Pin_4*%
%TO.N,unconnected-(J1-Pin_4-Pad4)*%
X66040000Y-33020000D03*
%TO.P,J1,5,Pin_5*%
%TO.N,/I2S_SD*%
X68580000Y-33020000D03*
%TO.P,J1,6,Pin_6*%
%TO.N,GND*%
X71120000Y-33020000D03*
%TO.P,J1,7,Pin_7*%
%TO.N,/+3.3V*%
X73660000Y-33020000D03*
%TD*%
D22*
%TO.P,J2,5,Shield*%
%TO.N,GND*%
X92930000Y-33020000D03*
X79790000Y-33020000D03*
D14*
%TO.P,J2,4,GND*%
X89860000Y-35730000D03*
%TO.P,J2,3,D+*%
%TO.N,/USB_D+*%
X87360000Y-35730000D03*
%TO.P,J2,2,D-*%
%TO.N,/USB_D-*%
X85360000Y-35730000D03*
D23*
%TO.P,J2,1,VBUS*%
%TO.N,/ESP_VCC*%
X82860000Y-35730000D03*
%TD*%
D24*
%TO.P,tp1,1,5V*%
%TO.N,Net-(tp1-5V)*%
X152400000Y-93980000D03*
%TO.P,tp1,2,GND*%
%TO.N,GND*%
X138200000Y-93980000D03*
%TO.P,tp1,3,Output+*%
%TO.N,Net-(SW11-B)*%
X152400000Y-71080000D03*
%TO.P,tp1,4,Output-*%
%TO.N,GND*%
X137900000Y-71080000D03*
%TO.P,tp1,5,B+*%
%TO.N,/VBAT*%
X148900000Y-71080000D03*
%TO.P,tp1,6,B-*%
%TO.N,Net-(J3-Pin_2)*%
X141300000Y-71080000D03*
%TD*%
D25*
%TO.P,J3,1,Pin_1*%
%TO.N,/VBAT*%
X144780000Y-60960000D03*
D22*
%TO.P,J3,2,Pin_2*%
%TO.N,Net-(J3-Pin_2)*%
X140900000Y-60960000D03*
%TD*%
D26*
%TO.P,U1,1,3V3*%
%TO.N,/+3.3V*%
X132080000Y-30480000D03*
D27*
%TO.P,U1,2,3V3*%
X132080000Y-33020000D03*
%TO.P,U1,3,CHIP_PU*%
%TO.N,unconnected-(U1-CHIP_PU-Pad3)*%
X132080000Y-35560000D03*
%TO.P,U1,4,GPIO4/ADC1_CH3*%
%TO.N,/BAT_CHARGE*%
X132080000Y-38100000D03*
%TO.P,U1,5,GPIO5/ADC1_CH4*%
%TO.N,/GP_Y*%
X132080000Y-40640000D03*
%TO.P,U1,6,GPIO6/ADC1_CH5*%
%TO.N,/GP_X*%
X132080000Y-43180000D03*
%TO.P,U1,7,GPIO7/ADC1_CH6*%
%TO.N,/TFT_DC*%
X132080000Y-45720000D03*
%TO.P,U1,8,GPIO15/ADC2_CH4/32K_P*%
%TO.N,/MENU*%
X132080000Y-48260000D03*
%TO.P,U1,9,GPIO16/ADC2_CH5/32K_N*%
%TO.N,/VOL*%
X132080000Y-50800000D03*
%TO.P,U1,10,GPIO17/ADC2_CH6*%
%TO.N,/SEL*%
X132080000Y-53340000D03*
%TO.P,U1,11,GPIO18/ADC2_CH7*%
%TO.N,unconnected-(U1-GPIO18{slash}ADC2_CH7-Pad11)*%
X132080000Y-55880000D03*
%TO.P,U1,12,GPIO8/ADC1_CH7*%
%TO.N,unconnected-(U1-GPIO8{slash}ADC1_CH7-Pad12)*%
X132080000Y-58420000D03*
%TO.P,U1,13,GPIO3/ADC1_CH2*%
%TO.N,unconnected-(U1-GPIO3{slash}ADC1_CH2-Pad13)*%
X132080000Y-60960000D03*
%TO.P,U1,14,GPIO46*%
%TO.N,unconnected-(U1-GPIO46-Pad14)*%
X132080000Y-63500000D03*
%TO.P,U1,15,GPIO9/ADC1_CH8*%
%TO.N,/SD_CS*%
X132080000Y-66040000D03*
%TO.P,U1,16,GPIO10/ADC1_CH9*%
%TO.N,/TFT_CS*%
X132080000Y-68580000D03*
%TO.P,U1,17,GPIO11/ADC2_CH0*%
%TO.N,/MOSI*%
X132080000Y-71120000D03*
%TO.P,U1,18,GPIO12/ADC2_CH1*%
%TO.N,/SCK*%
X132080000Y-73660000D03*
%TO.P,U1,19,GPIO13/ADC2_CH2*%
%TO.N,/MISO*%
X132080000Y-76200000D03*
%TO.P,U1,20,GPIO14/ADC2_CH3*%
%TO.N,/TFT_LED*%
X132083680Y-78737280D03*
%TO.P,U1,21,5V*%
%TO.N,/ESP_VCC*%
X132083680Y-81277280D03*
%TO.P,U1,22,GND*%
%TO.N,unconnected-(U1-GND-Pad22)*%
X132083680Y-83817280D03*
%TO.P,U1,23,GND*%
%TO.N,unconnected-(U1-GND-Pad23)*%
X109220000Y-83820000D03*
%TO.P,U1,24,GND*%
%TO.N,unconnected-(U1-GND-Pad24)*%
X109220000Y-81280000D03*
%TO.P,U1,25,GPIO19/USB_D-*%
%TO.N,/USB_D-*%
X109220000Y-78740000D03*
%TO.P,U1,26,GPIO20/USB_D+*%
%TO.N,/USB_D+*%
X109220000Y-76200000D03*
%TO.P,U1,27,GPIO21*%
%TO.N,/TFT_DC*%
X109220000Y-73660000D03*
%TO.P,U1,28,GPIO47*%
%TO.N,/I2S_DIN*%
X109220000Y-71120000D03*
%TO.P,U1,29,GPIO48*%
%TO.N,/I2S_SD*%
X109220000Y-68580000D03*
%TO.P,U1,30,GPIO45*%
%TO.N,unconnected-(U1-GPIO45-Pad30)*%
X109220000Y-66040000D03*
%TO.P,U1,31,GPIO0*%
%TO.N,unconnected-(U1-GPIO0-Pad31)*%
X109220000Y-63500000D03*
%TO.P,U1,32,GPIO35*%
%TO.N,/START*%
X109220000Y-60960000D03*
%TO.P,U1,33,GPIO36*%
%TO.N,/BTN_B*%
X109220000Y-58420000D03*
%TO.P,U1,34,GPIO37*%
%TO.N,/BTN_A*%
X109220000Y-55880000D03*
%TO.P,U1,35,GPIO38*%
%TO.N,unconnected-(U1-GPIO38-Pad35)*%
X109220000Y-53340000D03*
%TO.P,U1,36,GPIO39/MTCK*%
%TO.N,unconnected-(U1-GPIO39{slash}MTCK-Pad36)*%
X109220000Y-50800000D03*
%TO.P,U1,37,GPIO40/MTDO*%
%TO.N,unconnected-(U1-GPIO40{slash}MTDO-Pad37)*%
X109220000Y-48260000D03*
%TO.P,U1,38,GPIO41/MTDI*%
%TO.N,/I2S_LRC*%
X109220000Y-45720000D03*
%TO.P,U1,39,GPIO42/MTMS*%
%TO.N,/I2S_BCLK*%
X109220000Y-43180000D03*
%TO.P,U1,40,GPIO2/ADC1_CH1*%
%TO.N,/ACT_LED*%
X109220000Y-40640000D03*
%TO.P,U1,41,GPIO1/ADC1_CH0*%
%TO.N,unconnected-(U1-GPIO1{slash}ADC1_CH0-Pad41)*%
X109220000Y-38100000D03*
%TO.P,U1,42,GPIO44/U0RXD*%
%TO.N,unconnected-(U1-GPIO44{slash}U0RXD-Pad42)*%
X109220000Y-35560000D03*
%TO.P,U1,43,GPIO43/U0TXD*%
%TO.N,unconnected-(U1-GPIO43{slash}U0TXD-Pad43)*%
X109220000Y-33020000D03*
%TO.P,U1,44,GND*%
%TO.N,GND*%
X109220000Y-30480000D03*
%TD*%
D28*
%TO.N,/SCK*%
X156958100Y-73660000D03*
%TO.N,/I2S_SD*%
X75158600Y-51805800D03*
%TD*%
D29*
%TO.N,Net-(J3-Pin_2)*%
X140900000Y-60960000D02*
X140900000Y-70680000D01*
D30*
X140900000Y-70680000D02*
X141300000Y-71080000D01*
%TO.N,/ESP_VCC*%
X86360000Y-82119300D02*
X87673800Y-83433100D01*
X86360000Y-52755400D02*
X86360000Y-82119300D01*
X87610000Y-51505400D02*
X86360000Y-52755400D01*
X87610000Y-41556900D02*
X87610000Y-51505400D01*
X82860000Y-36806900D02*
X87610000Y-41556900D01*
X82860000Y-35730000D02*
X82860000Y-36806900D01*
%TO.N,GND*%
X138200000Y-93980000D02*
X101060000Y-93980000D01*
X101060000Y-93980000D02*
X91440000Y-84360000D01*
D31*
%TO.N,/GP_Y*%
X78740000Y-48260000D02*
X81280000Y-50800000D01*
D30*
%TO.N,GND*%
X97233100Y-43103100D02*
X89860000Y-35730000D01*
X92930000Y-33020000D02*
X92570000Y-33020000D01*
X92570000Y-33020000D02*
X89860000Y-35730000D01*
%TO.N,/VBAT*%
X148900000Y-71080000D02*
X148900000Y-74171000D01*
X148900000Y-74171000D02*
X158549000Y-83820000D01*
X158549000Y-83820000D02*
X173990000Y-83820000D01*
D29*
X144780000Y-60960000D02*
X144780000Y-66833100D01*
D30*
X148900000Y-70953100D02*
X148900000Y-71080000D01*
X144780000Y-66833100D02*
X148900000Y-70953100D01*
%TO.N,GND*%
X137900000Y-71080000D02*
X136300000Y-72680000D01*
X136300000Y-72680000D02*
X136300000Y-85308200D01*
%TO.N,/ESP_VCC*%
X93440000Y-84360000D02*
X93980000Y-83820000D01*
X93980000Y-83820000D02*
X93980000Y-81346550D01*
X93980000Y-81346550D02*
X89760350Y-81346550D01*
X89760350Y-81346550D02*
X87673800Y-83433100D01*
%TO.N,GND*%
X138200000Y-93980000D02*
X136300000Y-92080000D01*
X136300000Y-92080000D02*
X136300000Y-85308200D01*
D31*
%TO.N,/I2S_LRC*%
X109220000Y-45720000D02*
X107893100Y-45720000D01*
X107893100Y-45720000D02*
X106719600Y-44546500D01*
X88735000Y-35483300D02*
X81191700Y-27940000D01*
X106719600Y-44546500D02*
X97044500Y-44546500D01*
X88735000Y-36305991D02*
X88735000Y-35483300D01*
X81191700Y-27940000D02*
X63132200Y-27940000D01*
X89463000Y-36965000D02*
X89394009Y-36965000D01*
X89394009Y-36965000D02*
X88735000Y-36305991D01*
X97044500Y-44546500D02*
X89463000Y-36965000D01*
X63132200Y-27940000D02*
X58420000Y-32652200D01*
X58420000Y-32652200D02*
X58420000Y-33020000D01*
%TO.N,/MISO*%
X134086900Y-78450600D02*
X132840300Y-79697200D01*
X111527100Y-64836300D02*
X105238300Y-64836300D01*
X132840300Y-79697200D02*
X126388000Y-79697200D01*
X126388000Y-79697200D02*
X111527100Y-64836300D01*
X134086900Y-75520000D02*
X134086900Y-78450600D01*
X105238300Y-64836300D02*
X101362000Y-60960000D01*
X101362000Y-60960000D02*
X99060000Y-60960000D01*
%TO.N,/USB_D+*%
X109220000Y-76200000D02*
X107130000Y-76200000D01*
X100072300Y-62230000D02*
X97911350Y-62230000D01*
X97911350Y-62230000D02*
X95868200Y-60186850D01*
X107130000Y-76200000D02*
X107130000Y-69287700D01*
X107130000Y-69287700D02*
X100072300Y-62230000D01*
X95868200Y-44238200D02*
X87360000Y-35730000D01*
X95868200Y-60186850D02*
X95868200Y-44238200D01*
D30*
%TO.N,GND*%
X78740000Y-63400600D02*
X76100600Y-66040000D01*
X77490000Y-35320000D02*
X77490000Y-51509900D01*
X77490000Y-51509900D02*
X78740000Y-52759900D01*
X77613100Y-35196900D02*
X77490000Y-35320000D01*
X78740000Y-52759900D02*
X78740000Y-63400600D01*
X76100600Y-66040000D02*
X71033300Y-66040000D01*
X71033300Y-66040000D02*
X71033300Y-67330000D01*
X71033300Y-67330000D02*
X66040000Y-72323300D01*
D31*
%TO.N,/MOSI*%
X132080000Y-71120000D02*
X133406900Y-71120000D01*
X133406900Y-68120400D02*
X132489200Y-67202700D01*
X132489200Y-67202700D02*
X130702700Y-67202700D01*
X133406900Y-71120000D02*
X133406900Y-68120400D01*
X130810000Y-64770000D02*
X132710900Y-64770000D01*
X132710900Y-64770000D02*
X134620000Y-62860900D01*
X130702700Y-67202700D02*
X129540000Y-66040000D01*
X129540000Y-66040000D02*
X130810000Y-64770000D01*
X134620000Y-62860900D02*
X134620000Y-58420000D01*
X134620000Y-58420000D02*
X137185000Y-55855000D01*
X137185000Y-55855000D02*
X171510000Y-55855000D01*
%TO.N,/USB_D-*%
X109220000Y-78740000D02*
X107893100Y-78740000D01*
X107893100Y-78740000D02*
X106680000Y-77526900D01*
X106680000Y-77526900D02*
X106680000Y-71120000D01*
X102870000Y-67310000D02*
X97919400Y-67310000D01*
X106680000Y-71120000D02*
X102870000Y-67310000D01*
X97919400Y-67310000D02*
X90550900Y-59941500D01*
X90550900Y-59941500D02*
X90550900Y-40920900D01*
X90550900Y-40920900D02*
X85360000Y-35730000D01*
%TO.N,/GP_Y*%
X81280000Y-50800000D02*
X81280000Y-63173000D01*
X81280000Y-63173000D02*
X71120000Y-73333000D01*
X71120000Y-73333000D02*
X71120000Y-81280000D01*
X71120000Y-81280000D02*
X73660000Y-83820000D01*
%TO.N,/+3.3V*%
X76200000Y-55880000D02*
X76200000Y-44069100D01*
X76200000Y-44069100D02*
X75310900Y-43180000D01*
X75310900Y-43180000D02*
X73460000Y-43180000D01*
%TO.N,GND*%
X187420000Y-91440000D02*
X185420000Y-89440000D01*
D30*
X185420000Y-89440000D02*
X185420000Y-66040000D01*
X185420000Y-66040000D02*
X187960000Y-66040000D01*
X185420000Y-30480000D02*
X175260000Y-30480000D01*
D31*
%TO.N,/+3.3V*%
X73460000Y-43180000D02*
X71609100Y-43180000D01*
X71609100Y-43180000D02*
X69910700Y-41481600D01*
X69910700Y-41481600D02*
X69910700Y-31689300D01*
X72329300Y-31689300D02*
X73660000Y-33020000D01*
X69910700Y-31689300D02*
X72329300Y-31689300D01*
D30*
%TO.N,Net-(D1-A)*%
X172720000Y-30480000D02*
X167640000Y-30480000D01*
%TO.N,GND*%
X203890600Y-63500000D02*
X200660000Y-60269400D01*
X200660000Y-48950600D02*
X201350600Y-48260000D01*
X200660000Y-60269400D02*
X200660000Y-48950600D01*
D31*
%TO.N,/+3.3V*%
X226060000Y-52070000D02*
X228600000Y-54610000D01*
X228600000Y-54610000D02*
X228600000Y-69850000D01*
X228600000Y-69850000D02*
X226060000Y-72390000D01*
D30*
%TO.N,GND*%
X187420000Y-91440000D02*
X187420000Y-89440000D01*
X187420000Y-89440000D02*
X187960000Y-88900000D01*
X191990000Y-88900000D02*
X193040000Y-89950000D01*
X193040000Y-89950000D02*
X193040000Y-91440000D01*
X187960000Y-88900000D02*
X191990000Y-88900000D01*
X184880000Y-88900000D02*
X181610000Y-88900000D01*
X187420000Y-91440000D02*
X184880000Y-88900000D01*
X66040000Y-72323300D02*
X64703300Y-72323300D01*
X64703300Y-72323300D02*
X63500000Y-71120000D01*
X63500000Y-71120000D02*
X58791000Y-71120000D01*
X58791000Y-71120000D02*
X57471000Y-72440000D01*
X66040000Y-83820000D02*
X66040000Y-82693100D01*
X66040000Y-72323300D02*
X66040000Y-82693100D01*
D31*
%TO.N,Net-(SW4A-D)*%
X76200000Y-60880000D02*
X76200000Y-60270900D01*
X76200000Y-60270900D02*
X74349100Y-58420000D01*
X74349100Y-58420000D02*
X71120000Y-58420000D01*
%TO.N,/MISO*%
X171510000Y-58395000D02*
X135917792Y-58395000D01*
X135917792Y-58395000D02*
X135520000Y-58792792D01*
X135520000Y-58792792D02*
X135520000Y-63733400D01*
X134086900Y-65166500D02*
X134086900Y-75520000D01*
X134086900Y-75520000D02*
X133406900Y-76200000D01*
X135520000Y-63733400D02*
X134086900Y-65166500D01*
%TO.N,/SD_CS*%
X171510000Y-53315000D02*
X175235000Y-53315000D01*
X135070000Y-58606396D02*
X135070000Y-63519200D01*
X175235000Y-53315000D02*
X175260000Y-53340000D01*
X136487896Y-57188500D02*
X135070000Y-58606396D01*
X175260000Y-53340000D02*
X175260000Y-57188500D01*
X133406900Y-65182300D02*
X133406900Y-66040000D01*
X175260000Y-57188500D02*
X136487896Y-57188500D01*
X135070000Y-63519200D02*
X133406900Y-65182300D01*
X133406900Y-66040000D02*
X132080000Y-66040000D01*
%TO.N,/BAT_CHARGE*%
X146628300Y-51321400D02*
X175781400Y-51321400D01*
X175781400Y-51321400D02*
X177800000Y-53340000D01*
X133406900Y-38100000D02*
X146628300Y-51321400D01*
X132080000Y-38100000D02*
X133406900Y-38100000D01*
X177800000Y-53340000D02*
X177800000Y-57131200D01*
X177800000Y-57131200D02*
X181610000Y-60941200D01*
X181610000Y-60941200D02*
X181610000Y-83820000D01*
%TO.N,/I2S_SD*%
X68580000Y-33020000D02*
X68580000Y-43180000D01*
X73510000Y-45720000D02*
X75318400Y-47528400D01*
X68580000Y-43180000D02*
X71120000Y-45720000D01*
X71120000Y-45720000D02*
X73510000Y-45720000D01*
X75318400Y-47528400D02*
X75318400Y-51646000D01*
X75318400Y-51646000D02*
X75158600Y-51805800D01*
%TO.N,/+3.3V*%
X58420000Y-55880000D02*
X59109100Y-55190900D01*
X59109100Y-55190900D02*
X59109100Y-43180000D01*
X59109100Y-43180000D02*
X60960000Y-43180000D01*
%TO.N,Net-(SW2A-D)*%
X86360000Y-48260000D02*
X86360000Y-49386900D01*
X83820000Y-51926900D02*
X83820000Y-65070900D01*
X86360000Y-49386900D02*
X83820000Y-51926900D01*
X83820000Y-65070900D02*
X75310900Y-73580000D01*
X75310900Y-73580000D02*
X73460000Y-73580000D01*
D30*
%TO.N,GND*%
X107893100Y-30480000D02*
X106680000Y-30480000D01*
X106680000Y-30480000D02*
X106680000Y-43180000D01*
X106680000Y-43180000D02*
X99060000Y-43180000D01*
D31*
%TO.N,/+3.3V*%
X226060000Y-45720000D02*
X226060000Y-52070000D01*
X133406900Y-33020000D02*
X133406900Y-30480000D01*
X132080000Y-30480000D02*
X133406900Y-30480000D01*
X132080000Y-33020000D02*
X133293500Y-33020000D01*
X133293500Y-33020000D02*
X133405400Y-33020000D01*
X133405400Y-33020000D02*
X133406900Y-33020000D01*
X143565400Y-43180000D02*
X133405400Y-33020000D01*
X179070000Y-43180000D02*
X143565400Y-43180000D01*
D30*
%TO.N,GND*%
X197920000Y-30480000D02*
X199770900Y-30480000D01*
X203200000Y-30480000D02*
X201349100Y-30480000D01*
X73296900Y-35196900D02*
X71120000Y-33020000D01*
X77613100Y-35196900D02*
X73296900Y-35196900D01*
X79790000Y-33020000D02*
X77613100Y-35196900D01*
X99060000Y-43180000D02*
X97233100Y-43180000D01*
X109220000Y-30480000D02*
X107893100Y-30480000D01*
X200954500Y-47865400D02*
X201349100Y-48260000D01*
X200954500Y-30874600D02*
X200954500Y-47865400D01*
X200954500Y-30874600D02*
X201349100Y-30480000D01*
X200165500Y-30874600D02*
X200954500Y-30874600D01*
X199770900Y-30480000D02*
X200165500Y-30874600D01*
X205740000Y-63500000D02*
X204002500Y-63500000D01*
D31*
X203200000Y-48260000D02*
X201350600Y-48260000D01*
X201350600Y-48260000D02*
X201349100Y-48260000D01*
X97233100Y-43180000D02*
X97233100Y-43103100D01*
D30*
X200460000Y-66040000D02*
X202310900Y-66040000D01*
X202310900Y-65079700D02*
X203890600Y-63500000D01*
X202310900Y-66040000D02*
X202310900Y-65079700D01*
D31*
X204002500Y-63500000D02*
X203890600Y-63500000D01*
%TO.N,/TFT_LED*%
X132083700Y-78737300D02*
X130756800Y-78737300D01*
X99060000Y-58420000D02*
X100886900Y-58420000D01*
X114042200Y-62022700D02*
X130756800Y-78737300D01*
X104489600Y-62022700D02*
X114042200Y-62022700D01*
X100886900Y-58420000D02*
X104489600Y-62022700D01*
%TO.N,/MISO*%
X132080000Y-76200000D02*
X133406900Y-76200000D01*
%TO.N,/SCK*%
X101963800Y-56956900D02*
X100886900Y-55880000D01*
X114050000Y-56956900D02*
X101963800Y-56956900D01*
X130753100Y-73660000D02*
X114050000Y-56956900D01*
X132080000Y-73660000D02*
X130753100Y-73660000D01*
X99060000Y-55880000D02*
X100886900Y-55880000D01*
X171510000Y-60935000D02*
X169683100Y-60935000D01*
X169683100Y-60935000D02*
X156958100Y-73660000D01*
%TO.N,/MOSI*%
X132080000Y-71120000D02*
X130753100Y-71120000D01*
X99060000Y-53340000D02*
X100886900Y-53340000D01*
X101965300Y-54418400D02*
X100886900Y-53340000D01*
X114051500Y-54418400D02*
X101965300Y-54418400D01*
X130753100Y-71120000D02*
X114051500Y-54418400D01*
%TO.N,/TFT_CS*%
X101963800Y-46796900D02*
X100886900Y-45720000D01*
X109477900Y-46796900D02*
X101963800Y-46796900D01*
X130753100Y-68072100D02*
X109477900Y-46796900D01*
X130753100Y-68580000D02*
X130753100Y-68072100D01*
X132080000Y-68580000D02*
X130753100Y-68580000D01*
X99060000Y-45720000D02*
X100886900Y-45720000D01*
%TO.N,/BTN_A*%
X223820900Y-64770000D02*
X226060000Y-64770000D01*
X220090900Y-68500000D02*
X223820900Y-64770000D01*
X218240000Y-68500000D02*
X220090900Y-68500000D01*
%TO.N,/BTN_B*%
X202310900Y-72914000D02*
X207010000Y-77613100D01*
X202310900Y-71040000D02*
X202310900Y-72914000D01*
X200460000Y-71040000D02*
X202310900Y-71040000D01*
X207010000Y-78740000D02*
X207010000Y-77613100D01*
%TO.N,/START*%
X218503100Y-53260000D02*
X224933100Y-59690000D01*
X215700000Y-53260000D02*
X218503100Y-53260000D01*
X226060000Y-59690000D02*
X224933100Y-59690000D01*
%TO.N,/SEL*%
X199770900Y-44687800D02*
X199390000Y-44306900D01*
X199770900Y-55800000D02*
X199770900Y-44687800D01*
X197920000Y-55800000D02*
X199770900Y-55800000D01*
X199390000Y-43180000D02*
X199390000Y-44306900D01*
%TO.N,/VOL*%
X187270900Y-41472200D02*
X187270900Y-35480000D01*
X186690000Y-42053100D02*
X187270900Y-41472200D01*
X185420000Y-35480000D02*
X187270900Y-35480000D01*
X186690000Y-43180000D02*
X186690000Y-42053100D01*
X197920000Y-35480000D02*
X187270900Y-35480000D01*
%TO.N,/GP_X*%
X62730900Y-58420000D02*
X63500000Y-58420000D01*
X60270900Y-60880000D02*
X62730900Y-58420000D01*
X58420000Y-60880000D02*
X60270900Y-60880000D01*
D30*
%TO.N,/ESP_VCC*%
X85820000Y-84360000D02*
X86746900Y-84360000D01*
X87673800Y-83433100D02*
X86746900Y-84360000D01*
%TD*%
M02*
