%TF.GenerationSoftware,KiCad,Pcbnew,7.0.5-0*%
%TF.CreationDate,2023-06-25T23:04:33+03:00*%
%TF.ProjectId,esp32_game,65737033-325f-4676-916d-652e6b696361,rev?*%
%TF.SameCoordinates,Original*%
%TF.FileFunction,Copper,L1,Top*%
%TF.FilePolarity,Positive*%
%FSLAX46Y46*%
G04 Gerber Fmt 4.6, Leading zero omitted, Abs format (unit mm)*
G04 Created by KiCad (PCBNEW 7.0.5-0) date 2023-06-25 23:04:33*
%MOMM*%
%LPD*%
G01*
G04 APERTURE LIST*
%ADD10C,0.300000*%
%TA.AperFunction,NonConductor*%
%ADD11C,0.300000*%
%TD*%
%TA.AperFunction,ComponentPad*%
%ADD12O,3.048000X1.850000*%
%TD*%
%TA.AperFunction,ComponentPad*%
%ADD13O,3.000000X1.500000*%
%TD*%
%TA.AperFunction,ComponentPad*%
%ADD14C,2.500000*%
%TD*%
%TA.AperFunction,ComponentPad*%
%ADD15C,1.600000*%
%TD*%
%TA.AperFunction,ComponentPad*%
%ADD16O,1.600000X1.600000*%
%TD*%
%TA.AperFunction,ComponentPad*%
%ADD17R,1.200000X1.200000*%
%TD*%
%TA.AperFunction,ComponentPad*%
%ADD18C,1.200000*%
%TD*%
%TA.AperFunction,ComponentPad*%
%ADD19C,1.800000*%
%TD*%
%TA.AperFunction,ComponentPad*%
%ADD20R,1.800000X1.800000*%
%TD*%
%TA.AperFunction,ComponentPad*%
%ADD21R,1.700000X1.700000*%
%TD*%
%TA.AperFunction,ComponentPad*%
%ADD22O,1.700000X1.700000*%
%TD*%
%TA.AperFunction,ComponentPad*%
%ADD23C,3.000000*%
%TD*%
%TA.AperFunction,ComponentPad*%
%ADD24R,1.600000X1.500000*%
%TD*%
%TA.AperFunction,ComponentPad*%
%ADD25R,2.800000X2.800000*%
%TD*%
%TA.AperFunction,ComponentPad*%
%ADD26R,3.000000X3.000000*%
%TD*%
%TA.AperFunction,ComponentPad*%
%ADD27R,2.000000X1.200000*%
%TD*%
%TA.AperFunction,ComponentPad*%
%ADD28O,2.000000X1.200000*%
%TD*%
%TA.AperFunction,ViaPad*%
%ADD29C,0.800000*%
%TD*%
%TA.AperFunction,Conductor*%
%ADD30C,0.250000*%
%TD*%
%TA.AperFunction,Conductor*%
%ADD31C,0.500000*%
%TD*%
G04 APERTURE END LIST*
D10*
D11*
G36*
X58827030Y-90725579D02*
G01*
X58825931Y-91164483D01*
X58825030Y-91181523D01*
X58822325Y-91198023D01*
X58817817Y-91213981D01*
X58811506Y-91229398D01*
X58803391Y-91244275D01*
X58800286Y-91249113D01*
X58790709Y-91261564D01*
X58780113Y-91272354D01*
X58768498Y-91281485D01*
X58755864Y-91288955D01*
X58742211Y-91294766D01*
X58727539Y-91298916D01*
X58711849Y-91301406D01*
X58695139Y-91302236D01*
X58680195Y-91301650D01*
X58661221Y-91299045D01*
X58643335Y-91294357D01*
X58626537Y-91287585D01*
X58610826Y-91278729D01*
X58596203Y-91267790D01*
X58582668Y-91254767D01*
X58570220Y-91239660D01*
X58567278Y-91235558D01*
X58558863Y-91222351D01*
X58551570Y-91208928D01*
X58545399Y-91195286D01*
X58540350Y-91181427D01*
X58535617Y-91163798D01*
X58532636Y-91145829D01*
X58531514Y-91131208D01*
X58531374Y-91123817D01*
X58531388Y-91109118D01*
X58531430Y-91093965D01*
X58531500Y-91078358D01*
X58531597Y-91062296D01*
X58531723Y-91045780D01*
X58531877Y-91028810D01*
X58532058Y-91011385D01*
X58532267Y-90993505D01*
X58532504Y-90975172D01*
X58532770Y-90956384D01*
X58533063Y-90937142D01*
X58533384Y-90917445D01*
X58533732Y-90897294D01*
X58534109Y-90876688D01*
X58534514Y-90855628D01*
X58534946Y-90834114D01*
X58535407Y-90812146D01*
X58535895Y-90789723D01*
X58536411Y-90766845D01*
X58536956Y-90743513D01*
X58537528Y-90719727D01*
X58538128Y-90695487D01*
X58538756Y-90670792D01*
X58539411Y-90645643D01*
X58540095Y-90620039D01*
X58540807Y-90593981D01*
X58541546Y-90567469D01*
X58542314Y-90540502D01*
X58543109Y-90513081D01*
X58543932Y-90485205D01*
X58544783Y-90456875D01*
X58545662Y-90428091D01*
X58546564Y-90399307D01*
X58547437Y-90370977D01*
X58548281Y-90343101D01*
X58549097Y-90315680D01*
X58549884Y-90288713D01*
X58550643Y-90262201D01*
X58551373Y-90236143D01*
X58552074Y-90210539D01*
X58552746Y-90185390D01*
X58553390Y-90160695D01*
X58554006Y-90136455D01*
X58554593Y-90112668D01*
X58555151Y-90089337D01*
X58555680Y-90066459D01*
X58556181Y-90044036D01*
X58556653Y-90022068D01*
X58557097Y-90000553D01*
X58557512Y-89979494D01*
X58557898Y-89958888D01*
X58558256Y-89938737D01*
X58558585Y-89919040D01*
X58558886Y-89899798D01*
X58559158Y-89881010D01*
X58559401Y-89862676D01*
X58559616Y-89844797D01*
X58559802Y-89827372D01*
X58559959Y-89810402D01*
X58560088Y-89793886D01*
X58560188Y-89777824D01*
X58560260Y-89762217D01*
X58560303Y-89747064D01*
X58560317Y-89732365D01*
X58561319Y-89714564D01*
X58564324Y-89697568D01*
X58569333Y-89681376D01*
X58576345Y-89665990D01*
X58585361Y-89651409D01*
X58596381Y-89637633D01*
X58601350Y-89632348D01*
X58614779Y-89620316D01*
X58629192Y-89610323D01*
X58644589Y-89602370D01*
X58660970Y-89596455D01*
X58678335Y-89592581D01*
X58692935Y-89590949D01*
X58704298Y-89590582D01*
X58719445Y-89591235D01*
X58737445Y-89593886D01*
X58754407Y-89598576D01*
X58770332Y-89605306D01*
X58785219Y-89614075D01*
X58799068Y-89624884D01*
X58806880Y-89632348D01*
X58818596Y-89645802D01*
X58828325Y-89660061D01*
X58836069Y-89675125D01*
X58841828Y-89690995D01*
X58845601Y-89707669D01*
X58847388Y-89725148D01*
X58847547Y-89732365D01*
X58847466Y-89750530D01*
X58847225Y-89769855D01*
X58846822Y-89790338D01*
X58846259Y-89811981D01*
X58845793Y-89827053D01*
X58845257Y-89842641D01*
X58844649Y-89858744D01*
X58843969Y-89875362D01*
X58843217Y-89892495D01*
X58842395Y-89910143D01*
X58841500Y-89928307D01*
X58840534Y-89946986D01*
X58839497Y-89966180D01*
X58838387Y-89985889D01*
X58837004Y-90008647D01*
X58835691Y-90030483D01*
X58834451Y-90051397D01*
X58833281Y-90071390D01*
X58832184Y-90090460D01*
X58831158Y-90108610D01*
X58830203Y-90125838D01*
X58829320Y-90142144D01*
X58828509Y-90157528D01*
X58827426Y-90178877D01*
X58826504Y-90198152D01*
X58825743Y-90215353D01*
X58825143Y-90230480D01*
X58824832Y-90239413D01*
X58835379Y-90228802D01*
X58848978Y-90214644D01*
X58865627Y-90196939D01*
X58885328Y-90175689D01*
X58896322Y-90163734D01*
X58908080Y-90150892D01*
X58920600Y-90137164D01*
X58933883Y-90122549D01*
X58947928Y-90107047D01*
X58962737Y-90090659D01*
X58978308Y-90073385D01*
X58994642Y-90055224D01*
X59011739Y-90036176D01*
X59029598Y-90016242D01*
X59048220Y-89995421D01*
X59067606Y-89973713D01*
X59087753Y-89951119D01*
X59108664Y-89927639D01*
X59130338Y-89903272D01*
X59152774Y-89878018D01*
X59175973Y-89851878D01*
X59199935Y-89824851D01*
X59224659Y-89796937D01*
X59250147Y-89768137D01*
X59276397Y-89738451D01*
X59303410Y-89707877D01*
X59331185Y-89676418D01*
X59359724Y-89644071D01*
X59371848Y-89631535D01*
X59384408Y-89620670D01*
X59397402Y-89611476D01*
X59410832Y-89603954D01*
X59424696Y-89598104D01*
X59438996Y-89593925D01*
X59453731Y-89591418D01*
X59468900Y-89590582D01*
X59486957Y-89591620D01*
X59504263Y-89594732D01*
X59520818Y-89599920D01*
X59536621Y-89607183D01*
X59551672Y-89616521D01*
X59565973Y-89627934D01*
X59571482Y-89633080D01*
X59581786Y-89643991D01*
X59592734Y-89658435D01*
X59601536Y-89673773D01*
X59608190Y-89690005D01*
X59612698Y-89707132D01*
X59615060Y-89725153D01*
X59615446Y-89736395D01*
X59611611Y-89756087D01*
X59603700Y-89775184D01*
X59596030Y-89789976D01*
X59586441Y-89806417D01*
X59574935Y-89824506D01*
X59561511Y-89844244D01*
X59546170Y-89865630D01*
X59528910Y-89888665D01*
X59519562Y-89900801D01*
X59509734Y-89913349D01*
X59499426Y-89926309D01*
X59488639Y-89939682D01*
X59477373Y-89953466D01*
X59465627Y-89967663D01*
X59453401Y-89982271D01*
X59440697Y-89997292D01*
X59427513Y-90012725D01*
X59413849Y-90028571D01*
X59399706Y-90044828D01*
X59385084Y-90061498D01*
X59369982Y-90078579D01*
X59358629Y-90091260D01*
X59347237Y-90103930D01*
X59335808Y-90116590D01*
X59324341Y-90129241D01*
X59312836Y-90141881D01*
X59301293Y-90154511D01*
X59289712Y-90167132D01*
X59278093Y-90179742D01*
X59266437Y-90192342D01*
X59254742Y-90204932D01*
X59243009Y-90217512D01*
X59231239Y-90230082D01*
X59219430Y-90242643D01*
X59207584Y-90255193D01*
X59195700Y-90267733D01*
X59183777Y-90280263D01*
X59171817Y-90292783D01*
X59159819Y-90305293D01*
X59147783Y-90317793D01*
X59135709Y-90330283D01*
X59123597Y-90342763D01*
X59111448Y-90355233D01*
X59099260Y-90367693D01*
X59087034Y-90380143D01*
X59074771Y-90392583D01*
X59062469Y-90405013D01*
X59050130Y-90417433D01*
X59037753Y-90429843D01*
X59025337Y-90442242D01*
X59012884Y-90454632D01*
X59000393Y-90467012D01*
X58987864Y-90479382D01*
X59001883Y-90492754D01*
X59015914Y-90506127D01*
X59029956Y-90519499D01*
X59044009Y-90532871D01*
X59058074Y-90546243D01*
X59072151Y-90559616D01*
X59086239Y-90572988D01*
X59100338Y-90586360D01*
X59114449Y-90599733D01*
X59128571Y-90613105D01*
X59142705Y-90626477D01*
X59156850Y-90639849D01*
X59171006Y-90653222D01*
X59185174Y-90666594D01*
X59199354Y-90679966D01*
X59213545Y-90693339D01*
X59229926Y-90708510D01*
X59246099Y-90723340D01*
X59262063Y-90737830D01*
X59277819Y-90751980D01*
X59293365Y-90765789D01*
X59308702Y-90779257D01*
X59323830Y-90792384D01*
X59338750Y-90805171D01*
X59353460Y-90817618D01*
X59367961Y-90829723D01*
X59382254Y-90841489D01*
X59396337Y-90852913D01*
X59410212Y-90863997D01*
X59423878Y-90874740D01*
X59437334Y-90885143D01*
X59450582Y-90895205D01*
X59463811Y-90904530D01*
X59477304Y-90913272D01*
X59491060Y-90921429D01*
X59505079Y-90929002D01*
X59519361Y-90935992D01*
X59533907Y-90942398D01*
X59548716Y-90948219D01*
X59563789Y-90953457D01*
X59583496Y-90960628D01*
X59601265Y-90968952D01*
X59617096Y-90978428D01*
X59630988Y-90989058D01*
X59642942Y-91000840D01*
X59652957Y-91013774D01*
X59661034Y-91027862D01*
X59667172Y-91043102D01*
X59671372Y-91059495D01*
X59673634Y-91077041D01*
X59674064Y-91089378D01*
X59673086Y-91106037D01*
X59670149Y-91122489D01*
X59665254Y-91138735D01*
X59658402Y-91154774D01*
X59651197Y-91167984D01*
X59646221Y-91175840D01*
X59636226Y-91188978D01*
X59625292Y-91200364D01*
X59613420Y-91209998D01*
X59600608Y-91217881D01*
X59586858Y-91224012D01*
X59572169Y-91228391D01*
X59556542Y-91231018D01*
X59539975Y-91231894D01*
X59521223Y-91231136D01*
X59501787Y-91228860D01*
X59481667Y-91225068D01*
X59460863Y-91219758D01*
X59439375Y-91212932D01*
X59417203Y-91204589D01*
X59394347Y-91194728D01*
X59370806Y-91183351D01*
X59346582Y-91170457D01*
X59321673Y-91156045D01*
X59308963Y-91148271D01*
X59296081Y-91140117D01*
X59283028Y-91131584D01*
X59269804Y-91122672D01*
X59256409Y-91113380D01*
X59242844Y-91103710D01*
X59229107Y-91093660D01*
X59215199Y-91083230D01*
X59201120Y-91072422D01*
X59186870Y-91061234D01*
X59172449Y-91049667D01*
X59157857Y-91037721D01*
X59143059Y-91025142D01*
X59131330Y-91014838D01*
X59118109Y-91002999D01*
X59103397Y-90989627D01*
X59087194Y-90974721D01*
X59069500Y-90958280D01*
X59050315Y-90940305D01*
X59029638Y-90920796D01*
X59018740Y-90910467D01*
X59007470Y-90899753D01*
X58995827Y-90888657D01*
X58983811Y-90877176D01*
X58971422Y-90865312D01*
X58958661Y-90853065D01*
X58945526Y-90840434D01*
X58932019Y-90827419D01*
X58918139Y-90814021D01*
X58903886Y-90800240D01*
X58889261Y-90786075D01*
X58874262Y-90771526D01*
X58858891Y-90756594D01*
X58843147Y-90741278D01*
X58827030Y-90725579D01*
G37*
G36*
X60042260Y-89942292D02*
G01*
X60026049Y-89941656D01*
X60010387Y-89939750D01*
X59995274Y-89936573D01*
X59980711Y-89932125D01*
X59966698Y-89926407D01*
X59953234Y-89919417D01*
X59940320Y-89911157D01*
X59927955Y-89901625D01*
X59916620Y-89891087D01*
X59906797Y-89879987D01*
X59896644Y-89865324D01*
X59888851Y-89849783D01*
X59883420Y-89833367D01*
X59880350Y-89816074D01*
X59879595Y-89801608D01*
X59880775Y-89783623D01*
X59884317Y-89766531D01*
X59890221Y-89750335D01*
X59898485Y-89735033D01*
X59909111Y-89720625D01*
X59919312Y-89709743D01*
X59927955Y-89701957D01*
X59940320Y-89692340D01*
X59953234Y-89684005D01*
X59966698Y-89676953D01*
X59980711Y-89671182D01*
X59995274Y-89666694D01*
X60010387Y-89663489D01*
X60026049Y-89661565D01*
X60042260Y-89660924D01*
X60058466Y-89661565D01*
X60074111Y-89663489D01*
X60089195Y-89666694D01*
X60103718Y-89671182D01*
X60117680Y-89676953D01*
X60131081Y-89684005D01*
X60143921Y-89692340D01*
X60156200Y-89701957D01*
X60167448Y-89712410D01*
X60177197Y-89723435D01*
X60187274Y-89738022D01*
X60195007Y-89753503D01*
X60200397Y-89769878D01*
X60203444Y-89787148D01*
X60204193Y-89801608D01*
X60203022Y-89819602D01*
X60199507Y-89836720D01*
X60193648Y-89852962D01*
X60185446Y-89868326D01*
X60174900Y-89882815D01*
X60164777Y-89893774D01*
X60156200Y-89901625D01*
X60143921Y-89911157D01*
X60131081Y-89919417D01*
X60117680Y-89926407D01*
X60103718Y-89932125D01*
X60089195Y-89936573D01*
X60074111Y-89939750D01*
X60058466Y-89941656D01*
X60042260Y-89942292D01*
G37*
G36*
X60129822Y-90710924D02*
G01*
X60129879Y-90726895D01*
X60130051Y-90745133D01*
X60130254Y-90760300D01*
X60130523Y-90776741D01*
X60130856Y-90794457D01*
X60131253Y-90813449D01*
X60131714Y-90833716D01*
X60132240Y-90855257D01*
X60132627Y-90870327D01*
X60133042Y-90885963D01*
X60133485Y-90902166D01*
X60133929Y-90918325D01*
X60134344Y-90933920D01*
X60134730Y-90948951D01*
X60135256Y-90970440D01*
X60135718Y-90990660D01*
X60136115Y-91009612D01*
X60136448Y-91027295D01*
X60136716Y-91043710D01*
X60136920Y-91058856D01*
X60137092Y-91077077D01*
X60137149Y-91093042D01*
X60136519Y-91107823D01*
X60133961Y-91125364D01*
X60129435Y-91141869D01*
X60122941Y-91157335D01*
X60114480Y-91171765D01*
X60104051Y-91185156D01*
X60096849Y-91192693D01*
X60083833Y-91203986D01*
X60069744Y-91213366D01*
X60054581Y-91220831D01*
X60038345Y-91226381D01*
X60021036Y-91230018D01*
X60006415Y-91231550D01*
X59995000Y-91231894D01*
X59979858Y-91231282D01*
X59961882Y-91228793D01*
X59944961Y-91224391D01*
X59929095Y-91218074D01*
X59914285Y-91209844D01*
X59900530Y-91199699D01*
X59892784Y-91192693D01*
X59881280Y-91179924D01*
X59871725Y-91166117D01*
X59864121Y-91151273D01*
X59858466Y-91135391D01*
X59854761Y-91118472D01*
X59853006Y-91100515D01*
X59852850Y-91093042D01*
X59852793Y-91077077D01*
X59852621Y-91058856D01*
X59852417Y-91043710D01*
X59852149Y-91027295D01*
X59851816Y-91009612D01*
X59851419Y-90990660D01*
X59850958Y-90970440D01*
X59850432Y-90948951D01*
X59850045Y-90933920D01*
X59849630Y-90918325D01*
X59849187Y-90902166D01*
X59848743Y-90885963D01*
X59848328Y-90870327D01*
X59847941Y-90855257D01*
X59847416Y-90833716D01*
X59846954Y-90813449D01*
X59846557Y-90794457D01*
X59846224Y-90776741D01*
X59845956Y-90760300D01*
X59845752Y-90745133D01*
X59845580Y-90726895D01*
X59845523Y-90710924D01*
X59845613Y-90693067D01*
X59845884Y-90674392D01*
X59846334Y-90654899D01*
X59846965Y-90634589D01*
X59847777Y-90613460D01*
X59848769Y-90591514D01*
X59849530Y-90576428D01*
X59850371Y-90560980D01*
X59851293Y-90545167D01*
X59852295Y-90528991D01*
X59853377Y-90512452D01*
X59854539Y-90495549D01*
X59855781Y-90478283D01*
X59857023Y-90460972D01*
X59858185Y-90444028D01*
X59859267Y-90427450D01*
X59860269Y-90411238D01*
X59861191Y-90395393D01*
X59862032Y-90379914D01*
X59862794Y-90364801D01*
X59863475Y-90350055D01*
X59864346Y-90328623D01*
X59865037Y-90308015D01*
X59865548Y-90288231D01*
X59865879Y-90269272D01*
X59866029Y-90251137D01*
X59866039Y-90245275D01*
X59866663Y-90230495D01*
X59869198Y-90212953D01*
X59873683Y-90196449D01*
X59880117Y-90180982D01*
X59888502Y-90166553D01*
X59898836Y-90153161D01*
X59905973Y-90145624D01*
X59919094Y-90134331D01*
X59933271Y-90124952D01*
X59948504Y-90117487D01*
X59964792Y-90111936D01*
X59982135Y-90108299D01*
X59996769Y-90106768D01*
X60008189Y-90106423D01*
X60023324Y-90107036D01*
X60041277Y-90109524D01*
X60058157Y-90113926D01*
X60073964Y-90120243D01*
X60088697Y-90128474D01*
X60102357Y-90138618D01*
X60110038Y-90145624D01*
X60121648Y-90158393D01*
X60131290Y-90172200D01*
X60138964Y-90187044D01*
X60144671Y-90202926D01*
X60148410Y-90219845D01*
X60150181Y-90237802D01*
X60150338Y-90245275D01*
X60150248Y-90263135D01*
X60149977Y-90281820D01*
X60149527Y-90301329D01*
X60148895Y-90321662D01*
X60148084Y-90342820D01*
X60147092Y-90364801D01*
X60146331Y-90379914D01*
X60145489Y-90395393D01*
X60144568Y-90411238D01*
X60143566Y-90427450D01*
X60142484Y-90444028D01*
X60141322Y-90460972D01*
X60140080Y-90478283D01*
X60138838Y-90495549D01*
X60137675Y-90512452D01*
X60136594Y-90528991D01*
X60135592Y-90545167D01*
X60134670Y-90560980D01*
X60133829Y-90576428D01*
X60133067Y-90591514D01*
X60132386Y-90606236D01*
X60131515Y-90627637D01*
X60130823Y-90648220D01*
X60130312Y-90667985D01*
X60129982Y-90686933D01*
X60129832Y-90705063D01*
X60129822Y-90710924D01*
G37*
G36*
X60696953Y-90725579D02*
G01*
X60695854Y-91164483D01*
X60694953Y-91181523D01*
X60692248Y-91198023D01*
X60687740Y-91213981D01*
X60681429Y-91229398D01*
X60673314Y-91244275D01*
X60670209Y-91249113D01*
X60660632Y-91261564D01*
X60650036Y-91272354D01*
X60638421Y-91281485D01*
X60625787Y-91288955D01*
X60612134Y-91294766D01*
X60597463Y-91298916D01*
X60581772Y-91301406D01*
X60565062Y-91302236D01*
X60550118Y-91301650D01*
X60531145Y-91299045D01*
X60513259Y-91294357D01*
X60496460Y-91287585D01*
X60480750Y-91278729D01*
X60466126Y-91267790D01*
X60452591Y-91254767D01*
X60440143Y-91239660D01*
X60437201Y-91235558D01*
X60428786Y-91222351D01*
X60421493Y-91208928D01*
X60415322Y-91195286D01*
X60410273Y-91181427D01*
X60405540Y-91163798D01*
X60402560Y-91145829D01*
X60401438Y-91131208D01*
X60401297Y-91123817D01*
X60401311Y-91109118D01*
X60401353Y-91093965D01*
X60401423Y-91078358D01*
X60401521Y-91062296D01*
X60401646Y-91045780D01*
X60401800Y-91028810D01*
X60401981Y-91011385D01*
X60402190Y-90993505D01*
X60402428Y-90975172D01*
X60402693Y-90956384D01*
X60402986Y-90937142D01*
X60403307Y-90917445D01*
X60403656Y-90897294D01*
X60404032Y-90876688D01*
X60404437Y-90855628D01*
X60404870Y-90834114D01*
X60405330Y-90812146D01*
X60405818Y-90789723D01*
X60406335Y-90766845D01*
X60406879Y-90743513D01*
X60407451Y-90719727D01*
X60408051Y-90695487D01*
X60408679Y-90670792D01*
X60409335Y-90645643D01*
X60410018Y-90620039D01*
X60410730Y-90593981D01*
X60411469Y-90567469D01*
X60412237Y-90540502D01*
X60413032Y-90513081D01*
X60413855Y-90485205D01*
X60414707Y-90456875D01*
X60415586Y-90428091D01*
X60416487Y-90399307D01*
X60417360Y-90370977D01*
X60418205Y-90343101D01*
X60419020Y-90315680D01*
X60419807Y-90288713D01*
X60420566Y-90262201D01*
X60421296Y-90236143D01*
X60421997Y-90210539D01*
X60422670Y-90185390D01*
X60423314Y-90160695D01*
X60423929Y-90136455D01*
X60424516Y-90112668D01*
X60425074Y-90089337D01*
X60425603Y-90066459D01*
X60426104Y-90044036D01*
X60426577Y-90022068D01*
X60427020Y-90000553D01*
X60427435Y-89979494D01*
X60427822Y-89958888D01*
X60428179Y-89938737D01*
X60428509Y-89919040D01*
X60428809Y-89899798D01*
X60429081Y-89881010D01*
X60429324Y-89862676D01*
X60429539Y-89844797D01*
X60429725Y-89827372D01*
X60429882Y-89810402D01*
X60430011Y-89793886D01*
X60430111Y-89777824D01*
X60430183Y-89762217D01*
X60430226Y-89747064D01*
X60430240Y-89732365D01*
X60431242Y-89714564D01*
X60434247Y-89697568D01*
X60439256Y-89681376D01*
X60446269Y-89665990D01*
X60455285Y-89651409D01*
X60466304Y-89637633D01*
X60471273Y-89632348D01*
X60484702Y-89620316D01*
X60499115Y-89610323D01*
X60514512Y-89602370D01*
X60530893Y-89596455D01*
X60548258Y-89592581D01*
X60562858Y-89590949D01*
X60574221Y-89590582D01*
X60589368Y-89591235D01*
X60607368Y-89593886D01*
X60624330Y-89598576D01*
X60640255Y-89605306D01*
X60655142Y-89614075D01*
X60668992Y-89624884D01*
X60676803Y-89632348D01*
X60688519Y-89645802D01*
X60698249Y-89660061D01*
X60705993Y-89675125D01*
X60711751Y-89690995D01*
X60715524Y-89707669D01*
X60717311Y-89725148D01*
X60717470Y-89732365D01*
X60717389Y-89750530D01*
X60717148Y-89769855D01*
X60716745Y-89790338D01*
X60716182Y-89811981D01*
X60715717Y-89827053D01*
X60715180Y-89842641D01*
X60714572Y-89858744D01*
X60713892Y-89875362D01*
X60713141Y-89892495D01*
X60712318Y-89910143D01*
X60711423Y-89928307D01*
X60710457Y-89946986D01*
X60709420Y-89966180D01*
X60708311Y-89985889D01*
X60706927Y-90008647D01*
X60705615Y-90030483D01*
X60704374Y-90051397D01*
X60703205Y-90071390D01*
X60702107Y-90090460D01*
X60701081Y-90108610D01*
X60700126Y-90125838D01*
X60699243Y-90142144D01*
X60698432Y-90157528D01*
X60697349Y-90178877D01*
X60696427Y-90198152D01*
X60695666Y-90215353D01*
X60695066Y-90230480D01*
X60694755Y-90239413D01*
X60705303Y-90228802D01*
X60718901Y-90214644D01*
X60735550Y-90196939D01*
X60755251Y-90175689D01*
X60766246Y-90163734D01*
X60778003Y-90150892D01*
X60790523Y-90137164D01*
X60803806Y-90122549D01*
X60817852Y-90107047D01*
X60832660Y-90090659D01*
X60848231Y-90073385D01*
X60864565Y-90055224D01*
X60881662Y-90036176D01*
X60899521Y-90016242D01*
X60918144Y-89995421D01*
X60937529Y-89973713D01*
X60957677Y-89951119D01*
X60978587Y-89927639D01*
X61000261Y-89903272D01*
X61022697Y-89878018D01*
X61045896Y-89851878D01*
X61069858Y-89824851D01*
X61094582Y-89796937D01*
X61120070Y-89768137D01*
X61146320Y-89738451D01*
X61173333Y-89707877D01*
X61201109Y-89676418D01*
X61229647Y-89644071D01*
X61241771Y-89631535D01*
X61254331Y-89620670D01*
X61267325Y-89611476D01*
X61280755Y-89603954D01*
X61294620Y-89598104D01*
X61308919Y-89593925D01*
X61323654Y-89591418D01*
X61338824Y-89590582D01*
X61356881Y-89591620D01*
X61374186Y-89594732D01*
X61390741Y-89599920D01*
X61406544Y-89607183D01*
X61421595Y-89616521D01*
X61435896Y-89627934D01*
X61441406Y-89633080D01*
X61451710Y-89643991D01*
X61462658Y-89658435D01*
X61471459Y-89673773D01*
X61478114Y-89690005D01*
X61482622Y-89707132D01*
X61484983Y-89725153D01*
X61485369Y-89736395D01*
X61481534Y-89756087D01*
X61473624Y-89775184D01*
X61465953Y-89789976D01*
X61456364Y-89806417D01*
X61444858Y-89824506D01*
X61431434Y-89844244D01*
X61416093Y-89865630D01*
X61398834Y-89888665D01*
X61389485Y-89900801D01*
X61379657Y-89913349D01*
X61369349Y-89926309D01*
X61358562Y-89939682D01*
X61347296Y-89953466D01*
X61335550Y-89967663D01*
X61323325Y-89982271D01*
X61310620Y-89997292D01*
X61297436Y-90012725D01*
X61283772Y-90028571D01*
X61269629Y-90044828D01*
X61255007Y-90061498D01*
X61239905Y-90078579D01*
X61228552Y-90091260D01*
X61217161Y-90103930D01*
X61205731Y-90116590D01*
X61194264Y-90129241D01*
X61182759Y-90141881D01*
X61171216Y-90154511D01*
X61159635Y-90167132D01*
X61148017Y-90179742D01*
X61136360Y-90192342D01*
X61124665Y-90204932D01*
X61112933Y-90217512D01*
X61101162Y-90230082D01*
X61089354Y-90242643D01*
X61077507Y-90255193D01*
X61065623Y-90267733D01*
X61053701Y-90280263D01*
X61041741Y-90292783D01*
X61029742Y-90305293D01*
X61017706Y-90317793D01*
X61005633Y-90330283D01*
X60993521Y-90342763D01*
X60981371Y-90355233D01*
X60969183Y-90367693D01*
X60956958Y-90380143D01*
X60944694Y-90392583D01*
X60932393Y-90405013D01*
X60920053Y-90417433D01*
X60907676Y-90429843D01*
X60895261Y-90442242D01*
X60882807Y-90454632D01*
X60870316Y-90467012D01*
X60857787Y-90479382D01*
X60871807Y-90492754D01*
X60885837Y-90506127D01*
X60899879Y-90519499D01*
X60913933Y-90532871D01*
X60927998Y-90546243D01*
X60942074Y-90559616D01*
X60956162Y-90572988D01*
X60970261Y-90586360D01*
X60984372Y-90599733D01*
X60998494Y-90613105D01*
X61012628Y-90626477D01*
X61026773Y-90639849D01*
X61040929Y-90653222D01*
X61055097Y-90666594D01*
X61069277Y-90679966D01*
X61083468Y-90693339D01*
X61099850Y-90708510D01*
X61116023Y-90723340D01*
X61131987Y-90737830D01*
X61147742Y-90751980D01*
X61163288Y-90765789D01*
X61178625Y-90779257D01*
X61193753Y-90792384D01*
X61208673Y-90805171D01*
X61223383Y-90817618D01*
X61237885Y-90829723D01*
X61252177Y-90841489D01*
X61266261Y-90852913D01*
X61280135Y-90863997D01*
X61293801Y-90874740D01*
X61307258Y-90885143D01*
X61320505Y-90895205D01*
X61333735Y-90904530D01*
X61347227Y-90913272D01*
X61360983Y-90921429D01*
X61375002Y-90929002D01*
X61389285Y-90935992D01*
X61403830Y-90942398D01*
X61418640Y-90948219D01*
X61433712Y-90953457D01*
X61453419Y-90960628D01*
X61471188Y-90968952D01*
X61487019Y-90978428D01*
X61500911Y-90989058D01*
X61512865Y-91000840D01*
X61522880Y-91013774D01*
X61530957Y-91027862D01*
X61537095Y-91043102D01*
X61541295Y-91059495D01*
X61543557Y-91077041D01*
X61543988Y-91089378D01*
X61543009Y-91106037D01*
X61540072Y-91122489D01*
X61535178Y-91138735D01*
X61528326Y-91154774D01*
X61521120Y-91167984D01*
X61516144Y-91175840D01*
X61506149Y-91188978D01*
X61495215Y-91200364D01*
X61483343Y-91209998D01*
X61470532Y-91217881D01*
X61456781Y-91224012D01*
X61442093Y-91228391D01*
X61426465Y-91231018D01*
X61409898Y-91231894D01*
X61391146Y-91231136D01*
X61371711Y-91228860D01*
X61351591Y-91225068D01*
X61330787Y-91219758D01*
X61309298Y-91212932D01*
X61287126Y-91204589D01*
X61264270Y-91194728D01*
X61240730Y-91183351D01*
X61216505Y-91170457D01*
X61191597Y-91156045D01*
X61178886Y-91148271D01*
X61166004Y-91140117D01*
X61152951Y-91131584D01*
X61139728Y-91122672D01*
X61126333Y-91113380D01*
X61112767Y-91103710D01*
X61099030Y-91093660D01*
X61085122Y-91083230D01*
X61071043Y-91072422D01*
X61056793Y-91061234D01*
X61042372Y-91049667D01*
X61027780Y-91037721D01*
X61012982Y-91025142D01*
X61001253Y-91014838D01*
X60988032Y-91002999D01*
X60973321Y-90989627D01*
X60957118Y-90974721D01*
X60939423Y-90958280D01*
X60920238Y-90940305D01*
X60899561Y-90920796D01*
X60888664Y-90910467D01*
X60877393Y-90899753D01*
X60865750Y-90888657D01*
X60853734Y-90877176D01*
X60841345Y-90865312D01*
X60828584Y-90853065D01*
X60815449Y-90840434D01*
X60801942Y-90827419D01*
X60788062Y-90814021D01*
X60773809Y-90800240D01*
X60759184Y-90786075D01*
X60744185Y-90771526D01*
X60728814Y-90756594D01*
X60713070Y-90741278D01*
X60696953Y-90725579D01*
G37*
G36*
X62202473Y-90107079D02*
G01*
X62227223Y-90109045D01*
X62251314Y-90112322D01*
X62274747Y-90116910D01*
X62297522Y-90122809D01*
X62319638Y-90130019D01*
X62341096Y-90138540D01*
X62361896Y-90148372D01*
X62382037Y-90159514D01*
X62401520Y-90171968D01*
X62420345Y-90185732D01*
X62438512Y-90200808D01*
X62456020Y-90217194D01*
X62472870Y-90234891D01*
X62489061Y-90253899D01*
X62504595Y-90274218D01*
X62517815Y-90293368D01*
X62530183Y-90313081D01*
X62541698Y-90333359D01*
X62552359Y-90354200D01*
X62562168Y-90375605D01*
X62571124Y-90397574D01*
X62579227Y-90420107D01*
X62586477Y-90443203D01*
X62592874Y-90466864D01*
X62598418Y-90491088D01*
X62603110Y-90515877D01*
X62606948Y-90541229D01*
X62609933Y-90567145D01*
X62612065Y-90593625D01*
X62613345Y-90620668D01*
X62613771Y-90648276D01*
X62613646Y-90663410D01*
X62613272Y-90678405D01*
X62612648Y-90693260D01*
X62611773Y-90707976D01*
X62609276Y-90736989D01*
X62605780Y-90765444D01*
X62601285Y-90793340D01*
X62595791Y-90820679D01*
X62589298Y-90847459D01*
X62581806Y-90873681D01*
X62573315Y-90899346D01*
X62563826Y-90924452D01*
X62553337Y-90948999D01*
X62541849Y-90972989D01*
X62529363Y-90996421D01*
X62515878Y-91019294D01*
X62501393Y-91041609D01*
X62485910Y-91063367D01*
X62476862Y-91075178D01*
X62467622Y-91086614D01*
X62448570Y-91108361D01*
X62428753Y-91128608D01*
X62408172Y-91147356D01*
X62386827Y-91164603D01*
X62364718Y-91180351D01*
X62341845Y-91194599D01*
X62318207Y-91207348D01*
X62293805Y-91218596D01*
X62268639Y-91228345D01*
X62242709Y-91236594D01*
X62216014Y-91243343D01*
X62188555Y-91248592D01*
X62160333Y-91252342D01*
X62131345Y-91254592D01*
X62116565Y-91255154D01*
X62101594Y-91255341D01*
X62077989Y-91254822D01*
X62054802Y-91253263D01*
X62032034Y-91250666D01*
X62009682Y-91247030D01*
X61987749Y-91242354D01*
X61966234Y-91236640D01*
X61945136Y-91229886D01*
X61924457Y-91222094D01*
X61904195Y-91213262D01*
X61884351Y-91203392D01*
X61864926Y-91192483D01*
X61845918Y-91180534D01*
X61827327Y-91167547D01*
X61809155Y-91153521D01*
X61791401Y-91138455D01*
X61774064Y-91122351D01*
X61755846Y-91103744D01*
X61738745Y-91084375D01*
X61722759Y-91064245D01*
X61707890Y-91043354D01*
X61694137Y-91021701D01*
X61681500Y-90999287D01*
X61669980Y-90976112D01*
X61659576Y-90952175D01*
X61650288Y-90927477D01*
X61642116Y-90902017D01*
X61635061Y-90875797D01*
X61629122Y-90848814D01*
X61624299Y-90821071D01*
X61620592Y-90792566D01*
X61618002Y-90763300D01*
X61617125Y-90748381D01*
X61616528Y-90733272D01*
X61616509Y-90731807D01*
X61901926Y-90731807D01*
X61902199Y-90747060D01*
X61903019Y-90761860D01*
X61905274Y-90783213D01*
X61908759Y-90803548D01*
X61913474Y-90822866D01*
X61919419Y-90841167D01*
X61926595Y-90858449D01*
X61935000Y-90874715D01*
X61944635Y-90889962D01*
X61955501Y-90904193D01*
X61967596Y-90917405D01*
X61971901Y-90921584D01*
X61986115Y-90933863D01*
X62000913Y-90944504D01*
X62016294Y-90953509D01*
X62032260Y-90960876D01*
X62048809Y-90966606D01*
X62065942Y-90970699D01*
X62083659Y-90973155D01*
X62101960Y-90973974D01*
X62118581Y-90973439D01*
X62134783Y-90971836D01*
X62150566Y-90969163D01*
X62165931Y-90965421D01*
X62180877Y-90960611D01*
X62195405Y-90954731D01*
X62209514Y-90947782D01*
X62223204Y-90939764D01*
X62236476Y-90930678D01*
X62249329Y-90920522D01*
X62257665Y-90913157D01*
X62271132Y-90899386D01*
X62283369Y-90884727D01*
X62294376Y-90869178D01*
X62304153Y-90852741D01*
X62312700Y-90835416D01*
X62320017Y-90817201D01*
X62326104Y-90798098D01*
X62330961Y-90778106D01*
X62334588Y-90757226D01*
X62336985Y-90735456D01*
X62337899Y-90720450D01*
X62338528Y-90700050D01*
X62338765Y-90680296D01*
X62338611Y-90661187D01*
X62338065Y-90642723D01*
X62337128Y-90624905D01*
X62335800Y-90607732D01*
X62334080Y-90591205D01*
X62331968Y-90575324D01*
X62329466Y-90560087D01*
X62326572Y-90545496D01*
X62319609Y-90518251D01*
X62311081Y-90493587D01*
X62300988Y-90471505D01*
X62289329Y-90452005D01*
X62276104Y-90435086D01*
X62261313Y-90420749D01*
X62244957Y-90408994D01*
X62227035Y-90399821D01*
X62207548Y-90393229D01*
X62186495Y-90389219D01*
X62163876Y-90387791D01*
X62148240Y-90388113D01*
X62133021Y-90389354D01*
X62118221Y-90391513D01*
X62103838Y-90394591D01*
X62083048Y-90400932D01*
X62063197Y-90409339D01*
X62044287Y-90419814D01*
X62026318Y-90432356D01*
X62014860Y-90441865D01*
X62003821Y-90452294D01*
X61993199Y-90463641D01*
X61982995Y-90475907D01*
X61973209Y-90489092D01*
X61963841Y-90503196D01*
X61952776Y-90521827D01*
X61942799Y-90541037D01*
X61933911Y-90560827D01*
X61926111Y-90581197D01*
X61919400Y-90602146D01*
X61915530Y-90616434D01*
X61912144Y-90630980D01*
X61909242Y-90645784D01*
X61906823Y-90660845D01*
X61904888Y-90676163D01*
X61903437Y-90691739D01*
X61902470Y-90707573D01*
X61901986Y-90723665D01*
X61901926Y-90731807D01*
X61616509Y-90731807D01*
X61616156Y-90704526D01*
X61616871Y-90676171D01*
X61618674Y-90648209D01*
X61621565Y-90620638D01*
X61625544Y-90593460D01*
X61630610Y-90566674D01*
X61636764Y-90540280D01*
X61644005Y-90514278D01*
X61652334Y-90488668D01*
X61661751Y-90463451D01*
X61672255Y-90438625D01*
X61683847Y-90414192D01*
X61696527Y-90390151D01*
X61710294Y-90366502D01*
X61725149Y-90343245D01*
X61741092Y-90320380D01*
X61751011Y-90307216D01*
X61761170Y-90294471D01*
X61771568Y-90282143D01*
X61782205Y-90270234D01*
X61793080Y-90258742D01*
X61804195Y-90247668D01*
X61815549Y-90237012D01*
X61827141Y-90226774D01*
X61838973Y-90216953D01*
X61851044Y-90207551D01*
X61863354Y-90198567D01*
X61875902Y-90190000D01*
X61888690Y-90181851D01*
X61901717Y-90174120D01*
X61914982Y-90166807D01*
X61928487Y-90159912D01*
X61942231Y-90153435D01*
X61956213Y-90147376D01*
X61970435Y-90141734D01*
X61984896Y-90136511D01*
X61999595Y-90131705D01*
X62014534Y-90127317D01*
X62029712Y-90123347D01*
X62045128Y-90119795D01*
X62060784Y-90116661D01*
X62076678Y-90113945D01*
X62092812Y-90111647D01*
X62109185Y-90109766D01*
X62125796Y-90108304D01*
X62142647Y-90107259D01*
X62159736Y-90106632D01*
X62177065Y-90106423D01*
X62202473Y-90107079D01*
G37*
G36*
X64961434Y-90574637D02*
G01*
X64956921Y-90593797D01*
X64952130Y-90612717D01*
X64947061Y-90631398D01*
X64941713Y-90649839D01*
X64936087Y-90668040D01*
X64930182Y-90686001D01*
X64924000Y-90703723D01*
X64917539Y-90721205D01*
X64910799Y-90738448D01*
X64903781Y-90755450D01*
X64896485Y-90772213D01*
X64888911Y-90788736D01*
X64881058Y-90805020D01*
X64872927Y-90821064D01*
X64864517Y-90836868D01*
X64855829Y-90852432D01*
X64846863Y-90867757D01*
X64837618Y-90882842D01*
X64828095Y-90897687D01*
X64818294Y-90912293D01*
X64808214Y-90926659D01*
X64797856Y-90940785D01*
X64787220Y-90954671D01*
X64776305Y-90968318D01*
X64765112Y-90981725D01*
X64753641Y-90994892D01*
X64741891Y-91007820D01*
X64729863Y-91020508D01*
X64717556Y-91032956D01*
X64704971Y-91045164D01*
X64692108Y-91057133D01*
X64678967Y-91068862D01*
X64665453Y-91080335D01*
X64651793Y-91091444D01*
X64637987Y-91102188D01*
X64624035Y-91112568D01*
X64609937Y-91122584D01*
X64595693Y-91132236D01*
X64581303Y-91141523D01*
X64566768Y-91150447D01*
X64552086Y-91159006D01*
X64537258Y-91167201D01*
X64522284Y-91175031D01*
X64507165Y-91182498D01*
X64491899Y-91189600D01*
X64476487Y-91196338D01*
X64460930Y-91202712D01*
X64445226Y-91208722D01*
X64429377Y-91214367D01*
X64413381Y-91219648D01*
X64397240Y-91224565D01*
X64380952Y-91229118D01*
X64364519Y-91233306D01*
X64347939Y-91237131D01*
X64331214Y-91240591D01*
X64314343Y-91243686D01*
X64297325Y-91246418D01*
X64280162Y-91248786D01*
X64262853Y-91250789D01*
X64245397Y-91252428D01*
X64227796Y-91253702D01*
X64210049Y-91254613D01*
X64192156Y-91255159D01*
X64174117Y-91255341D01*
X64157123Y-91255202D01*
X64140397Y-91254785D01*
X64123938Y-91254089D01*
X64107748Y-91253115D01*
X64091824Y-91251862D01*
X64076169Y-91250331D01*
X64060781Y-91248522D01*
X64045660Y-91246434D01*
X64030807Y-91244068D01*
X64016222Y-91241424D01*
X63987855Y-91235300D01*
X63960558Y-91228063D01*
X63934331Y-91219713D01*
X63909175Y-91210249D01*
X63885090Y-91199671D01*
X63862075Y-91187981D01*
X63840130Y-91175176D01*
X63819256Y-91161259D01*
X63799452Y-91146228D01*
X63780719Y-91130083D01*
X63763056Y-91112826D01*
X63746464Y-91094410D01*
X63730942Y-91074884D01*
X63716491Y-91054248D01*
X63703110Y-91032500D01*
X63690799Y-91009643D01*
X63679559Y-90985674D01*
X63669390Y-90960596D01*
X63660291Y-90934406D01*
X63652262Y-90907106D01*
X63645304Y-90878696D01*
X63642227Y-90864074D01*
X63639417Y-90849175D01*
X63636874Y-90833998D01*
X63634600Y-90818544D01*
X63632592Y-90802811D01*
X63630853Y-90786802D01*
X63629381Y-90770514D01*
X63628177Y-90753949D01*
X63627240Y-90737106D01*
X63626571Y-90719986D01*
X63626170Y-90702588D01*
X63626036Y-90684912D01*
X63626162Y-90668665D01*
X63626542Y-90652392D01*
X63627176Y-90636093D01*
X63628062Y-90619768D01*
X63629202Y-90603418D01*
X63630595Y-90587041D01*
X63632242Y-90570640D01*
X63634142Y-90554212D01*
X63636295Y-90537758D01*
X63638701Y-90521279D01*
X63641361Y-90504774D01*
X63644274Y-90488243D01*
X63647440Y-90471687D01*
X63650860Y-90455105D01*
X63654533Y-90438497D01*
X63658459Y-90421863D01*
X63662639Y-90405203D01*
X63667071Y-90388518D01*
X63671758Y-90371807D01*
X63676697Y-90355070D01*
X63681890Y-90338307D01*
X63687336Y-90321519D01*
X63693035Y-90304705D01*
X63698988Y-90287865D01*
X63705194Y-90270999D01*
X63711653Y-90254108D01*
X63718366Y-90237191D01*
X63725332Y-90220248D01*
X63732551Y-90203279D01*
X63740024Y-90186285D01*
X63747750Y-90169265D01*
X63755729Y-90152219D01*
X63763930Y-90135238D01*
X63772275Y-90118460D01*
X63780765Y-90101885D01*
X63789400Y-90085512D01*
X63798179Y-90069341D01*
X63807103Y-90053373D01*
X63816171Y-90037608D01*
X63825384Y-90022045D01*
X63834741Y-90006684D01*
X63844243Y-89991526D01*
X63853889Y-89976571D01*
X63863680Y-89961818D01*
X63873616Y-89947268D01*
X63883696Y-89932920D01*
X63893920Y-89918774D01*
X63904289Y-89904831D01*
X63914803Y-89891091D01*
X63925461Y-89877553D01*
X63936264Y-89864217D01*
X63947211Y-89851084D01*
X63958303Y-89838154D01*
X63969540Y-89825426D01*
X63980920Y-89812901D01*
X63992446Y-89800578D01*
X64004116Y-89788457D01*
X64015930Y-89776539D01*
X64027889Y-89764824D01*
X64039993Y-89753311D01*
X64052241Y-89742000D01*
X64064634Y-89730893D01*
X64077171Y-89719987D01*
X64089853Y-89709284D01*
X64107796Y-89694910D01*
X64125905Y-89681463D01*
X64144181Y-89668944D01*
X64162622Y-89657352D01*
X64181229Y-89646687D01*
X64200003Y-89636950D01*
X64218942Y-89628140D01*
X64238047Y-89620258D01*
X64257319Y-89613303D01*
X64276756Y-89607275D01*
X64296359Y-89602174D01*
X64316129Y-89598001D01*
X64336064Y-89594755D01*
X64356165Y-89592437D01*
X64376433Y-89591046D01*
X64396866Y-89590582D01*
X64416188Y-89591217D01*
X64436786Y-89593120D01*
X64458658Y-89596291D01*
X64473948Y-89599111D01*
X64489805Y-89602494D01*
X64506228Y-89606441D01*
X64523218Y-89610952D01*
X64540775Y-89616026D01*
X64558899Y-89621665D01*
X64577589Y-89627867D01*
X64596846Y-89634634D01*
X64616670Y-89641964D01*
X64637060Y-89649858D01*
X64658017Y-89658316D01*
X64668709Y-89662756D01*
X64693419Y-89673516D01*
X64716536Y-89684366D01*
X64738059Y-89695304D01*
X64757987Y-89706330D01*
X64776321Y-89717446D01*
X64793061Y-89728650D01*
X64808206Y-89739943D01*
X64821757Y-89751325D01*
X64833714Y-89762795D01*
X64844077Y-89774354D01*
X64856632Y-89791859D01*
X64865599Y-89809564D01*
X64870980Y-89827468D01*
X64872773Y-89845572D01*
X64871736Y-89862688D01*
X64868623Y-89879231D01*
X64863435Y-89895203D01*
X64856173Y-89910601D01*
X64846835Y-89925428D01*
X64835421Y-89939682D01*
X64830275Y-89945223D01*
X64819439Y-89955527D01*
X64805040Y-89966475D01*
X64789693Y-89975276D01*
X64773398Y-89981931D01*
X64756155Y-89986439D01*
X64737964Y-89988800D01*
X64726594Y-89989187D01*
X64709411Y-89986382D01*
X64692780Y-89980943D01*
X64676860Y-89974532D01*
X64663395Y-89968521D01*
X64648623Y-89961480D01*
X64632543Y-89953409D01*
X64615156Y-89944307D01*
X64596462Y-89934175D01*
X64589940Y-89930568D01*
X64576821Y-89923470D01*
X64557406Y-89913681D01*
X64538306Y-89904923D01*
X64519521Y-89897195D01*
X64501052Y-89890497D01*
X64482899Y-89884830D01*
X64465061Y-89880193D01*
X64447539Y-89876587D01*
X64430333Y-89874011D01*
X64413442Y-89872465D01*
X64396866Y-89871950D01*
X64378914Y-89873666D01*
X64359815Y-89878815D01*
X64339570Y-89887396D01*
X64325436Y-89895024D01*
X64310793Y-89904177D01*
X64295640Y-89914856D01*
X64279978Y-89927061D01*
X64263807Y-89940791D01*
X64247126Y-89956047D01*
X64229935Y-89972828D01*
X64212235Y-89991135D01*
X64194026Y-90010967D01*
X64175307Y-90032325D01*
X64165756Y-90043576D01*
X64156078Y-90055208D01*
X64146273Y-90067222D01*
X64132140Y-90085014D01*
X64118457Y-90102897D01*
X64105221Y-90120872D01*
X64092435Y-90138938D01*
X64080097Y-90157096D01*
X64068207Y-90175345D01*
X64056767Y-90193686D01*
X64045775Y-90212119D01*
X64035231Y-90230643D01*
X64025137Y-90249259D01*
X64015491Y-90267967D01*
X64006293Y-90286766D01*
X63997545Y-90305657D01*
X63989244Y-90324639D01*
X63981393Y-90343713D01*
X63973990Y-90362878D01*
X63967036Y-90382135D01*
X63960531Y-90401484D01*
X63954474Y-90420924D01*
X63948866Y-90440456D01*
X63943706Y-90460079D01*
X63938995Y-90479794D01*
X63934733Y-90499601D01*
X63930920Y-90519499D01*
X63927555Y-90539489D01*
X63924638Y-90559570D01*
X63922171Y-90579743D01*
X63920152Y-90600007D01*
X63918582Y-90620363D01*
X63917460Y-90640811D01*
X63916787Y-90661350D01*
X63916563Y-90681981D01*
X63916760Y-90702581D01*
X63917353Y-90722339D01*
X63918340Y-90741255D01*
X63919723Y-90759330D01*
X63921500Y-90776563D01*
X63923672Y-90792955D01*
X63926240Y-90808506D01*
X63929202Y-90823215D01*
X63934386Y-90843700D01*
X63940459Y-90862293D01*
X63947421Y-90878992D01*
X63955271Y-90893797D01*
X63964010Y-90906709D01*
X63967121Y-90910593D01*
X63978029Y-90921920D01*
X63990696Y-90932132D01*
X64005120Y-90941231D01*
X64021303Y-90949215D01*
X64039244Y-90956086D01*
X64058942Y-90961842D01*
X64080399Y-90966484D01*
X64095681Y-90968960D01*
X64111744Y-90970941D01*
X64128588Y-90972426D01*
X64146213Y-90973417D01*
X64164620Y-90973912D01*
X64174117Y-90973974D01*
X64193660Y-90973614D01*
X64212906Y-90972537D01*
X64231853Y-90970741D01*
X64250504Y-90968226D01*
X64268856Y-90964993D01*
X64286911Y-90961042D01*
X64304668Y-90956372D01*
X64322128Y-90950984D01*
X64339290Y-90944878D01*
X64356154Y-90938053D01*
X64372721Y-90930509D01*
X64388989Y-90922248D01*
X64404961Y-90913267D01*
X64420634Y-90903569D01*
X64436010Y-90893152D01*
X64451088Y-90882016D01*
X64466676Y-90869533D01*
X64481748Y-90856354D01*
X64496305Y-90842479D01*
X64510348Y-90827909D01*
X64523874Y-90812643D01*
X64536886Y-90796682D01*
X64549383Y-90780025D01*
X64561364Y-90762673D01*
X64572830Y-90744625D01*
X64583781Y-90725882D01*
X64594216Y-90706443D01*
X64604137Y-90686309D01*
X64613542Y-90665479D01*
X64622432Y-90643954D01*
X64630807Y-90621733D01*
X64638667Y-90598817D01*
X64623797Y-90599995D01*
X64609048Y-90601287D01*
X64594420Y-90602691D01*
X64565523Y-90605840D01*
X64537106Y-90609441D01*
X64509171Y-90613493D01*
X64481717Y-90617999D01*
X64454743Y-90622956D01*
X64428250Y-90628366D01*
X64402239Y-90634227D01*
X64376708Y-90640541D01*
X64351657Y-90647308D01*
X64327088Y-90654526D01*
X64303000Y-90662197D01*
X64279392Y-90670320D01*
X64256265Y-90678895D01*
X64233619Y-90687923D01*
X64222477Y-90692606D01*
X64208532Y-90698173D01*
X64192595Y-90702862D01*
X64176658Y-90705764D01*
X64160722Y-90706880D01*
X64158729Y-90706894D01*
X64143044Y-90706167D01*
X64128046Y-90703986D01*
X64113735Y-90700351D01*
X64096812Y-90693763D01*
X64080963Y-90684902D01*
X64069056Y-90676178D01*
X64057836Y-90666000D01*
X64052484Y-90660366D01*
X64041507Y-90647266D01*
X64032391Y-90633611D01*
X64025135Y-90619402D01*
X64019740Y-90604638D01*
X64016205Y-90589320D01*
X64014531Y-90573447D01*
X64014382Y-90566943D01*
X64015839Y-90548069D01*
X64020209Y-90529917D01*
X64027494Y-90512486D01*
X64037692Y-90495777D01*
X64050804Y-90479788D01*
X64066829Y-90464521D01*
X64085769Y-90449975D01*
X64107622Y-90436151D01*
X64132388Y-90423048D01*
X64145864Y-90416767D01*
X64160069Y-90410666D01*
X64175002Y-90404745D01*
X64190663Y-90399005D01*
X64207053Y-90393445D01*
X64224171Y-90388066D01*
X64242018Y-90382866D01*
X64260593Y-90377847D01*
X64279897Y-90373009D01*
X64299929Y-90368351D01*
X64320689Y-90363873D01*
X64342178Y-90359575D01*
X64364395Y-90355458D01*
X64387341Y-90351521D01*
X64413901Y-90347395D01*
X64441007Y-90343535D01*
X64468661Y-90339942D01*
X64496861Y-90336614D01*
X64525607Y-90333553D01*
X64554901Y-90330758D01*
X64569753Y-90329461D01*
X64584741Y-90328229D01*
X64599866Y-90327065D01*
X64615128Y-90325967D01*
X64630526Y-90324935D01*
X64646061Y-90323970D01*
X64661733Y-90323072D01*
X64677541Y-90322240D01*
X64693486Y-90321475D01*
X64709568Y-90320776D01*
X64725787Y-90320144D01*
X64742142Y-90319578D01*
X64758633Y-90319079D01*
X64775262Y-90318647D01*
X64792027Y-90318281D01*
X64808929Y-90317981D01*
X64825967Y-90317748D01*
X64843142Y-90317582D01*
X64860454Y-90317482D01*
X64877903Y-90317449D01*
X64892981Y-90318084D01*
X64910959Y-90320666D01*
X64927971Y-90325233D01*
X64944018Y-90331785D01*
X64959098Y-90340324D01*
X64973212Y-90350848D01*
X64981217Y-90358115D01*
X64993249Y-90371165D01*
X65003242Y-90385128D01*
X65011195Y-90400002D01*
X65017109Y-90415789D01*
X65020984Y-90432488D01*
X65022820Y-90450100D01*
X65022983Y-90457400D01*
X65022021Y-90475741D01*
X65019136Y-90493029D01*
X65014327Y-90509264D01*
X65007595Y-90524445D01*
X64998940Y-90538573D01*
X64988361Y-90551647D01*
X64975859Y-90563669D01*
X64961434Y-90574637D01*
G37*
G36*
X65712041Y-90106903D02*
G01*
X65731194Y-90108342D01*
X65750887Y-90110741D01*
X65771121Y-90114100D01*
X65791897Y-90118418D01*
X65813213Y-90123695D01*
X65827725Y-90127747D01*
X65842477Y-90132225D01*
X65857469Y-90137129D01*
X65872702Y-90142460D01*
X65888175Y-90148217D01*
X65903888Y-90154401D01*
X65919842Y-90161011D01*
X65938697Y-90169338D01*
X65956336Y-90177830D01*
X65972758Y-90186488D01*
X65987963Y-90195312D01*
X66001952Y-90204302D01*
X66014725Y-90213459D01*
X66026281Y-90222781D01*
X66041335Y-90237076D01*
X66053651Y-90251744D01*
X66063231Y-90266785D01*
X66070073Y-90282201D01*
X66074179Y-90297989D01*
X66075547Y-90314152D01*
X66074408Y-90329742D01*
X66070989Y-90344455D01*
X66065292Y-90358292D01*
X66057315Y-90371253D01*
X66051734Y-90378265D01*
X66048041Y-90394125D01*
X66044658Y-90411479D01*
X66042075Y-90427081D01*
X66039707Y-90443722D01*
X66037553Y-90461399D01*
X66035984Y-90476289D01*
X66035614Y-90480115D01*
X66034326Y-90495737D01*
X66033209Y-90512011D01*
X66032265Y-90528938D01*
X66031492Y-90546518D01*
X66030891Y-90564751D01*
X66030462Y-90583635D01*
X66030204Y-90603173D01*
X66030123Y-90618254D01*
X66030118Y-90623363D01*
X66030227Y-90647165D01*
X66030553Y-90670120D01*
X66031097Y-90692228D01*
X66031858Y-90713489D01*
X66032837Y-90733902D01*
X66034034Y-90753468D01*
X66035448Y-90772187D01*
X66037079Y-90790059D01*
X66038928Y-90807083D01*
X66040995Y-90823261D01*
X66043279Y-90838591D01*
X66045780Y-90853073D01*
X66049940Y-90873209D01*
X66054590Y-90891439D01*
X66057962Y-90902533D01*
X66063837Y-90916579D01*
X66069806Y-90930015D01*
X66076037Y-90943843D01*
X66083562Y-90960406D01*
X66090054Y-90974625D01*
X66097275Y-90990382D01*
X66105223Y-91007679D01*
X66112425Y-91023371D01*
X66118919Y-91037750D01*
X66126475Y-91054877D01*
X66132772Y-91069669D01*
X66138872Y-91084875D01*
X66144106Y-91100032D01*
X66145523Y-91107330D01*
X66144503Y-91123607D01*
X66141444Y-91139008D01*
X66136346Y-91153532D01*
X66129208Y-91167179D01*
X66120031Y-91179950D01*
X66108815Y-91191845D01*
X66103757Y-91196357D01*
X66090393Y-91206595D01*
X66076402Y-91215097D01*
X66061785Y-91221865D01*
X66046542Y-91226897D01*
X66030672Y-91230194D01*
X66014177Y-91231755D01*
X66007404Y-91231894D01*
X65991275Y-91229649D01*
X65976414Y-91224620D01*
X65959813Y-91216718D01*
X65946221Y-91208905D01*
X65931649Y-91199476D01*
X65916099Y-91188430D01*
X65899569Y-91175768D01*
X65888006Y-91166428D01*
X65876008Y-91156370D01*
X65863574Y-91145594D01*
X65857194Y-91139937D01*
X65839602Y-91148258D01*
X65822410Y-91156187D01*
X65805616Y-91163723D01*
X65789222Y-91170866D01*
X65773227Y-91177616D01*
X65757632Y-91183973D01*
X65742436Y-91189938D01*
X65727639Y-91195510D01*
X65713241Y-91200688D01*
X65699243Y-91205474D01*
X65690132Y-91208447D01*
X65672426Y-91213942D01*
X65655396Y-91218705D01*
X65639041Y-91222735D01*
X65623362Y-91226032D01*
X65608358Y-91228597D01*
X65590554Y-91230772D01*
X65573804Y-91231803D01*
X65567400Y-91231894D01*
X65552019Y-91231765D01*
X65536880Y-91231379D01*
X65521983Y-91230735D01*
X65507328Y-91229833D01*
X65478743Y-91227257D01*
X65451125Y-91223651D01*
X65424475Y-91219014D01*
X65398792Y-91213347D01*
X65374077Y-91206649D01*
X65350329Y-91198921D01*
X65327549Y-91190163D01*
X65305736Y-91180374D01*
X65284890Y-91169555D01*
X65265012Y-91157705D01*
X65246101Y-91144825D01*
X65228158Y-91130915D01*
X65211182Y-91115974D01*
X65195174Y-91100003D01*
X65180134Y-91082958D01*
X65166065Y-91064889D01*
X65152966Y-91045795D01*
X65140838Y-91025677D01*
X65129679Y-91004534D01*
X65119491Y-90982366D01*
X65110273Y-90959173D01*
X65102026Y-90934956D01*
X65094749Y-90909714D01*
X65088442Y-90883447D01*
X65083105Y-90856156D01*
X65078739Y-90827840D01*
X65076920Y-90813298D01*
X65075343Y-90798500D01*
X65074009Y-90783445D01*
X65072917Y-90768134D01*
X65072068Y-90752567D01*
X65071462Y-90736744D01*
X65071168Y-90723747D01*
X65356374Y-90723747D01*
X65356567Y-90740519D01*
X65357147Y-90756765D01*
X65358113Y-90772485D01*
X65359465Y-90787677D01*
X65361204Y-90802343D01*
X65364537Y-90823355D01*
X65368739Y-90843182D01*
X65373811Y-90861823D01*
X65379751Y-90879280D01*
X65386562Y-90895552D01*
X65394241Y-90910638D01*
X65402791Y-90924540D01*
X65405833Y-90928911D01*
X65415542Y-90941154D01*
X65426119Y-90952194D01*
X65437566Y-90962029D01*
X65449883Y-90970659D01*
X65463069Y-90978086D01*
X65477124Y-90984308D01*
X65492049Y-90989326D01*
X65507843Y-90993139D01*
X65524506Y-90995748D01*
X65542039Y-90997153D01*
X65554211Y-90997421D01*
X65570045Y-90997095D01*
X65585672Y-90996116D01*
X65601094Y-90994484D01*
X65616310Y-90992200D01*
X65631319Y-90989264D01*
X65646123Y-90985674D01*
X65660720Y-90981433D01*
X65675111Y-90976538D01*
X65689296Y-90971008D01*
X65703275Y-90964860D01*
X65717048Y-90958094D01*
X65730615Y-90950710D01*
X65743976Y-90942707D01*
X65757131Y-90934086D01*
X65770080Y-90924847D01*
X65782822Y-90914989D01*
X65780929Y-90899973D01*
X65779096Y-90885195D01*
X65775609Y-90856354D01*
X65772364Y-90828466D01*
X65769358Y-90801531D01*
X65766593Y-90775549D01*
X65764069Y-90750520D01*
X65761785Y-90726445D01*
X65759741Y-90703322D01*
X65757938Y-90681153D01*
X65756375Y-90659937D01*
X65755053Y-90639673D01*
X65753971Y-90620363D01*
X65753130Y-90602007D01*
X65752529Y-90584603D01*
X65752168Y-90568152D01*
X65752048Y-90552655D01*
X65752258Y-90537934D01*
X65752889Y-90522301D01*
X65753941Y-90505757D01*
X65755177Y-90490850D01*
X65756444Y-90477916D01*
X65758385Y-90461658D01*
X65760634Y-90444755D01*
X65762745Y-90430177D01*
X65765071Y-90415152D01*
X65767611Y-90399680D01*
X65770366Y-90383761D01*
X65756780Y-90377401D01*
X65742064Y-90371671D01*
X65733729Y-90369106D01*
X65719075Y-90365534D01*
X65706618Y-90364344D01*
X65689216Y-90364767D01*
X65672089Y-90366038D01*
X65655236Y-90368156D01*
X65638658Y-90371121D01*
X65622355Y-90374934D01*
X65606326Y-90379593D01*
X65590573Y-90385100D01*
X65575094Y-90391454D01*
X65559890Y-90398656D01*
X65544960Y-90406704D01*
X65530306Y-90415600D01*
X65515926Y-90425343D01*
X65501821Y-90435933D01*
X65487991Y-90447371D01*
X65474435Y-90459655D01*
X65461154Y-90472787D01*
X65448466Y-90486476D01*
X65436597Y-90500431D01*
X65425546Y-90514652D01*
X65415313Y-90529139D01*
X65405899Y-90543892D01*
X65397304Y-90558912D01*
X65389527Y-90574197D01*
X65382569Y-90589749D01*
X65376430Y-90605567D01*
X65371109Y-90621651D01*
X65366607Y-90638002D01*
X65362923Y-90654619D01*
X65360058Y-90671501D01*
X65358011Y-90688650D01*
X65356784Y-90706066D01*
X65356374Y-90723747D01*
X65071168Y-90723747D01*
X65071098Y-90720665D01*
X65070976Y-90704330D01*
X65071155Y-90688989D01*
X65071692Y-90673787D01*
X65072586Y-90658724D01*
X65073839Y-90643799D01*
X65075449Y-90629014D01*
X65077416Y-90614367D01*
X65079742Y-90599859D01*
X65085466Y-90571260D01*
X65092622Y-90543216D01*
X65101209Y-90515727D01*
X65111226Y-90488794D01*
X65122675Y-90462415D01*
X65135555Y-90436592D01*
X65149866Y-90411325D01*
X65165609Y-90386612D01*
X65174016Y-90374464D01*
X65182782Y-90362455D01*
X65191905Y-90350585D01*
X65201386Y-90338853D01*
X65211225Y-90327261D01*
X65221422Y-90315807D01*
X65231976Y-90304492D01*
X65242889Y-90293315D01*
X65254159Y-90282278D01*
X65265701Y-90271459D01*
X65277384Y-90260983D01*
X65289208Y-90250851D01*
X65301173Y-90241062D01*
X65313280Y-90231617D01*
X65325527Y-90222515D01*
X65337915Y-90213756D01*
X65350444Y-90205341D01*
X65363114Y-90197270D01*
X65375925Y-90189542D01*
X65388877Y-90182157D01*
X65401969Y-90175116D01*
X65415203Y-90168419D01*
X65428578Y-90162065D01*
X65442094Y-90156054D01*
X65455751Y-90150387D01*
X65469548Y-90145063D01*
X65483487Y-90140083D01*
X65497567Y-90135446D01*
X65511787Y-90131153D01*
X65526149Y-90127203D01*
X65540651Y-90123596D01*
X65555295Y-90120333D01*
X65570079Y-90117414D01*
X65585005Y-90114838D01*
X65600071Y-90112605D01*
X65615278Y-90110716D01*
X65630627Y-90109171D01*
X65646116Y-90107969D01*
X65661746Y-90107110D01*
X65677517Y-90106595D01*
X65693429Y-90106423D01*
X65712041Y-90106903D01*
G37*
G36*
X66551454Y-90286674D02*
G01*
X66561170Y-90275585D01*
X66580501Y-90254461D01*
X66599701Y-90234746D01*
X66618769Y-90216440D01*
X66637705Y-90199541D01*
X66656510Y-90184051D01*
X66675183Y-90169969D01*
X66693725Y-90157295D01*
X66712135Y-90146029D01*
X66730413Y-90136172D01*
X66748559Y-90127722D01*
X66766574Y-90120681D01*
X66784457Y-90115048D01*
X66802209Y-90110824D01*
X66819828Y-90108007D01*
X66837317Y-90106599D01*
X66846011Y-90106423D01*
X66865555Y-90106858D01*
X66884434Y-90108163D01*
X66902649Y-90110339D01*
X66920200Y-90113384D01*
X66937087Y-90117300D01*
X66953310Y-90122085D01*
X66968869Y-90127741D01*
X66983764Y-90134267D01*
X66997995Y-90141663D01*
X67011562Y-90149929D01*
X67024465Y-90159065D01*
X67036704Y-90169071D01*
X67048279Y-90179948D01*
X67059190Y-90191694D01*
X67069436Y-90204311D01*
X67079019Y-90217798D01*
X67090950Y-90207601D01*
X67103113Y-90197894D01*
X67115508Y-90188676D01*
X67128135Y-90179948D01*
X67140993Y-90171709D01*
X67154084Y-90163959D01*
X67167406Y-90156699D01*
X67180960Y-90149929D01*
X67194746Y-90143648D01*
X67208764Y-90137856D01*
X67218237Y-90134267D01*
X67232635Y-90129291D01*
X67247252Y-90124804D01*
X67262087Y-90120807D01*
X67277142Y-90117300D01*
X67292415Y-90114281D01*
X67307908Y-90111753D01*
X67323619Y-90109713D01*
X67339550Y-90108163D01*
X67355699Y-90107103D01*
X67372068Y-90106532D01*
X67383101Y-90106423D01*
X67407828Y-90107209D01*
X67431542Y-90109566D01*
X67454242Y-90113494D01*
X67475929Y-90118994D01*
X67496603Y-90126065D01*
X67516263Y-90134708D01*
X67534911Y-90144921D01*
X67552545Y-90156707D01*
X67569166Y-90170063D01*
X67584773Y-90184991D01*
X67599368Y-90201490D01*
X67612949Y-90219561D01*
X67625517Y-90239203D01*
X67637072Y-90260416D01*
X67647614Y-90283201D01*
X67657142Y-90307557D01*
X67661992Y-90325201D01*
X67665271Y-90340415D01*
X67668827Y-90359101D01*
X67672659Y-90381258D01*
X67675368Y-90397957D01*
X67678201Y-90416200D01*
X67681156Y-90435985D01*
X67684234Y-90457313D01*
X67687436Y-90480183D01*
X67690760Y-90504597D01*
X67694208Y-90530553D01*
X67697778Y-90558051D01*
X67701472Y-90587093D01*
X67705154Y-90608802D01*
X67708965Y-90632253D01*
X67712905Y-90657448D01*
X67716974Y-90684386D01*
X67721171Y-90713067D01*
X67723318Y-90728061D01*
X67725497Y-90743490D01*
X67727709Y-90759356D01*
X67729952Y-90775658D01*
X67732228Y-90792395D01*
X67734536Y-90809568D01*
X67736877Y-90827176D01*
X67739249Y-90845221D01*
X67741654Y-90863701D01*
X67744090Y-90882617D01*
X67746559Y-90901969D01*
X67749061Y-90921757D01*
X67751594Y-90941980D01*
X67754160Y-90962639D01*
X67756758Y-90983734D01*
X67759388Y-91005265D01*
X67762050Y-91027231D01*
X67764744Y-91049634D01*
X67767471Y-91072472D01*
X67770230Y-91095745D01*
X67773021Y-91119455D01*
X67775844Y-91143600D01*
X67775923Y-91161523D01*
X67773640Y-91178426D01*
X67768996Y-91194310D01*
X67761991Y-91209174D01*
X67752624Y-91223018D01*
X67740896Y-91235843D01*
X67735544Y-91240687D01*
X67721315Y-91251663D01*
X67706335Y-91260780D01*
X67690603Y-91268035D01*
X67674121Y-91273431D01*
X67656886Y-91276966D01*
X67638901Y-91278640D01*
X67631496Y-91278789D01*
X67610103Y-91277771D01*
X67590435Y-91274719D01*
X67572493Y-91269631D01*
X67556277Y-91262508D01*
X67541787Y-91253351D01*
X67529023Y-91242158D01*
X67517985Y-91228930D01*
X67508673Y-91213668D01*
X67501086Y-91196370D01*
X67495226Y-91177037D01*
X67492278Y-91163018D01*
X67488768Y-91142611D01*
X67485245Y-91120685D01*
X67482890Y-91105224D01*
X67480529Y-91089086D01*
X67478161Y-91072274D01*
X67475789Y-91054786D01*
X67473410Y-91036622D01*
X67471026Y-91017783D01*
X67468636Y-90998268D01*
X67466240Y-90978078D01*
X67463839Y-90957213D01*
X67461432Y-90935671D01*
X67459019Y-90913455D01*
X67456600Y-90890563D01*
X67454176Y-90866995D01*
X67451639Y-90841277D01*
X67449156Y-90816511D01*
X67446727Y-90792699D01*
X67444353Y-90769840D01*
X67442033Y-90747934D01*
X67439768Y-90726981D01*
X67437557Y-90706981D01*
X67435400Y-90687935D01*
X67433298Y-90669841D01*
X67431250Y-90652701D01*
X67429256Y-90636514D01*
X67427317Y-90621279D01*
X67424510Y-90600215D01*
X67421826Y-90581296D01*
X67420104Y-90569874D01*
X67416564Y-90547825D01*
X67412903Y-90527198D01*
X67409122Y-90507994D01*
X67405221Y-90490213D01*
X67401199Y-90473854D01*
X67397058Y-90458917D01*
X67390620Y-90439180D01*
X67383911Y-90422643D01*
X67376933Y-90409307D01*
X67367207Y-90396504D01*
X67354373Y-90388502D01*
X67349030Y-90387791D01*
X67333322Y-90390745D01*
X67316552Y-90396837D01*
X67302996Y-90402745D01*
X67287540Y-90410129D01*
X67270184Y-90418990D01*
X67255919Y-90426606D01*
X67240586Y-90435052D01*
X67225182Y-90443794D01*
X67210571Y-90452298D01*
X67196752Y-90460564D01*
X67183725Y-90468591D01*
X67167588Y-90478924D01*
X67152859Y-90488833D01*
X67139538Y-90498318D01*
X67127625Y-90507380D01*
X67117121Y-90516018D01*
X67117230Y-90531029D01*
X67117556Y-90546844D01*
X67118100Y-90563464D01*
X67118861Y-90580888D01*
X67119840Y-90599116D01*
X67121036Y-90618148D01*
X67122450Y-90637985D01*
X67124082Y-90658626D01*
X67125931Y-90680071D01*
X67127997Y-90702320D01*
X67130281Y-90725374D01*
X67132783Y-90749232D01*
X67135502Y-90773894D01*
X67138439Y-90799361D01*
X67141593Y-90825632D01*
X67144965Y-90852707D01*
X67148469Y-90880339D01*
X67151748Y-90907089D01*
X67154801Y-90932958D01*
X67157627Y-90957945D01*
X67160227Y-90982051D01*
X67162602Y-91005275D01*
X67164750Y-91027617D01*
X67166672Y-91049078D01*
X67168368Y-91069658D01*
X67169837Y-91089356D01*
X67171081Y-91108172D01*
X67172098Y-91126106D01*
X67172890Y-91143160D01*
X67173455Y-91159331D01*
X67173794Y-91174621D01*
X67173907Y-91189030D01*
X67172923Y-91206865D01*
X67169972Y-91223734D01*
X67165052Y-91239637D01*
X67158165Y-91254574D01*
X67149310Y-91268546D01*
X67138487Y-91281551D01*
X67133607Y-91286482D01*
X67120591Y-91297776D01*
X67106502Y-91307155D01*
X67091339Y-91314620D01*
X67075104Y-91320171D01*
X67057794Y-91323808D01*
X67043174Y-91325339D01*
X67031758Y-91325683D01*
X67016617Y-91325065D01*
X66998640Y-91322554D01*
X66981719Y-91318110D01*
X66965854Y-91311734D01*
X66951043Y-91303427D01*
X66937289Y-91293187D01*
X66929542Y-91286116D01*
X66918038Y-91273383D01*
X66908484Y-91259683D01*
X66900879Y-91245018D01*
X66895224Y-91229387D01*
X66891520Y-91212790D01*
X66889765Y-91195226D01*
X66889609Y-91187930D01*
X66889510Y-91172749D01*
X66889214Y-91156698D01*
X66888720Y-91139776D01*
X66888029Y-91121985D01*
X66887140Y-91103323D01*
X66886054Y-91083791D01*
X66884770Y-91063389D01*
X66883289Y-91042117D01*
X66881610Y-91019975D01*
X66879734Y-90996963D01*
X66877660Y-90973081D01*
X66875389Y-90948328D01*
X66872921Y-90922706D01*
X66870254Y-90896213D01*
X66867391Y-90868850D01*
X66864330Y-90840617D01*
X66861268Y-90812384D01*
X66858405Y-90785021D01*
X66855739Y-90758529D01*
X66853270Y-90732906D01*
X66850999Y-90708154D01*
X66848925Y-90684271D01*
X66847049Y-90661259D01*
X66845370Y-90639117D01*
X66843889Y-90617845D01*
X66842605Y-90597443D01*
X66841519Y-90577911D01*
X66840630Y-90559249D01*
X66839939Y-90541458D01*
X66839445Y-90524536D01*
X66839149Y-90508485D01*
X66839050Y-90493304D01*
X66838873Y-90477149D01*
X66838341Y-90461842D01*
X66837176Y-90443900D01*
X66835457Y-90427281D01*
X66833183Y-90411986D01*
X66829723Y-90395379D01*
X66827693Y-90387791D01*
X66812760Y-90396758D01*
X66797817Y-90406441D01*
X66782866Y-90416840D01*
X66767907Y-90427954D01*
X66752939Y-90439783D01*
X66737963Y-90452328D01*
X66722977Y-90465589D01*
X66707984Y-90479565D01*
X66692981Y-90494257D01*
X66677970Y-90509664D01*
X66662951Y-90525787D01*
X66647923Y-90542626D01*
X66632886Y-90560180D01*
X66617841Y-90578449D01*
X66602787Y-90597434D01*
X66587725Y-90617135D01*
X66578451Y-90628841D01*
X66570139Y-90638750D01*
X66569651Y-90664366D01*
X66569195Y-90689280D01*
X66568769Y-90713493D01*
X66568376Y-90737005D01*
X66568014Y-90759815D01*
X66567683Y-90781924D01*
X66567384Y-90803332D01*
X66567117Y-90824039D01*
X66566880Y-90844045D01*
X66566676Y-90863349D01*
X66566503Y-90881952D01*
X66566361Y-90899854D01*
X66566251Y-90917054D01*
X66566172Y-90933553D01*
X66566125Y-90949351D01*
X66566109Y-90964448D01*
X66565972Y-90980179D01*
X66565626Y-90996010D01*
X66565162Y-91011114D01*
X66564544Y-91027634D01*
X66563911Y-91042484D01*
X66563288Y-91059867D01*
X66562795Y-91075474D01*
X66562381Y-91091435D01*
X66562124Y-91106713D01*
X66562079Y-91114658D01*
X66560970Y-91131478D01*
X66557643Y-91147137D01*
X66552097Y-91161632D01*
X66544333Y-91174965D01*
X66534351Y-91187134D01*
X66522151Y-91198141D01*
X66516650Y-91202219D01*
X66503239Y-91210768D01*
X66488879Y-91217868D01*
X66473572Y-91223519D01*
X66457316Y-91227721D01*
X66440112Y-91230474D01*
X66421960Y-91231778D01*
X66414434Y-91231894D01*
X66398516Y-91231231D01*
X66383595Y-91229241D01*
X66365254Y-91224524D01*
X66348688Y-91217448D01*
X66333896Y-91208015D01*
X66320878Y-91196222D01*
X66309635Y-91182071D01*
X66300167Y-91165562D01*
X66296099Y-91156423D01*
X66289871Y-91139033D01*
X66285650Y-91122996D01*
X66282103Y-91105070D01*
X66279887Y-91090386D01*
X66278051Y-91074639D01*
X66276594Y-91057830D01*
X66275517Y-91039958D01*
X66274821Y-91021023D01*
X66274504Y-91001026D01*
X66274483Y-90994124D01*
X66274483Y-90614570D01*
X66274376Y-90597494D01*
X66274135Y-90582158D01*
X66273758Y-90565334D01*
X66273242Y-90547021D01*
X66272766Y-90532310D01*
X66272212Y-90516762D01*
X66271581Y-90500376D01*
X66270872Y-90483154D01*
X66270087Y-90465094D01*
X66269367Y-90447034D01*
X66268717Y-90429811D01*
X66268139Y-90413426D01*
X66267631Y-90397877D01*
X66267194Y-90383166D01*
X66266722Y-90364854D01*
X66266376Y-90348030D01*
X66266155Y-90332694D01*
X66266057Y-90315617D01*
X66266347Y-90298736D01*
X66267216Y-90282163D01*
X66268665Y-90265900D01*
X66270694Y-90249946D01*
X66273302Y-90234301D01*
X66276490Y-90218966D01*
X66280257Y-90203939D01*
X66284604Y-90189221D01*
X66289531Y-90174813D01*
X66295037Y-90160714D01*
X66299030Y-90151486D01*
X66306872Y-90135052D01*
X66315288Y-90120235D01*
X66324278Y-90107034D01*
X66333840Y-90095449D01*
X66347481Y-90082518D01*
X66362141Y-90072460D01*
X66377821Y-90065276D01*
X66394519Y-90060965D01*
X66412236Y-90059528D01*
X66430021Y-90060566D01*
X66447198Y-90063679D01*
X66463767Y-90068866D01*
X66479727Y-90076129D01*
X66495079Y-90085467D01*
X66506923Y-90094432D01*
X66515551Y-90102027D01*
X66526198Y-90112823D01*
X66537511Y-90126801D01*
X66546606Y-90141316D01*
X66553482Y-90156368D01*
X66558141Y-90171956D01*
X66560581Y-90188082D01*
X66560980Y-90198014D01*
X66557966Y-90215428D01*
X66556478Y-90230632D01*
X66554692Y-90249958D01*
X66553157Y-90267157D01*
X66551454Y-90286674D01*
G37*
G36*
X68429290Y-90106658D02*
G01*
X68451013Y-90107362D01*
X68472258Y-90108535D01*
X68493025Y-90110178D01*
X68513314Y-90112291D01*
X68533125Y-90114872D01*
X68552457Y-90117923D01*
X68571312Y-90121444D01*
X68589689Y-90125434D01*
X68607588Y-90129893D01*
X68625009Y-90134822D01*
X68641952Y-90140220D01*
X68658417Y-90146088D01*
X68674404Y-90152425D01*
X68689913Y-90159231D01*
X68704944Y-90166507D01*
X68723799Y-90176742D01*
X68741437Y-90187664D01*
X68757859Y-90199274D01*
X68773065Y-90211570D01*
X68787054Y-90224553D01*
X68799826Y-90238223D01*
X68811383Y-90252580D01*
X68821722Y-90267623D01*
X68830846Y-90283354D01*
X68838752Y-90299772D01*
X68845443Y-90316876D01*
X68850917Y-90334668D01*
X68855174Y-90353147D01*
X68858216Y-90372312D01*
X68860040Y-90392164D01*
X68860648Y-90412704D01*
X68859534Y-90434588D01*
X68856192Y-90456002D01*
X68850621Y-90476946D01*
X68842823Y-90497420D01*
X68836385Y-90510808D01*
X68828958Y-90523987D01*
X68820540Y-90536957D01*
X68811132Y-90549718D01*
X68800734Y-90562270D01*
X68789345Y-90574614D01*
X68776966Y-90586748D01*
X68763596Y-90598674D01*
X68749237Y-90610390D01*
X68733886Y-90621898D01*
X68717600Y-90632940D01*
X68703004Y-90642011D01*
X68686366Y-90651758D01*
X68667687Y-90662181D01*
X68654100Y-90669505D01*
X68639606Y-90677130D01*
X68624204Y-90685056D01*
X68607895Y-90693282D01*
X68590679Y-90701808D01*
X68572556Y-90710635D01*
X68553525Y-90719763D01*
X68533586Y-90729191D01*
X68512741Y-90738920D01*
X68501978Y-90743897D01*
X68154665Y-90903632D01*
X68170621Y-90910673D01*
X68187580Y-90917141D01*
X68201868Y-90921904D01*
X68216798Y-90926301D01*
X68232368Y-90930331D01*
X68248580Y-90933994D01*
X68265432Y-90937291D01*
X68274099Y-90938803D01*
X68292000Y-90941550D01*
X68310530Y-90943932D01*
X68329689Y-90945947D01*
X68344472Y-90947218D01*
X68359610Y-90948282D01*
X68375101Y-90949141D01*
X68390947Y-90949794D01*
X68407146Y-90950240D01*
X68423700Y-90950481D01*
X68434933Y-90950526D01*
X68452032Y-90950285D01*
X68468799Y-90949559D01*
X68485234Y-90948350D01*
X68501337Y-90946657D01*
X68517108Y-90944480D01*
X68532546Y-90941819D01*
X68547653Y-90938675D01*
X68562428Y-90935047D01*
X68576871Y-90930936D01*
X68590981Y-90926341D01*
X68604760Y-90921262D01*
X68624806Y-90912736D01*
X68644104Y-90903122D01*
X68662656Y-90892420D01*
X68668674Y-90888611D01*
X68684448Y-90878724D01*
X68699624Y-90869810D01*
X68714201Y-90861869D01*
X68728179Y-90854900D01*
X68741558Y-90848903D01*
X68758465Y-90842420D01*
X68774308Y-90837666D01*
X68789085Y-90834640D01*
X68806060Y-90833290D01*
X68825178Y-90834311D01*
X68842416Y-90837373D01*
X68857773Y-90842476D01*
X68871250Y-90849622D01*
X68882846Y-90858808D01*
X68892562Y-90870036D01*
X68900398Y-90883306D01*
X68906352Y-90898617D01*
X68910427Y-90915970D01*
X68912621Y-90935364D01*
X68913039Y-90949427D01*
X68912366Y-90965589D01*
X68910348Y-90981375D01*
X68906985Y-90996787D01*
X68902277Y-91011824D01*
X68896223Y-91026485D01*
X68888824Y-91040772D01*
X68880080Y-91054684D01*
X68869991Y-91068221D01*
X68858556Y-91081383D01*
X68845776Y-91094170D01*
X68831651Y-91106582D01*
X68816181Y-91118619D01*
X68799365Y-91130281D01*
X68781205Y-91141568D01*
X68761699Y-91152480D01*
X68740847Y-91163018D01*
X68722780Y-91171358D01*
X68704572Y-91179161D01*
X68686223Y-91186425D01*
X68667735Y-91193151D01*
X68649106Y-91199339D01*
X68630337Y-91204989D01*
X68611428Y-91210101D01*
X68592378Y-91214675D01*
X68573188Y-91218711D01*
X68553858Y-91222208D01*
X68534388Y-91225168D01*
X68514778Y-91227589D01*
X68495027Y-91229473D01*
X68475136Y-91230818D01*
X68455105Y-91231625D01*
X68434933Y-91231894D01*
X68419633Y-91231779D01*
X68404508Y-91231435D01*
X68389557Y-91230861D01*
X68374781Y-91230057D01*
X68345752Y-91227760D01*
X68317422Y-91224544D01*
X68289790Y-91220409D01*
X68262856Y-91215356D01*
X68236621Y-91209384D01*
X68211085Y-91202493D01*
X68186246Y-91194684D01*
X68162106Y-91185955D01*
X68138665Y-91176308D01*
X68115922Y-91165742D01*
X68093877Y-91154258D01*
X68072530Y-91141854D01*
X68051882Y-91128532D01*
X68031933Y-91114291D01*
X68010992Y-91097619D01*
X67991403Y-91080116D01*
X67973165Y-91061784D01*
X67956278Y-91042621D01*
X67940742Y-91022629D01*
X67926557Y-91001806D01*
X67913723Y-90980153D01*
X67902240Y-90957670D01*
X67892107Y-90934358D01*
X67883326Y-90910215D01*
X67875896Y-90885242D01*
X67869816Y-90859439D01*
X67865088Y-90832806D01*
X67861711Y-90805343D01*
X67859684Y-90777050D01*
X67859009Y-90747927D01*
X67859142Y-90731702D01*
X67859544Y-90715634D01*
X67860213Y-90699722D01*
X67861150Y-90683968D01*
X67862354Y-90668370D01*
X67863826Y-90652928D01*
X67864647Y-90645711D01*
X68134148Y-90645711D01*
X68148707Y-90639350D01*
X68163257Y-90632997D01*
X68177798Y-90626653D01*
X68192331Y-90620318D01*
X68206856Y-90613991D01*
X68221371Y-90607672D01*
X68235879Y-90601363D01*
X68250377Y-90595061D01*
X68264867Y-90588769D01*
X68279349Y-90582485D01*
X68293821Y-90576209D01*
X68308286Y-90569943D01*
X68322741Y-90563684D01*
X68337188Y-90557435D01*
X68351627Y-90551194D01*
X68366057Y-90544961D01*
X68383237Y-90537031D01*
X68399974Y-90529179D01*
X68416267Y-90521404D01*
X68432117Y-90513706D01*
X68447523Y-90506085D01*
X68462485Y-90498542D01*
X68477004Y-90491076D01*
X68491079Y-90483687D01*
X68504710Y-90476375D01*
X68517898Y-90469141D01*
X68536847Y-90458434D01*
X68554799Y-90447902D01*
X68571752Y-90437543D01*
X68587707Y-90427358D01*
X68574357Y-90420287D01*
X68560273Y-90413911D01*
X68545454Y-90408231D01*
X68529902Y-90403247D01*
X68513615Y-90398958D01*
X68496594Y-90395364D01*
X68478839Y-90392466D01*
X68460350Y-90390264D01*
X68441126Y-90388757D01*
X68421169Y-90387945D01*
X68407456Y-90387791D01*
X68389703Y-90388358D01*
X68372439Y-90390058D01*
X68355665Y-90392891D01*
X68339381Y-90396858D01*
X68323586Y-90401959D01*
X68308280Y-90408193D01*
X68293464Y-90415560D01*
X68279137Y-90424061D01*
X68265299Y-90433695D01*
X68251951Y-90444463D01*
X68243325Y-90452271D01*
X68230848Y-90464928D01*
X68218836Y-90478718D01*
X68207286Y-90493641D01*
X68196201Y-90509699D01*
X68185579Y-90526889D01*
X68175421Y-90545213D01*
X68165727Y-90564670D01*
X68159522Y-90578272D01*
X68153523Y-90592377D01*
X68147729Y-90606985D01*
X68142142Y-90622098D01*
X68136761Y-90637714D01*
X68134148Y-90645711D01*
X67864647Y-90645711D01*
X67865565Y-90637644D01*
X67867572Y-90622516D01*
X67869847Y-90607545D01*
X67872389Y-90592730D01*
X67875199Y-90578072D01*
X67878277Y-90563571D01*
X67881622Y-90549227D01*
X67889116Y-90521008D01*
X67897679Y-90493416D01*
X67907314Y-90466451D01*
X67918018Y-90440113D01*
X67929793Y-90414402D01*
X67942639Y-90389317D01*
X67956555Y-90364860D01*
X67971542Y-90341029D01*
X67987599Y-90317825D01*
X67996029Y-90306458D01*
X68005658Y-90294151D01*
X68015495Y-90282235D01*
X68025539Y-90270710D01*
X68035791Y-90259575D01*
X68046250Y-90248831D01*
X68056917Y-90238477D01*
X68067791Y-90228515D01*
X68090162Y-90209761D01*
X68113363Y-90192571D01*
X68137395Y-90176943D01*
X68162256Y-90162878D01*
X68187947Y-90150376D01*
X68214468Y-90139437D01*
X68241820Y-90130060D01*
X68270001Y-90122246D01*
X68284403Y-90118925D01*
X68299013Y-90115995D01*
X68313830Y-90113456D01*
X68328854Y-90111307D01*
X68344086Y-90109549D01*
X68359526Y-90108181D01*
X68375173Y-90107204D01*
X68391027Y-90106618D01*
X68407090Y-90106423D01*
X68429290Y-90106658D01*
G37*
G36*
X70181025Y-89590582D02*
G01*
X70196449Y-89591710D01*
X70211395Y-89592805D01*
X70239855Y-89594893D01*
X70266407Y-89596846D01*
X70291049Y-89598665D01*
X70313782Y-89600350D01*
X70334606Y-89601899D01*
X70353521Y-89603315D01*
X70370527Y-89604596D01*
X70385624Y-89605742D01*
X70404690Y-89607209D01*
X70419460Y-89608374D01*
X70434531Y-89609642D01*
X70437847Y-89610000D01*
X70455677Y-89612284D01*
X70473172Y-89614831D01*
X70490333Y-89617642D01*
X70507158Y-89620716D01*
X70523649Y-89624053D01*
X70539805Y-89627654D01*
X70555626Y-89631518D01*
X70571112Y-89635645D01*
X70586263Y-89640036D01*
X70601079Y-89644690D01*
X70615561Y-89649607D01*
X70629707Y-89654788D01*
X70643519Y-89660231D01*
X70663608Y-89668891D01*
X70682944Y-89678143D01*
X70710015Y-89691938D01*
X70736226Y-89705938D01*
X70761578Y-89720143D01*
X70786070Y-89734552D01*
X70809703Y-89749166D01*
X70832477Y-89763984D01*
X70854391Y-89779007D01*
X70875446Y-89794235D01*
X70895641Y-89809667D01*
X70914977Y-89825304D01*
X70933454Y-89841146D01*
X70951071Y-89857192D01*
X70967829Y-89873443D01*
X70983728Y-89889899D01*
X70998767Y-89906559D01*
X71012947Y-89923424D01*
X71026267Y-89940494D01*
X71038728Y-89957768D01*
X71050330Y-89975247D01*
X71061072Y-89992930D01*
X71070955Y-90010818D01*
X71079979Y-90028911D01*
X71088143Y-90047209D01*
X71095448Y-90065711D01*
X71101893Y-90084418D01*
X71107479Y-90103329D01*
X71112206Y-90122445D01*
X71116073Y-90141766D01*
X71119081Y-90161291D01*
X71121229Y-90181021D01*
X71122518Y-90200956D01*
X71122948Y-90221095D01*
X71122587Y-90237644D01*
X71121505Y-90253953D01*
X71119702Y-90270022D01*
X71117178Y-90285850D01*
X71113932Y-90301438D01*
X71109965Y-90316785D01*
X71105277Y-90331892D01*
X71099867Y-90346758D01*
X71093736Y-90361384D01*
X71086884Y-90375770D01*
X71079310Y-90389915D01*
X71071016Y-90403819D01*
X71062000Y-90417484D01*
X71052262Y-90430907D01*
X71041804Y-90444091D01*
X71030624Y-90457034D01*
X71018724Y-90469686D01*
X71006106Y-90482090D01*
X70992770Y-90494244D01*
X70978715Y-90506149D01*
X70963941Y-90517806D01*
X70948450Y-90529213D01*
X70932240Y-90540372D01*
X70915311Y-90551281D01*
X70897664Y-90561941D01*
X70879298Y-90572353D01*
X70860215Y-90582515D01*
X70840412Y-90592428D01*
X70819892Y-90602092D01*
X70798653Y-90611508D01*
X70776695Y-90620674D01*
X70754019Y-90629591D01*
X70770946Y-90639741D01*
X70787610Y-90649904D01*
X70804011Y-90660080D01*
X70820148Y-90670269D01*
X70836022Y-90680471D01*
X70851632Y-90690685D01*
X70866979Y-90700913D01*
X70882063Y-90711153D01*
X70896884Y-90721406D01*
X70911441Y-90731672D01*
X70925735Y-90741951D01*
X70939766Y-90752243D01*
X70953533Y-90762548D01*
X70967037Y-90772865D01*
X70980278Y-90783196D01*
X70993255Y-90793539D01*
X71005969Y-90803896D01*
X71018420Y-90814265D01*
X71030607Y-90824647D01*
X71042531Y-90835041D01*
X71054192Y-90845449D01*
X71065589Y-90855870D01*
X71076723Y-90866303D01*
X71087594Y-90876750D01*
X71098201Y-90887209D01*
X71108545Y-90897681D01*
X71128443Y-90918664D01*
X71147288Y-90939699D01*
X71165080Y-90960785D01*
X71175423Y-90974659D01*
X71184013Y-90989035D01*
X71190850Y-91003911D01*
X71195934Y-91019288D01*
X71199265Y-91035167D01*
X71200843Y-91051546D01*
X71200983Y-91058237D01*
X71200308Y-91073356D01*
X71198282Y-91087936D01*
X71193849Y-91105404D01*
X71187305Y-91122032D01*
X71178650Y-91137819D01*
X71170207Y-91149843D01*
X71160412Y-91161329D01*
X71157752Y-91164117D01*
X71146687Y-91174507D01*
X71135107Y-91183511D01*
X71119906Y-91192819D01*
X71103901Y-91199962D01*
X71087091Y-91204940D01*
X71069476Y-91207754D01*
X71054804Y-91208447D01*
X71037625Y-91207293D01*
X71020894Y-91203831D01*
X71004610Y-91198062D01*
X70988773Y-91189985D01*
X70976425Y-91181863D01*
X70964364Y-91172263D01*
X70952588Y-91161186D01*
X70933019Y-91141320D01*
X70913329Y-91121837D01*
X70893518Y-91102740D01*
X70873585Y-91084026D01*
X70853532Y-91065697D01*
X70833358Y-91047752D01*
X70813063Y-91030191D01*
X70792648Y-91013014D01*
X70772111Y-90996222D01*
X70751453Y-90979814D01*
X70730674Y-90963790D01*
X70709775Y-90948151D01*
X70688754Y-90932895D01*
X70667613Y-90918024D01*
X70646351Y-90903538D01*
X70624967Y-90889435D01*
X70603463Y-90875717D01*
X70581838Y-90862383D01*
X70560092Y-90849433D01*
X70538225Y-90836868D01*
X70516237Y-90824686D01*
X70494128Y-90812889D01*
X70471898Y-90801477D01*
X70449547Y-90790448D01*
X70427076Y-90779804D01*
X70404483Y-90769544D01*
X70381770Y-90759668D01*
X70358935Y-90750177D01*
X70335980Y-90741069D01*
X70312904Y-90732346D01*
X70289706Y-90724008D01*
X70266388Y-90716053D01*
X70267087Y-90736217D01*
X70267763Y-90755811D01*
X70268418Y-90774836D01*
X70269050Y-90793293D01*
X70269660Y-90811181D01*
X70270248Y-90828500D01*
X70270814Y-90845250D01*
X70271357Y-90861431D01*
X70271878Y-90877043D01*
X70272377Y-90892087D01*
X70273309Y-90920467D01*
X70274152Y-90946572D01*
X70274906Y-90970402D01*
X70275572Y-90991956D01*
X70276148Y-91011234D01*
X70276636Y-91028237D01*
X70277036Y-91042965D01*
X70277468Y-91060789D01*
X70277734Y-91076592D01*
X70277745Y-91079120D01*
X70277099Y-91094840D01*
X70275158Y-91109941D01*
X70271924Y-91124423D01*
X70266062Y-91141658D01*
X70258178Y-91157926D01*
X70248273Y-91173228D01*
X70238893Y-91184774D01*
X70236346Y-91187564D01*
X70225768Y-91197954D01*
X70211642Y-91208993D01*
X70196516Y-91217868D01*
X70180387Y-91224578D01*
X70163257Y-91229123D01*
X70145124Y-91231505D01*
X70133764Y-91231894D01*
X70118606Y-91231247D01*
X70100560Y-91228619D01*
X70083515Y-91223970D01*
X70067472Y-91217299D01*
X70052431Y-91208607D01*
X70038392Y-91197893D01*
X70030450Y-91190495D01*
X70018629Y-91177216D01*
X70008811Y-91163025D01*
X70000997Y-91147921D01*
X69995187Y-91131905D01*
X69991380Y-91114977D01*
X69989577Y-91097136D01*
X69989417Y-91089745D01*
X69989433Y-91074362D01*
X69989481Y-91057613D01*
X69989562Y-91039500D01*
X69989674Y-91020021D01*
X69989819Y-90999177D01*
X69989934Y-90984522D01*
X69990063Y-90969261D01*
X69990206Y-90953393D01*
X69990363Y-90936918D01*
X69990535Y-90919836D01*
X69990721Y-90902148D01*
X69990921Y-90883852D01*
X69991136Y-90864950D01*
X69991249Y-90855272D01*
X69991515Y-90836066D01*
X69991764Y-90817467D01*
X69991996Y-90799476D01*
X69992210Y-90782090D01*
X69992408Y-90765312D01*
X69992588Y-90749141D01*
X69992751Y-90733576D01*
X69992897Y-90718618D01*
X69993084Y-90697319D01*
X69993232Y-90677385D01*
X69993342Y-90658816D01*
X69993412Y-90641613D01*
X69993445Y-90625774D01*
X69993447Y-90620799D01*
X69995399Y-89871950D01*
X70273715Y-89871950D01*
X70273715Y-90434685D01*
X70289171Y-90435072D01*
X70304851Y-90435332D01*
X70319145Y-90435418D01*
X70334793Y-90435355D01*
X70350187Y-90435166D01*
X70365325Y-90434851D01*
X70380207Y-90434411D01*
X70409206Y-90433151D01*
X70437183Y-90431388D01*
X70464138Y-90429121D01*
X70490071Y-90426351D01*
X70514982Y-90423076D01*
X70538872Y-90419298D01*
X70561739Y-90415016D01*
X70583585Y-90410231D01*
X70604409Y-90404941D01*
X70624212Y-90399148D01*
X70642992Y-90392851D01*
X70660751Y-90386051D01*
X70677488Y-90378746D01*
X70693203Y-90370938D01*
X70706163Y-90363788D01*
X70718848Y-90356077D01*
X70731259Y-90347806D01*
X70743394Y-90338973D01*
X70755256Y-90329579D01*
X70766842Y-90319624D01*
X70778153Y-90309108D01*
X70789190Y-90298032D01*
X70799494Y-90286938D01*
X70810442Y-90274068D01*
X70819243Y-90262308D01*
X70826971Y-90249660D01*
X70832467Y-90235280D01*
X70833154Y-90229155D01*
X70832583Y-90214350D01*
X70830870Y-90199611D01*
X70828015Y-90184938D01*
X70824018Y-90170331D01*
X70818878Y-90155789D01*
X70812597Y-90141314D01*
X70805174Y-90126904D01*
X70796609Y-90112560D01*
X70786902Y-90098281D01*
X70776052Y-90084069D01*
X70764061Y-90069923D01*
X70750928Y-90055842D01*
X70736653Y-90041827D01*
X70721235Y-90027878D01*
X70704676Y-90013995D01*
X70686974Y-90000177D01*
X70669516Y-89987559D01*
X70651947Y-89975625D01*
X70634265Y-89964375D01*
X70616472Y-89953809D01*
X70598568Y-89943928D01*
X70580551Y-89934730D01*
X70562423Y-89926216D01*
X70544184Y-89918387D01*
X70525833Y-89911241D01*
X70507370Y-89904780D01*
X70488796Y-89899002D01*
X70470110Y-89893909D01*
X70451312Y-89889500D01*
X70432403Y-89885774D01*
X70413382Y-89882733D01*
X70394249Y-89880376D01*
X70379015Y-89879081D01*
X70363751Y-89877977D01*
X70347868Y-89876875D01*
X70328723Y-89875579D01*
X70312222Y-89874479D01*
X70293887Y-89873269D01*
X70273715Y-89871950D01*
X69995399Y-89871950D01*
X69995645Y-89777428D01*
X69996275Y-89760678D01*
X69998164Y-89744318D01*
X70001312Y-89728347D01*
X70005720Y-89712765D01*
X70011387Y-89697572D01*
X70018314Y-89682769D01*
X70026500Y-89668354D01*
X70035945Y-89654330D01*
X70046122Y-89641692D01*
X70057008Y-89630433D01*
X70068602Y-89620552D01*
X70080905Y-89612049D01*
X70093916Y-89604924D01*
X70107635Y-89599177D01*
X70122063Y-89594809D01*
X70137199Y-89591819D01*
X70153044Y-89590207D01*
X70169596Y-89589973D01*
X70181025Y-89590582D01*
G37*
G36*
X72246221Y-90592222D02*
G01*
X72246238Y-90610151D01*
X72246273Y-90625010D01*
X72246328Y-90641080D01*
X72246402Y-90658361D01*
X72246495Y-90676852D01*
X72246608Y-90696554D01*
X72246740Y-90717467D01*
X72246892Y-90739591D01*
X72247003Y-90755012D01*
X72247123Y-90770972D01*
X72247252Y-90787470D01*
X72247320Y-90795921D01*
X72247453Y-90812643D01*
X72247577Y-90828830D01*
X72247693Y-90844483D01*
X72247801Y-90859599D01*
X72247946Y-90881271D01*
X72248071Y-90901738D01*
X72248177Y-90921001D01*
X72248264Y-90939060D01*
X72248332Y-90955915D01*
X72248380Y-90971565D01*
X72248415Y-90990559D01*
X72248419Y-90999253D01*
X72248741Y-91014537D01*
X72249462Y-91029650D01*
X72250431Y-91044977D01*
X72251513Y-91059677D01*
X72251716Y-91062267D01*
X72252961Y-91077208D01*
X72254088Y-91092816D01*
X72254947Y-91108249D01*
X72255376Y-91123934D01*
X72255380Y-91125282D01*
X72254360Y-91142430D01*
X72251301Y-91158613D01*
X72246203Y-91173829D01*
X72239065Y-91188079D01*
X72229888Y-91201364D01*
X72218672Y-91213682D01*
X72213614Y-91218339D01*
X72200097Y-91228999D01*
X72185650Y-91237852D01*
X72170273Y-91244898D01*
X72153966Y-91250138D01*
X72136728Y-91253571D01*
X72118560Y-91255197D01*
X72111032Y-91255341D01*
X72095432Y-91254710D01*
X72080644Y-91252817D01*
X72062188Y-91248329D01*
X72045175Y-91241597D01*
X72029605Y-91232621D01*
X72015477Y-91221401D01*
X72002792Y-91207937D01*
X71991549Y-91192229D01*
X71986468Y-91183534D01*
X71969946Y-91189390D01*
X71953353Y-91194868D01*
X71936687Y-91199969D01*
X71919950Y-91204692D01*
X71903142Y-91209036D01*
X71886262Y-91213003D01*
X71869311Y-91216593D01*
X71852288Y-91219804D01*
X71835193Y-91222638D01*
X71818027Y-91225093D01*
X71800789Y-91227171D01*
X71783480Y-91228872D01*
X71766099Y-91230194D01*
X71748647Y-91231139D01*
X71731123Y-91231705D01*
X71713527Y-91231894D01*
X71695391Y-91231658D01*
X71677618Y-91230950D01*
X71660208Y-91229769D01*
X71643162Y-91228116D01*
X71626480Y-91225991D01*
X71610161Y-91223393D01*
X71594205Y-91220324D01*
X71578613Y-91216782D01*
X71563385Y-91212767D01*
X71548520Y-91208281D01*
X71534019Y-91203322D01*
X71519881Y-91197891D01*
X71506106Y-91191988D01*
X71492695Y-91185612D01*
X71479648Y-91178764D01*
X71466964Y-91171444D01*
X71453304Y-91162540D01*
X71440351Y-91153137D01*
X71428105Y-91143237D01*
X71416566Y-91132838D01*
X71405734Y-91121942D01*
X71395609Y-91110547D01*
X71386191Y-91098655D01*
X71377479Y-91086264D01*
X71369475Y-91073376D01*
X71362178Y-91059989D01*
X71355588Y-91046105D01*
X71349704Y-91031722D01*
X71344528Y-91016841D01*
X71340059Y-91001462D01*
X71336296Y-90985586D01*
X71333241Y-90969211D01*
X71330762Y-90953532D01*
X71328361Y-90937958D01*
X71326039Y-90922489D01*
X71323796Y-90907124D01*
X71321631Y-90891863D01*
X71319545Y-90876707D01*
X71317538Y-90861655D01*
X71315610Y-90846708D01*
X71313760Y-90831865D01*
X71311989Y-90817127D01*
X71310297Y-90802493D01*
X71307148Y-90773539D01*
X71304315Y-90745002D01*
X71301796Y-90716884D01*
X71299592Y-90689183D01*
X71297703Y-90661901D01*
X71296129Y-90635036D01*
X71294869Y-90608589D01*
X71293925Y-90582560D01*
X71293295Y-90556949D01*
X71292980Y-90531756D01*
X71292941Y-90519316D01*
X71293061Y-90502778D01*
X71293422Y-90485954D01*
X71294023Y-90468843D01*
X71294864Y-90451447D01*
X71295946Y-90433764D01*
X71297269Y-90415795D01*
X71298831Y-90397540D01*
X71300635Y-90378998D01*
X71302678Y-90360170D01*
X71304962Y-90341057D01*
X71307487Y-90321656D01*
X71310252Y-90301970D01*
X71313257Y-90281997D01*
X71316503Y-90261739D01*
X71319989Y-90241194D01*
X71323715Y-90220362D01*
X71328425Y-90200000D01*
X71334861Y-90181641D01*
X71343023Y-90165284D01*
X71352910Y-90150931D01*
X71364524Y-90138580D01*
X71377863Y-90128232D01*
X71392928Y-90119887D01*
X71409719Y-90113544D01*
X71428237Y-90109205D01*
X71448480Y-90106868D01*
X71462934Y-90106423D01*
X71477588Y-90106990D01*
X71495134Y-90109292D01*
X71511821Y-90113365D01*
X71527649Y-90119210D01*
X71542618Y-90126825D01*
X71556729Y-90136211D01*
X71564783Y-90142693D01*
X71577026Y-90154387D01*
X71587194Y-90167029D01*
X71595287Y-90180619D01*
X71601305Y-90195158D01*
X71605248Y-90210644D01*
X71607115Y-90227079D01*
X71607281Y-90233918D01*
X71606915Y-90248750D01*
X71605815Y-90265996D01*
X71604406Y-90281532D01*
X71602529Y-90298614D01*
X71600182Y-90317241D01*
X71598113Y-90332226D01*
X71595781Y-90348080D01*
X71593185Y-90364804D01*
X71592260Y-90370572D01*
X71589576Y-90387562D01*
X71587156Y-90403772D01*
X71584999Y-90419203D01*
X71583107Y-90433855D01*
X71580995Y-90452179D01*
X71579352Y-90469118D01*
X71578178Y-90484671D01*
X71577372Y-90502165D01*
X71577240Y-90511622D01*
X71577278Y-90528933D01*
X71577394Y-90545969D01*
X71577587Y-90562730D01*
X71577858Y-90579216D01*
X71578206Y-90595428D01*
X71578631Y-90611365D01*
X71579133Y-90627027D01*
X71579713Y-90642414D01*
X71580369Y-90657527D01*
X71581104Y-90672364D01*
X71582350Y-90694106D01*
X71583770Y-90715229D01*
X71585364Y-90735734D01*
X71587131Y-90755621D01*
X71589070Y-90774814D01*
X71591176Y-90793376D01*
X71593449Y-90811307D01*
X71595890Y-90828607D01*
X71598498Y-90845276D01*
X71601274Y-90861314D01*
X71604217Y-90876720D01*
X71607327Y-90891496D01*
X71611735Y-90910215D01*
X71616441Y-90927812D01*
X71630750Y-90933588D01*
X71644828Y-90938554D01*
X71660198Y-90943119D01*
X71666266Y-90944665D01*
X71681393Y-90947756D01*
X71696090Y-90949702D01*
X71711762Y-90950521D01*
X71713161Y-90950526D01*
X71734858Y-90950246D01*
X71749541Y-90949748D01*
X71764399Y-90949001D01*
X71779431Y-90948005D01*
X71794638Y-90946760D01*
X71810020Y-90945266D01*
X71825576Y-90943523D01*
X71841307Y-90941531D01*
X71857212Y-90939290D01*
X71873292Y-90936800D01*
X71889547Y-90934060D01*
X71905976Y-90931072D01*
X71922580Y-90927835D01*
X71939358Y-90924349D01*
X71956311Y-90920614D01*
X71964853Y-90918653D01*
X71964836Y-90899184D01*
X71964800Y-90884154D01*
X71964746Y-90868757D01*
X71964672Y-90852993D01*
X71964578Y-90836862D01*
X71964465Y-90820364D01*
X71964333Y-90803498D01*
X71964182Y-90786266D01*
X71964011Y-90768667D01*
X71963821Y-90750700D01*
X71963754Y-90744630D01*
X71963361Y-90723362D01*
X71963007Y-90703246D01*
X71962691Y-90684284D01*
X71962414Y-90666474D01*
X71962176Y-90649817D01*
X71961976Y-90634312D01*
X71961770Y-90615433D01*
X71961633Y-90598603D01*
X71961564Y-90583823D01*
X71961556Y-90577201D01*
X71961633Y-90551911D01*
X71961865Y-90527055D01*
X71962251Y-90502635D01*
X71962792Y-90478649D01*
X71963488Y-90455099D01*
X71964338Y-90431984D01*
X71965342Y-90409303D01*
X71966502Y-90387058D01*
X71967815Y-90365248D01*
X71969284Y-90343873D01*
X71970907Y-90322933D01*
X71972684Y-90302428D01*
X71974616Y-90282358D01*
X71976703Y-90262723D01*
X71978944Y-90243523D01*
X71981339Y-90224759D01*
X71985184Y-90203611D01*
X71990948Y-90184543D01*
X71998631Y-90167555D01*
X72008233Y-90152648D01*
X72019754Y-90139821D01*
X72033194Y-90129073D01*
X72048554Y-90120406D01*
X72065832Y-90113819D01*
X72085030Y-90109312D01*
X72106146Y-90106885D01*
X72121290Y-90106423D01*
X72136220Y-90107007D01*
X72154109Y-90109379D01*
X72171139Y-90113576D01*
X72187310Y-90119597D01*
X72202623Y-90127443D01*
X72217078Y-90137114D01*
X72225338Y-90143792D01*
X72237817Y-90155935D01*
X72248007Y-90169008D01*
X72255906Y-90183012D01*
X72261516Y-90197945D01*
X72264837Y-90213809D01*
X72265867Y-90230603D01*
X72265638Y-90237581D01*
X72264443Y-90261175D01*
X72263287Y-90283961D01*
X72262168Y-90305940D01*
X72261087Y-90327112D01*
X72260044Y-90347476D01*
X72259039Y-90367034D01*
X72258072Y-90385784D01*
X72257143Y-90403728D01*
X72256252Y-90420864D01*
X72255398Y-90437193D01*
X72254583Y-90452715D01*
X72253806Y-90467429D01*
X72252364Y-90494437D01*
X72251075Y-90518217D01*
X72249937Y-90538767D01*
X72248951Y-90556089D01*
X72247757Y-90576019D01*
X72246695Y-90591292D01*
X72246221Y-90592222D01*
G37*
G36*
X73247128Y-91255341D02*
G01*
X73231722Y-91254875D01*
X73210261Y-91252426D01*
X73190776Y-91247877D01*
X73173269Y-91241229D01*
X73157739Y-91232481D01*
X73144186Y-91221634D01*
X73132610Y-91208687D01*
X73123012Y-91193641D01*
X73115390Y-91176496D01*
X73109745Y-91157251D01*
X73106078Y-91135907D01*
X73103395Y-91116800D01*
X73100707Y-91097675D01*
X73098012Y-91078530D01*
X73095310Y-91059365D01*
X73092602Y-91040181D01*
X73089888Y-91020979D01*
X73087167Y-91001756D01*
X73084439Y-90982515D01*
X73081705Y-90963254D01*
X73078965Y-90943973D01*
X73077135Y-90931109D01*
X73074385Y-90910885D01*
X73071906Y-90890881D01*
X73069697Y-90871095D01*
X73067758Y-90851528D01*
X73066090Y-90832180D01*
X73064693Y-90813051D01*
X73063566Y-90794141D01*
X73062709Y-90775450D01*
X73062123Y-90756978D01*
X73061808Y-90738725D01*
X73061748Y-90726678D01*
X73061977Y-90711565D01*
X73062553Y-90694585D01*
X73063325Y-90677240D01*
X73064166Y-90660818D01*
X73065186Y-90642607D01*
X73065411Y-90638750D01*
X73066270Y-90623752D01*
X73067182Y-90606615D01*
X73067916Y-90591266D01*
X73068560Y-90575209D01*
X73068985Y-90559732D01*
X73069075Y-90550823D01*
X73069721Y-90535066D01*
X73070685Y-90519095D01*
X73070907Y-90515652D01*
X73071969Y-90500624D01*
X73072742Y-90485898D01*
X73073103Y-90470966D01*
X73073105Y-90469856D01*
X73072715Y-90455190D01*
X73070984Y-90437880D01*
X73067867Y-90423134D01*
X73062022Y-90408307D01*
X73052152Y-90395805D01*
X73036697Y-90388512D01*
X73028775Y-90387791D01*
X73011015Y-90388747D01*
X72993320Y-90391616D01*
X72975690Y-90396398D01*
X72958124Y-90403092D01*
X72940622Y-90411699D01*
X72923185Y-90422219D01*
X72905812Y-90434651D01*
X72894265Y-90444002D01*
X72882748Y-90454203D01*
X72871259Y-90465254D01*
X72859799Y-90477155D01*
X72848367Y-90489907D01*
X72842662Y-90496601D01*
X72831458Y-90510430D01*
X72820560Y-90524714D01*
X72809968Y-90539453D01*
X72799683Y-90554647D01*
X72789704Y-90570296D01*
X72780031Y-90586400D01*
X72770664Y-90602960D01*
X72761604Y-90619974D01*
X72752850Y-90637444D01*
X72744402Y-90655368D01*
X72736260Y-90673748D01*
X72728425Y-90692583D01*
X72720896Y-90711873D01*
X72713673Y-90731618D01*
X72706756Y-90751818D01*
X72700146Y-90772473D01*
X72699082Y-90788129D01*
X72697751Y-90803250D01*
X72696033Y-90819942D01*
X72694307Y-90835053D01*
X72692313Y-90851255D01*
X72690987Y-90861500D01*
X72688870Y-90878471D01*
X72687192Y-90895314D01*
X72685951Y-90912028D01*
X72685148Y-90928613D01*
X72684783Y-90945070D01*
X72684759Y-90950526D01*
X72685171Y-90966601D01*
X72686208Y-90983596D01*
X72687599Y-91000340D01*
X72689112Y-91015828D01*
X72690948Y-91032711D01*
X72691353Y-91036256D01*
X72693253Y-91053409D01*
X72694831Y-91069150D01*
X72696299Y-91086173D01*
X72697304Y-91101161D01*
X72697890Y-91116075D01*
X72697948Y-91121618D01*
X72696955Y-91139216D01*
X72693977Y-91155829D01*
X72689012Y-91171459D01*
X72682063Y-91186104D01*
X72673127Y-91199766D01*
X72662206Y-91212444D01*
X72657281Y-91217240D01*
X72644054Y-91228216D01*
X72629790Y-91237332D01*
X72614488Y-91244588D01*
X72598148Y-91249983D01*
X72580771Y-91253518D01*
X72566122Y-91255007D01*
X72554699Y-91255341D01*
X72539558Y-91254740D01*
X72521582Y-91252299D01*
X72504661Y-91247978D01*
X72488795Y-91241780D01*
X72473985Y-91233703D01*
X72460230Y-91223748D01*
X72452484Y-91216873D01*
X72440979Y-91204360D01*
X72431425Y-91190863D01*
X72423820Y-91176382D01*
X72418166Y-91160917D01*
X72414461Y-91144468D01*
X72412706Y-91127035D01*
X72412550Y-91119787D01*
X72412161Y-91103667D01*
X72411182Y-91086556D01*
X72409868Y-91069658D01*
X72408439Y-91054001D01*
X72406705Y-91036914D01*
X72406322Y-91033325D01*
X72404528Y-91015845D01*
X72403038Y-90999815D01*
X72401651Y-90982492D01*
X72400702Y-90967255D01*
X72400148Y-90952115D01*
X72400094Y-90946496D01*
X72400219Y-90927342D01*
X72400596Y-90906835D01*
X72401224Y-90884975D01*
X72401782Y-90869651D01*
X72402452Y-90853725D01*
X72403233Y-90837199D01*
X72404126Y-90820071D01*
X72405131Y-90802343D01*
X72406247Y-90784013D01*
X72407475Y-90765082D01*
X72408815Y-90745551D01*
X72410266Y-90725418D01*
X72411828Y-90704684D01*
X72413503Y-90683349D01*
X72414382Y-90672456D01*
X72416156Y-90650776D01*
X72417817Y-90629700D01*
X72419362Y-90609228D01*
X72420793Y-90589360D01*
X72422110Y-90570096D01*
X72423312Y-90551435D01*
X72424400Y-90533379D01*
X72425373Y-90515927D01*
X72426232Y-90499078D01*
X72426976Y-90482834D01*
X72427605Y-90467193D01*
X72428121Y-90452156D01*
X72428679Y-90430734D01*
X72428979Y-90410670D01*
X72429036Y-90398049D01*
X72428861Y-90383148D01*
X72428432Y-90368087D01*
X72427745Y-90350913D01*
X72426976Y-90334989D01*
X72426028Y-90317597D01*
X72425373Y-90306458D01*
X72424514Y-90291649D01*
X72423602Y-90274506D01*
X72422868Y-90258884D01*
X72422224Y-90242144D01*
X72421799Y-90225382D01*
X72421709Y-90215233D01*
X72422729Y-90197856D01*
X72425788Y-90181445D01*
X72430886Y-90165999D01*
X72438024Y-90151520D01*
X72447201Y-90138007D01*
X72458417Y-90125460D01*
X72463475Y-90120711D01*
X72476992Y-90109840D01*
X72491439Y-90100812D01*
X72506816Y-90093626D01*
X72523123Y-90088282D01*
X72540361Y-90084781D01*
X72558529Y-90083123D01*
X72566057Y-90082976D01*
X72582463Y-90083614D01*
X72597885Y-90085529D01*
X72612322Y-90088720D01*
X72632131Y-90095901D01*
X72649725Y-90105954D01*
X72665104Y-90118879D01*
X72678267Y-90134676D01*
X72689215Y-90153346D01*
X72695283Y-90167388D01*
X72700366Y-90182706D01*
X72704465Y-90199301D01*
X72707579Y-90217173D01*
X72709709Y-90236321D01*
X72710404Y-90246374D01*
X72711503Y-90257732D01*
X72730388Y-90239409D01*
X72749399Y-90222269D01*
X72768536Y-90206310D01*
X72787799Y-90191534D01*
X72807187Y-90177940D01*
X72826702Y-90165528D01*
X72846343Y-90154298D01*
X72866109Y-90144250D01*
X72886001Y-90135384D01*
X72906020Y-90127701D01*
X72926164Y-90121199D01*
X72946434Y-90115880D01*
X72966831Y-90111743D01*
X72987353Y-90108787D01*
X73008001Y-90107014D01*
X73028775Y-90106423D01*
X73052666Y-90107044D01*
X73075612Y-90108907D01*
X73097614Y-90112013D01*
X73118671Y-90116361D01*
X73138784Y-90121951D01*
X73157953Y-90128783D01*
X73176176Y-90136857D01*
X73193456Y-90146174D01*
X73209790Y-90156732D01*
X73225180Y-90168533D01*
X73239626Y-90181576D01*
X73253127Y-90195862D01*
X73265684Y-90211389D01*
X73277296Y-90228159D01*
X73287963Y-90246171D01*
X73297686Y-90265425D01*
X73303675Y-90279164D01*
X73309278Y-90293727D01*
X73314495Y-90309114D01*
X73319325Y-90325326D01*
X73323768Y-90342362D01*
X73327825Y-90360222D01*
X73331496Y-90378907D01*
X73334781Y-90398415D01*
X73337679Y-90418749D01*
X73340190Y-90439906D01*
X73342315Y-90461888D01*
X73344054Y-90484694D01*
X73345407Y-90508325D01*
X73346373Y-90532780D01*
X73346952Y-90558059D01*
X73347145Y-90584162D01*
X73347145Y-90655603D01*
X73346772Y-90672085D01*
X73346434Y-90688873D01*
X73346176Y-90704838D01*
X73346047Y-90719965D01*
X73346046Y-90721182D01*
X73346239Y-90736282D01*
X73346819Y-90752180D01*
X73347785Y-90768877D01*
X73349137Y-90786372D01*
X73350876Y-90804666D01*
X73353001Y-90823759D01*
X73355513Y-90843650D01*
X73358411Y-90864339D01*
X73361695Y-90885827D01*
X73364100Y-90900596D01*
X73366676Y-90915720D01*
X73368028Y-90923415D01*
X73370734Y-90938713D01*
X73373266Y-90953646D01*
X73375623Y-90968216D01*
X73378831Y-90989390D01*
X73381647Y-91009746D01*
X73384069Y-91029284D01*
X73386099Y-91048004D01*
X73387736Y-91065906D01*
X73388980Y-91082990D01*
X73389831Y-91099256D01*
X73390289Y-91114705D01*
X73390376Y-91124549D01*
X73389366Y-91141707D01*
X73386333Y-91157916D01*
X73381280Y-91173177D01*
X73374205Y-91187490D01*
X73365108Y-91200854D01*
X73353990Y-91213271D01*
X73348977Y-91217972D01*
X73335671Y-91228738D01*
X73321400Y-91237679D01*
X73306162Y-91244795D01*
X73289958Y-91250086D01*
X73272788Y-91253553D01*
X73254653Y-91255195D01*
X73247128Y-91255341D01*
G37*
G36*
X74346221Y-91255341D02*
G01*
X74330815Y-91254875D01*
X74309354Y-91252426D01*
X74289869Y-91247877D01*
X74272362Y-91241229D01*
X74256832Y-91232481D01*
X74243279Y-91221634D01*
X74231703Y-91208687D01*
X74222104Y-91193641D01*
X74214483Y-91176496D01*
X74208838Y-91157251D01*
X74205170Y-91135907D01*
X74202488Y-91116800D01*
X74199800Y-91097675D01*
X74197104Y-91078530D01*
X74194403Y-91059365D01*
X74191695Y-91040181D01*
X74188980Y-91020979D01*
X74186259Y-91001756D01*
X74183532Y-90982515D01*
X74180798Y-90963254D01*
X74178058Y-90943973D01*
X74176228Y-90931109D01*
X74173478Y-90910885D01*
X74170998Y-90890881D01*
X74168789Y-90871095D01*
X74166851Y-90851528D01*
X74165183Y-90832180D01*
X74163786Y-90813051D01*
X74162659Y-90794141D01*
X74161802Y-90775450D01*
X74161216Y-90756978D01*
X74160900Y-90738725D01*
X74160840Y-90726678D01*
X74161069Y-90711565D01*
X74161645Y-90694585D01*
X74162418Y-90677240D01*
X74163259Y-90660818D01*
X74164279Y-90642607D01*
X74164504Y-90638750D01*
X74165363Y-90623752D01*
X74166275Y-90606615D01*
X74167008Y-90591266D01*
X74167652Y-90575209D01*
X74168078Y-90559732D01*
X74168168Y-90550823D01*
X74168813Y-90535066D01*
X74169778Y-90519095D01*
X74170000Y-90515652D01*
X74171062Y-90500624D01*
X74171835Y-90485898D01*
X74172196Y-90470966D01*
X74172198Y-90469856D01*
X74171808Y-90455190D01*
X74170076Y-90437880D01*
X74166959Y-90423134D01*
X74161115Y-90408307D01*
X74151245Y-90395805D01*
X74135790Y-90388512D01*
X74127868Y-90387791D01*
X74110108Y-90388747D01*
X74092413Y-90391616D01*
X74074783Y-90396398D01*
X74057217Y-90403092D01*
X74039715Y-90411699D01*
X74022277Y-90422219D01*
X74004904Y-90434651D01*
X73993358Y-90444002D01*
X73981841Y-90454203D01*
X73970352Y-90465254D01*
X73958891Y-90477155D01*
X73947460Y-90489907D01*
X73941755Y-90496601D01*
X73930550Y-90510430D01*
X73919652Y-90524714D01*
X73909061Y-90539453D01*
X73898775Y-90554647D01*
X73888796Y-90570296D01*
X73879123Y-90586400D01*
X73869757Y-90602960D01*
X73860696Y-90619974D01*
X73851942Y-90637444D01*
X73843495Y-90655368D01*
X73835353Y-90673748D01*
X73827518Y-90692583D01*
X73819989Y-90711873D01*
X73812766Y-90731618D01*
X73805849Y-90751818D01*
X73799239Y-90772473D01*
X73798174Y-90788129D01*
X73796844Y-90803250D01*
X73795126Y-90819942D01*
X73793400Y-90835053D01*
X73791405Y-90851255D01*
X73790080Y-90861500D01*
X73787963Y-90878471D01*
X73786284Y-90895314D01*
X73785044Y-90912028D01*
X73784241Y-90928613D01*
X73783876Y-90945070D01*
X73783852Y-90950526D01*
X73784264Y-90966601D01*
X73785301Y-90983596D01*
X73786692Y-91000340D01*
X73788205Y-91015828D01*
X73790040Y-91032711D01*
X73790446Y-91036256D01*
X73792346Y-91053409D01*
X73793924Y-91069150D01*
X73795392Y-91086173D01*
X73796397Y-91101161D01*
X73796983Y-91116075D01*
X73797041Y-91121618D01*
X73796048Y-91139216D01*
X73793069Y-91155829D01*
X73788105Y-91171459D01*
X73781155Y-91186104D01*
X73772220Y-91199766D01*
X73761299Y-91212444D01*
X73756374Y-91217240D01*
X73743147Y-91228216D01*
X73728883Y-91237332D01*
X73713580Y-91244588D01*
X73697241Y-91249983D01*
X73679863Y-91253518D01*
X73665215Y-91255007D01*
X73653792Y-91255341D01*
X73638651Y-91254740D01*
X73620675Y-91252299D01*
X73603753Y-91247978D01*
X73587888Y-91241780D01*
X73573078Y-91233703D01*
X73559323Y-91223748D01*
X73551577Y-91216873D01*
X73540072Y-91204360D01*
X73530518Y-91190863D01*
X73522913Y-91176382D01*
X73517259Y-91160917D01*
X73513554Y-91144468D01*
X73511799Y-91127035D01*
X73511643Y-91119787D01*
X73511254Y-91103667D01*
X73510274Y-91086556D01*
X73508961Y-91069658D01*
X73507531Y-91054001D01*
X73505798Y-91036914D01*
X73505415Y-91033325D01*
X73503620Y-91015845D01*
X73502130Y-90999815D01*
X73500744Y-90982492D01*
X73499795Y-90967255D01*
X73499241Y-90952115D01*
X73499187Y-90946496D01*
X73499312Y-90927342D01*
X73499689Y-90906835D01*
X73500317Y-90884975D01*
X73500875Y-90869651D01*
X73501545Y-90853725D01*
X73502326Y-90837199D01*
X73503219Y-90820071D01*
X73504224Y-90802343D01*
X73505340Y-90784013D01*
X73506568Y-90765082D01*
X73507907Y-90745551D01*
X73509358Y-90725418D01*
X73510921Y-90704684D01*
X73512596Y-90683349D01*
X73513475Y-90672456D01*
X73515249Y-90650776D01*
X73516909Y-90629700D01*
X73518455Y-90609228D01*
X73519886Y-90589360D01*
X73521203Y-90570096D01*
X73522405Y-90551435D01*
X73523492Y-90533379D01*
X73524466Y-90515927D01*
X73525324Y-90499078D01*
X73526068Y-90482834D01*
X73526698Y-90467193D01*
X73527213Y-90452156D01*
X73527772Y-90430734D01*
X73528072Y-90410670D01*
X73528129Y-90398049D01*
X73527954Y-90383148D01*
X73527525Y-90368087D01*
X73526838Y-90350913D01*
X73526068Y-90334989D01*
X73525120Y-90317597D01*
X73524466Y-90306458D01*
X73523607Y-90291649D01*
X73522695Y-90274506D01*
X73521961Y-90258884D01*
X73521317Y-90242144D01*
X73520891Y-90225382D01*
X73520802Y-90215233D01*
X73521822Y-90197856D01*
X73524881Y-90181445D01*
X73529979Y-90165999D01*
X73537117Y-90151520D01*
X73546294Y-90138007D01*
X73557510Y-90125460D01*
X73562568Y-90120711D01*
X73576084Y-90109840D01*
X73590531Y-90100812D01*
X73605909Y-90093626D01*
X73622216Y-90088282D01*
X73639454Y-90084781D01*
X73657622Y-90083123D01*
X73665150Y-90082976D01*
X73681556Y-90083614D01*
X73696977Y-90085529D01*
X73711414Y-90088720D01*
X73731224Y-90095901D01*
X73748818Y-90105954D01*
X73764197Y-90118879D01*
X73777360Y-90134676D01*
X73788308Y-90153346D01*
X73794376Y-90167388D01*
X73799459Y-90182706D01*
X73803558Y-90199301D01*
X73806672Y-90217173D01*
X73808802Y-90236321D01*
X73809497Y-90246374D01*
X73810596Y-90257732D01*
X73829481Y-90239409D01*
X73848492Y-90222269D01*
X73867629Y-90206310D01*
X73886892Y-90191534D01*
X73906280Y-90177940D01*
X73925795Y-90165528D01*
X73945435Y-90154298D01*
X73965202Y-90144250D01*
X73985094Y-90135384D01*
X74005113Y-90127701D01*
X74025257Y-90121199D01*
X74045527Y-90115880D01*
X74065923Y-90111743D01*
X74086446Y-90108787D01*
X74107094Y-90107014D01*
X74127868Y-90106423D01*
X74151759Y-90107044D01*
X74174705Y-90108907D01*
X74196707Y-90112013D01*
X74217764Y-90116361D01*
X74237877Y-90121951D01*
X74257045Y-90128783D01*
X74275269Y-90136857D01*
X74292548Y-90146174D01*
X74308883Y-90156732D01*
X74324273Y-90168533D01*
X74338719Y-90181576D01*
X74352220Y-90195862D01*
X74364776Y-90211389D01*
X74376389Y-90228159D01*
X74387056Y-90246171D01*
X74396779Y-90265425D01*
X74402768Y-90279164D01*
X74408371Y-90293727D01*
X74413587Y-90309114D01*
X74418417Y-90325326D01*
X74422861Y-90342362D01*
X74426918Y-90360222D01*
X74430589Y-90378907D01*
X74433873Y-90398415D01*
X74436771Y-90418749D01*
X74439283Y-90439906D01*
X74441408Y-90461888D01*
X74443147Y-90484694D01*
X74444499Y-90508325D01*
X74445465Y-90532780D01*
X74446045Y-90558059D01*
X74446238Y-90584162D01*
X74446238Y-90655603D01*
X74445865Y-90672085D01*
X74445527Y-90688873D01*
X74445269Y-90704838D01*
X74445140Y-90719965D01*
X74445139Y-90721182D01*
X74445332Y-90736282D01*
X74445912Y-90752180D01*
X74446878Y-90768877D01*
X74448230Y-90786372D01*
X74449969Y-90804666D01*
X74452094Y-90823759D01*
X74454606Y-90843650D01*
X74457504Y-90864339D01*
X74460788Y-90885827D01*
X74463193Y-90900596D01*
X74465769Y-90915720D01*
X74467121Y-90923415D01*
X74469827Y-90938713D01*
X74472359Y-90953646D01*
X74474716Y-90968216D01*
X74477924Y-90989390D01*
X74480739Y-91009746D01*
X74483162Y-91029284D01*
X74485192Y-91048004D01*
X74486828Y-91065906D01*
X74488072Y-91082990D01*
X74488924Y-91099256D01*
X74489382Y-91114705D01*
X74489469Y-91124549D01*
X74488458Y-91141707D01*
X74485426Y-91157916D01*
X74480373Y-91173177D01*
X74473298Y-91187490D01*
X74464201Y-91200854D01*
X74453083Y-91213271D01*
X74448070Y-91217972D01*
X74434764Y-91228738D01*
X74420492Y-91237679D01*
X74405255Y-91244795D01*
X74389051Y-91250086D01*
X74371881Y-91253553D01*
X74353745Y-91255195D01*
X74346221Y-91255341D01*
G37*
G36*
X75146946Y-90106658D02*
G01*
X75168668Y-90107362D01*
X75189913Y-90108535D01*
X75210680Y-90110178D01*
X75230969Y-90112291D01*
X75250780Y-90114872D01*
X75270113Y-90117923D01*
X75288968Y-90121444D01*
X75307344Y-90125434D01*
X75325243Y-90129893D01*
X75342664Y-90134822D01*
X75359607Y-90140220D01*
X75376072Y-90146088D01*
X75392059Y-90152425D01*
X75407568Y-90159231D01*
X75422599Y-90166507D01*
X75441454Y-90176742D01*
X75459092Y-90187664D01*
X75475514Y-90199274D01*
X75490720Y-90211570D01*
X75504709Y-90224553D01*
X75517482Y-90238223D01*
X75529038Y-90252580D01*
X75539378Y-90267623D01*
X75548501Y-90283354D01*
X75556408Y-90299772D01*
X75563098Y-90316876D01*
X75568572Y-90334668D01*
X75572830Y-90353147D01*
X75575871Y-90372312D01*
X75577696Y-90392164D01*
X75578304Y-90412704D01*
X75577190Y-90434588D01*
X75573847Y-90456002D01*
X75568277Y-90476946D01*
X75560478Y-90497420D01*
X75554041Y-90510808D01*
X75546613Y-90523987D01*
X75538195Y-90536957D01*
X75528787Y-90549718D01*
X75518389Y-90562270D01*
X75507000Y-90574614D01*
X75494621Y-90586748D01*
X75481252Y-90598674D01*
X75466892Y-90610390D01*
X75451542Y-90621898D01*
X75435256Y-90632940D01*
X75420659Y-90642011D01*
X75404022Y-90651758D01*
X75385342Y-90662181D01*
X75371756Y-90669505D01*
X75357261Y-90677130D01*
X75341860Y-90685056D01*
X75325551Y-90693282D01*
X75308334Y-90701808D01*
X75290211Y-90710635D01*
X75271180Y-90719763D01*
X75251242Y-90729191D01*
X75230396Y-90738920D01*
X75219633Y-90743897D01*
X74872320Y-90903632D01*
X74888277Y-90910673D01*
X74905235Y-90917141D01*
X74919524Y-90921904D01*
X74934453Y-90926301D01*
X74950023Y-90930331D01*
X74966235Y-90933994D01*
X74983088Y-90937291D01*
X74991755Y-90938803D01*
X75009655Y-90941550D01*
X75028185Y-90943932D01*
X75047345Y-90945947D01*
X75062128Y-90947218D01*
X75077265Y-90948282D01*
X75092756Y-90949141D01*
X75108602Y-90949794D01*
X75124802Y-90950240D01*
X75141356Y-90950481D01*
X75152588Y-90950526D01*
X75169687Y-90950285D01*
X75186454Y-90949559D01*
X75202889Y-90948350D01*
X75218992Y-90946657D01*
X75234763Y-90944480D01*
X75250202Y-90941819D01*
X75265308Y-90938675D01*
X75280083Y-90935047D01*
X75294526Y-90930936D01*
X75308637Y-90926341D01*
X75322415Y-90921262D01*
X75342461Y-90912736D01*
X75361760Y-90903122D01*
X75380311Y-90892420D01*
X75386329Y-90888611D01*
X75402104Y-90878724D01*
X75417280Y-90869810D01*
X75431856Y-90861869D01*
X75445834Y-90854900D01*
X75459214Y-90848903D01*
X75476121Y-90842420D01*
X75491963Y-90837666D01*
X75506741Y-90834640D01*
X75523715Y-90833290D01*
X75542834Y-90834311D01*
X75560071Y-90837373D01*
X75575429Y-90842476D01*
X75588905Y-90849622D01*
X75600502Y-90858808D01*
X75610218Y-90870036D01*
X75618053Y-90883306D01*
X75624008Y-90898617D01*
X75628082Y-90915970D01*
X75630276Y-90935364D01*
X75630694Y-90949427D01*
X75630021Y-90965589D01*
X75628003Y-90981375D01*
X75624640Y-90996787D01*
X75619932Y-91011824D01*
X75613878Y-91026485D01*
X75606479Y-91040772D01*
X75597735Y-91054684D01*
X75587646Y-91068221D01*
X75576211Y-91081383D01*
X75563432Y-91094170D01*
X75549307Y-91106582D01*
X75533836Y-91118619D01*
X75517021Y-91130281D01*
X75498860Y-91141568D01*
X75479354Y-91152480D01*
X75458503Y-91163018D01*
X75440435Y-91171358D01*
X75422227Y-91179161D01*
X75403879Y-91186425D01*
X75385390Y-91193151D01*
X75366761Y-91199339D01*
X75347992Y-91204989D01*
X75329083Y-91210101D01*
X75310034Y-91214675D01*
X75290844Y-91218711D01*
X75271514Y-91222208D01*
X75252043Y-91225168D01*
X75232433Y-91227589D01*
X75212682Y-91229473D01*
X75192791Y-91230818D01*
X75172760Y-91231625D01*
X75152588Y-91231894D01*
X75137288Y-91231779D01*
X75122163Y-91231435D01*
X75107212Y-91230861D01*
X75092436Y-91230057D01*
X75063407Y-91227760D01*
X75035077Y-91224544D01*
X75007445Y-91220409D01*
X74980512Y-91215356D01*
X74954277Y-91209384D01*
X74928740Y-91202493D01*
X74903902Y-91194684D01*
X74879762Y-91185955D01*
X74856320Y-91176308D01*
X74833577Y-91165742D01*
X74811532Y-91154258D01*
X74790186Y-91141854D01*
X74769537Y-91128532D01*
X74749588Y-91114291D01*
X74728648Y-91097619D01*
X74709059Y-91080116D01*
X74690821Y-91061784D01*
X74673934Y-91042621D01*
X74658397Y-91022629D01*
X74644212Y-91001806D01*
X74631378Y-90980153D01*
X74619895Y-90957670D01*
X74609763Y-90934358D01*
X74600981Y-90910215D01*
X74593551Y-90885242D01*
X74587472Y-90859439D01*
X74582743Y-90832806D01*
X74579366Y-90805343D01*
X74577339Y-90777050D01*
X74576664Y-90747927D01*
X74576798Y-90731702D01*
X74577199Y-90715634D01*
X74577868Y-90699722D01*
X74578805Y-90683968D01*
X74580009Y-90668370D01*
X74581481Y-90652928D01*
X74582302Y-90645711D01*
X74851803Y-90645711D01*
X74866362Y-90639350D01*
X74880912Y-90632997D01*
X74895454Y-90626653D01*
X74909987Y-90620318D01*
X74924511Y-90613991D01*
X74939027Y-90607672D01*
X74953534Y-90601363D01*
X74968032Y-90595061D01*
X74982522Y-90588769D01*
X74997004Y-90582485D01*
X75011477Y-90576209D01*
X75025941Y-90569943D01*
X75040397Y-90563684D01*
X75054844Y-90557435D01*
X75069282Y-90551194D01*
X75083712Y-90544961D01*
X75100892Y-90537031D01*
X75117629Y-90529179D01*
X75133923Y-90521404D01*
X75149772Y-90513706D01*
X75165178Y-90506085D01*
X75180140Y-90498542D01*
X75194659Y-90491076D01*
X75208734Y-90483687D01*
X75222365Y-90476375D01*
X75235553Y-90469141D01*
X75254502Y-90458434D01*
X75272454Y-90447902D01*
X75289407Y-90437543D01*
X75305362Y-90427358D01*
X75292012Y-90420287D01*
X75277928Y-90413911D01*
X75263110Y-90408231D01*
X75247557Y-90403247D01*
X75231270Y-90398958D01*
X75214249Y-90395364D01*
X75196494Y-90392466D01*
X75178005Y-90390264D01*
X75158782Y-90388757D01*
X75138824Y-90387945D01*
X75125111Y-90387791D01*
X75107358Y-90388358D01*
X75090095Y-90390058D01*
X75073321Y-90392891D01*
X75057036Y-90396858D01*
X75041241Y-90401959D01*
X75025935Y-90408193D01*
X75011119Y-90415560D01*
X74996792Y-90424061D01*
X74982955Y-90433695D01*
X74969607Y-90444463D01*
X74960980Y-90452271D01*
X74948504Y-90464928D01*
X74936491Y-90478718D01*
X74924942Y-90493641D01*
X74913856Y-90509699D01*
X74903235Y-90526889D01*
X74893077Y-90545213D01*
X74883382Y-90564670D01*
X74877177Y-90578272D01*
X74871178Y-90592377D01*
X74865385Y-90606985D01*
X74859798Y-90622098D01*
X74854417Y-90637714D01*
X74851803Y-90645711D01*
X74582302Y-90645711D01*
X74583220Y-90637644D01*
X74585228Y-90622516D01*
X74587502Y-90607545D01*
X74590045Y-90592730D01*
X74592855Y-90578072D01*
X74595932Y-90563571D01*
X74599278Y-90549227D01*
X74606771Y-90521008D01*
X74615335Y-90493416D01*
X74624969Y-90466451D01*
X74635674Y-90440113D01*
X74647449Y-90414402D01*
X74660294Y-90389317D01*
X74674210Y-90364860D01*
X74689197Y-90341029D01*
X74705254Y-90317825D01*
X74713684Y-90306458D01*
X74723313Y-90294151D01*
X74733150Y-90282235D01*
X74743194Y-90270710D01*
X74753446Y-90259575D01*
X74763905Y-90248831D01*
X74774572Y-90238477D01*
X74785446Y-90228515D01*
X74807818Y-90209761D01*
X74831019Y-90192571D01*
X74855050Y-90176943D01*
X74879911Y-90162878D01*
X74905602Y-90150376D01*
X74932124Y-90139437D01*
X74959475Y-90130060D01*
X74987657Y-90122246D01*
X75002059Y-90118925D01*
X75016668Y-90115995D01*
X75031485Y-90113456D01*
X75046510Y-90111307D01*
X75061742Y-90109549D01*
X75077181Y-90108181D01*
X75092828Y-90107204D01*
X75108683Y-90106618D01*
X75124745Y-90106423D01*
X75146946Y-90106658D01*
G37*
G36*
X76670802Y-90459965D02*
G01*
X76669169Y-90479618D01*
X76666560Y-90498004D01*
X76662975Y-90515121D01*
X76658414Y-90530971D01*
X76652877Y-90545552D01*
X76646364Y-90558866D01*
X76634765Y-90576459D01*
X76620969Y-90591199D01*
X76604978Y-90603086D01*
X76586790Y-90612120D01*
X76566406Y-90618302D01*
X76551597Y-90620838D01*
X76535812Y-90622105D01*
X76527554Y-90622264D01*
X76511804Y-90621749D01*
X76497071Y-90620203D01*
X76476876Y-90615953D01*
X76458968Y-90609384D01*
X76443345Y-90600497D01*
X76430009Y-90589291D01*
X76418959Y-90575767D01*
X76410195Y-90559925D01*
X76403718Y-90541764D01*
X76399526Y-90521285D01*
X76398002Y-90506344D01*
X76397494Y-90490373D01*
X76392365Y-90387791D01*
X76363936Y-90392903D01*
X76336535Y-90399263D01*
X76310161Y-90406870D01*
X76284814Y-90415726D01*
X76260495Y-90425830D01*
X76237204Y-90437181D01*
X76214940Y-90449781D01*
X76193704Y-90463628D01*
X76173495Y-90478724D01*
X76154314Y-90495067D01*
X76136161Y-90512658D01*
X76119035Y-90531497D01*
X76102936Y-90551584D01*
X76087865Y-90572919D01*
X76073821Y-90595502D01*
X76060806Y-90619333D01*
X76061905Y-91123084D01*
X76060921Y-91140461D01*
X76057969Y-91156872D01*
X76053050Y-91172318D01*
X76046162Y-91186797D01*
X76037307Y-91200310D01*
X76026485Y-91212857D01*
X76021605Y-91217606D01*
X76008483Y-91228477D01*
X75994306Y-91237506D01*
X75979074Y-91244691D01*
X75962786Y-91250035D01*
X75945443Y-91253536D01*
X75930808Y-91255010D01*
X75919389Y-91255341D01*
X75903899Y-91254706D01*
X75889301Y-91252800D01*
X75872310Y-91248630D01*
X75856715Y-91242474D01*
X75842515Y-91234333D01*
X75829710Y-91224206D01*
X75820471Y-91214675D01*
X75810972Y-91202620D01*
X75803083Y-91189580D01*
X75796804Y-91175557D01*
X75792135Y-91160550D01*
X75789076Y-91144560D01*
X75787627Y-91127585D01*
X75787498Y-91120519D01*
X75787498Y-90452271D01*
X75787585Y-90436996D01*
X75787800Y-90421532D01*
X75788144Y-90403878D01*
X75788528Y-90387493D01*
X75789002Y-90369588D01*
X75789330Y-90358115D01*
X75789845Y-90342854D01*
X75790392Y-90325162D01*
X75790832Y-90309008D01*
X75791219Y-90291655D01*
X75791450Y-90276516D01*
X75791528Y-90263593D01*
X75792369Y-90246198D01*
X75794891Y-90229733D01*
X75799095Y-90214199D01*
X75804980Y-90199594D01*
X75812547Y-90185920D01*
X75821796Y-90173176D01*
X75825966Y-90168339D01*
X75837549Y-90157256D01*
X75850545Y-90148053D01*
X75864955Y-90140727D01*
X75880778Y-90135280D01*
X75898013Y-90131711D01*
X75912820Y-90130209D01*
X75924518Y-90129870D01*
X75945201Y-90130904D01*
X75964248Y-90134005D01*
X75981660Y-90139173D01*
X75997436Y-90146408D01*
X76011576Y-90155711D01*
X76024080Y-90167081D01*
X76034949Y-90180518D01*
X76044182Y-90196022D01*
X76051779Y-90213594D01*
X76057740Y-90233232D01*
X76060806Y-90247473D01*
X76083768Y-90230393D01*
X76107042Y-90214415D01*
X76130628Y-90199538D01*
X76154526Y-90185764D01*
X76178736Y-90173091D01*
X76203258Y-90161521D01*
X76228092Y-90151052D01*
X76253238Y-90141686D01*
X76278696Y-90133421D01*
X76304466Y-90126258D01*
X76330548Y-90120198D01*
X76356942Y-90115239D01*
X76383648Y-90111382D01*
X76410666Y-90108627D01*
X76437996Y-90106974D01*
X76465638Y-90106423D01*
X76490615Y-90107526D01*
X76513981Y-90110837D01*
X76535735Y-90116354D01*
X76555878Y-90124077D01*
X76574410Y-90134008D01*
X76591330Y-90146145D01*
X76606638Y-90160489D01*
X76620335Y-90177040D01*
X76632421Y-90195797D01*
X76642895Y-90216762D01*
X76651758Y-90239933D01*
X76659010Y-90265311D01*
X76664650Y-90292895D01*
X76666865Y-90307515D01*
X76668678Y-90322687D01*
X76670088Y-90338410D01*
X76671095Y-90354685D01*
X76671700Y-90371512D01*
X76671901Y-90388890D01*
X76671874Y-90404825D01*
X76671771Y-90421587D01*
X76671553Y-90437885D01*
X76671119Y-90453689D01*
X76670802Y-90459965D01*
G37*
D12*
%TO.P,SW6,1,C*%
%TO.N,GND*%
X185420000Y-30480000D03*
X197920000Y-30480000D03*
%TO.P,SW6,2,D*%
%TO.N,/VOL*%
X185420000Y-35480000D03*
X197920000Y-35480000D03*
%TD*%
D13*
%TO.P,U2,1,VCC*%
%TO.N,/+3.3V*%
X99060000Y-40640000D03*
%TO.P,U2,2,GND*%
%TO.N,GND*%
X99060000Y-43180000D03*
%TO.P,U2,3,CS*%
%TO.N,/TFT_CS*%
X99060000Y-45720000D03*
%TO.P,U2,4,RST*%
%TO.N,unconnected-(U2-RST-Pad4)*%
X99060000Y-48260000D03*
%TO.P,U2,5,DC*%
%TO.N,/TFT_DC*%
X99060000Y-50800000D03*
%TO.P,U2,6,MOSI*%
%TO.N,/MOSI*%
X99060000Y-53340000D03*
%TO.P,U2,7,SCK*%
%TO.N,/SCK*%
X99060000Y-55880000D03*
%TO.P,U2,8,LED*%
%TO.N,/TFT_LED*%
X99060000Y-58420000D03*
%TO.P,U2,9,MISO*%
%TO.N,/MISO*%
X99060000Y-60960000D03*
%TO.P,U2,10*%
%TO.N,unconnected-(U2-Pad10)*%
X99060000Y-63500000D03*
%TO.P,U2,11*%
%TO.N,unconnected-(U2-Pad11)*%
X99060000Y-66040000D03*
%TO.P,U2,12*%
%TO.N,unconnected-(U2-Pad12)*%
X99060000Y-68580000D03*
%TO.P,U2,13*%
%TO.N,unconnected-(U2-Pad13)*%
X99060000Y-71120000D03*
%TO.P,U2,14*%
%TO.N,unconnected-(U2-Pad14)*%
X99060000Y-73660000D03*
%TO.P,U2,15,SD_CS*%
%TO.N,/SD_CS*%
X171510000Y-53315000D03*
%TO.P,U2,16,SD_MOSI*%
%TO.N,/MOSI*%
X171510000Y-55855000D03*
%TO.P,U2,17,SD_MISO*%
%TO.N,/MISO*%
X171510000Y-58395000D03*
%TO.P,U2,18,SD_SCK*%
%TO.N,/SCK*%
X171510000Y-60935000D03*
%TD*%
D14*
%TO.P,SW11,*%
%TO.N,*%
X199370000Y-93030000D03*
X212110000Y-93000000D03*
%TO.P,SW11,1,A*%
%TO.N,unconnected-(SW11-A-Pad1)*%
X201060000Y-83820000D03*
%TO.P,SW11,2,B*%
%TO.N,Net-(SW11-B)*%
X205840000Y-83820000D03*
%TO.P,SW11,3,C*%
%TO.N,/ESP_VCC*%
X210570000Y-83820000D03*
%TD*%
D15*
%TO.P,R8,1*%
%TO.N,/ACT_LED*%
X160020000Y-30480000D03*
D16*
%TO.P,R8,2*%
%TO.N,Net-(D1-A)*%
X167640000Y-30480000D03*
%TD*%
D15*
%TO.P,R12,1*%
%TO.N,/+3.3V*%
X214630000Y-78740000D03*
D16*
%TO.P,R12,2*%
%TO.N,/BTN_B*%
X207010000Y-78740000D03*
%TD*%
D12*
%TO.P,SW1,1,C*%
%TO.N,/+3.3V*%
X60960000Y-43180000D03*
X73460000Y-43180000D03*
%TO.P,SW1,2,D*%
%TO.N,/GP_Y*%
X60960000Y-48180000D03*
X73460000Y-48180000D03*
%TD*%
%TO.P,SW9,1,C*%
%TO.N,GND*%
X187960000Y-66040000D03*
X200460000Y-66040000D03*
%TO.P,SW9,2,D*%
%TO.N,/BTN_B*%
X187960000Y-71040000D03*
X200460000Y-71040000D03*
%TD*%
D16*
%TO.P,R9,2*%
%TO.N,/BAT_CHARGE*%
X181610000Y-83820000D03*
D15*
%TO.P,R9,1*%
%TO.N,/VBAT*%
X173990000Y-83820000D03*
%TD*%
%TO.P,R4,1*%
%TO.N,/GP_Y*%
X73660000Y-83820000D03*
D16*
%TO.P,R4,2*%
%TO.N,GND*%
X66040000Y-83820000D03*
%TD*%
D15*
%TO.P,R3,1*%
%TO.N,/GP_X*%
X63500000Y-58420000D03*
D16*
%TO.P,R3,2*%
%TO.N,Net-(SW4A-D)*%
X71120000Y-58420000D03*
%TD*%
D12*
%TO.P,SW8,1,C*%
%TO.N,GND*%
X203200000Y-48260000D03*
X215700000Y-48260000D03*
%TO.P,SW8,2,D*%
%TO.N,/START*%
X203200000Y-53260000D03*
X215700000Y-53260000D03*
%TD*%
D15*
%TO.P,R7,1*%
%TO.N,/+3.3V*%
X191770000Y-43180000D03*
D16*
%TO.P,R7,2*%
%TO.N,/SEL*%
X199390000Y-43180000D03*
%TD*%
D12*
%TO.P,SW2,1,C*%
%TO.N,/+3.3V*%
X60960000Y-68580000D03*
X73460000Y-68580000D03*
%TO.P,SW2,2,D*%
%TO.N,Net-(SW2A-D)*%
X60960000Y-73580000D03*
X73460000Y-73580000D03*
%TD*%
D15*
%TO.P,R1,1*%
%TO.N,/+3.3V*%
X226060000Y-45720000D03*
D16*
%TO.P,R1,2*%
%TO.N,/MENU*%
X226060000Y-38100000D03*
%TD*%
D15*
%TO.P,R11,1*%
%TO.N,/+3.3V*%
X226060000Y-52070000D03*
D16*
%TO.P,R11,2*%
%TO.N,/START*%
X226060000Y-59690000D03*
%TD*%
D15*
%TO.P,R10,1*%
%TO.N,/BAT_CHARGE*%
X173990000Y-88900000D03*
D16*
%TO.P,R10,2*%
%TO.N,GND*%
X181610000Y-88900000D03*
%TD*%
D17*
%TO.P,C2,1*%
%TO.N,Net-(tp1-5V)*%
X191040000Y-91440000D03*
D18*
%TO.P,C2,2*%
%TO.N,GND*%
X193040000Y-91440000D03*
%TD*%
D15*
%TO.P,R6,1*%
%TO.N,/+3.3V*%
X179070000Y-43180000D03*
D16*
%TO.P,R6,2*%
%TO.N,/VOL*%
X186690000Y-43180000D03*
%TD*%
D12*
%TO.P,SW5,1,C*%
%TO.N,GND*%
X203200000Y-30480000D03*
X215700000Y-30480000D03*
%TO.P,SW5,2,D*%
%TO.N,/MENU*%
X203200000Y-35480000D03*
X215700000Y-35480000D03*
%TD*%
D15*
%TO.P,R2,1*%
%TO.N,/GP_Y*%
X78740000Y-48260000D03*
D16*
%TO.P,R2,2*%
%TO.N,Net-(SW2A-D)*%
X86360000Y-48260000D03*
%TD*%
D12*
%TO.P,SW4,1,C*%
%TO.N,/+3.3V*%
X76200000Y-55880000D03*
X88700000Y-55880000D03*
%TO.P,SW4,2,D*%
%TO.N,Net-(SW4A-D)*%
X76200000Y-60880000D03*
X88700000Y-60880000D03*
%TD*%
D15*
%TO.P,R5,1*%
%TO.N,/GP_X*%
X49851000Y-72440000D03*
D16*
%TO.P,R5,2*%
%TO.N,GND*%
X57471000Y-72440000D03*
%TD*%
D17*
%TO.P,C4,1*%
%TO.N,/ESP_VCC*%
X85820000Y-84360000D03*
D18*
%TO.P,C4,2*%
%TO.N,GND*%
X83820000Y-84360000D03*
%TD*%
D19*
%TO.P,D1,2,A*%
%TO.N,Net-(D1-A)*%
X172720000Y-30480000D03*
D20*
%TO.P,D1,1,K*%
%TO.N,GND*%
X175260000Y-30480000D03*
%TD*%
D17*
%TO.P,C1,1*%
%TO.N,/BAT_CHARGE*%
X185420000Y-91440000D03*
D18*
%TO.P,C1,2*%
%TO.N,GND*%
X187420000Y-91440000D03*
%TD*%
D15*
%TO.P,R13,1*%
%TO.N,/+3.3V*%
X226060000Y-72390000D03*
D16*
%TO.P,R13,2*%
%TO.N,/BTN_A*%
X226060000Y-64770000D03*
%TD*%
D12*
%TO.P,SW10,1,C*%
%TO.N,GND*%
X205740000Y-63500000D03*
X218240000Y-63500000D03*
%TO.P,SW10,2,D*%
%TO.N,/BTN_A*%
X205740000Y-68500000D03*
X218240000Y-68500000D03*
%TD*%
%TO.P,SW3,1,C*%
%TO.N,/+3.3V*%
X45920000Y-55880000D03*
X58420000Y-55880000D03*
%TO.P,SW3,2,D*%
%TO.N,/GP_X*%
X45920000Y-60880000D03*
X58420000Y-60880000D03*
%TD*%
D18*
%TO.P,C3,2*%
%TO.N,GND*%
X91440000Y-84360000D03*
D17*
%TO.P,C3,1*%
%TO.N,/ESP_VCC*%
X93440000Y-84360000D03*
%TD*%
D12*
%TO.P,SW7,1,C*%
%TO.N,GND*%
X185420000Y-50800000D03*
X197920000Y-50800000D03*
%TO.P,SW7,2,D*%
%TO.N,/SEL*%
X185420000Y-55800000D03*
X197920000Y-55800000D03*
%TD*%
D21*
%TO.P,J1,1,Pin_1*%
%TO.N,/I2S_LRC*%
X58420000Y-33020000D03*
D22*
%TO.P,J1,2,Pin_2*%
%TO.N,/I2S_BCLK*%
X60960000Y-33020000D03*
%TO.P,J1,3,Pin_3*%
%TO.N,/I2S_DIN*%
X63500000Y-33020000D03*
%TO.P,J1,4,Pin_4*%
%TO.N,unconnected-(J1-Pin_4-Pad4)*%
X66040000Y-33020000D03*
%TO.P,J1,5,Pin_5*%
%TO.N,/I2S_SD*%
X68580000Y-33020000D03*
%TO.P,J1,6,Pin_6*%
%TO.N,GND*%
X71120000Y-33020000D03*
%TO.P,J1,7,Pin_7*%
%TO.N,/+3.3V*%
X73660000Y-33020000D03*
%TD*%
D23*
%TO.P,J2,5,Shield*%
%TO.N,GND*%
X92930000Y-33020000D03*
X79790000Y-33020000D03*
D15*
%TO.P,J2,4,GND*%
X89860000Y-35730000D03*
%TO.P,J2,3,D+*%
%TO.N,/USB_D+*%
X87360000Y-35730000D03*
%TO.P,J2,2,D-*%
%TO.N,/USB_D-*%
X85360000Y-35730000D03*
D24*
%TO.P,J2,1,VBUS*%
%TO.N,/ESP_VCC*%
X82860000Y-35730000D03*
%TD*%
D25*
%TO.P,tp1,1,5V*%
%TO.N,Net-(tp1-5V)*%
X152400000Y-93980000D03*
%TO.P,tp1,2,GND*%
%TO.N,GND*%
X138200000Y-93980000D03*
%TO.P,tp1,3,Output+*%
%TO.N,Net-(SW11-B)*%
X152400000Y-71080000D03*
%TO.P,tp1,4,Output-*%
%TO.N,GND*%
X137900000Y-71080000D03*
%TO.P,tp1,5,B+*%
%TO.N,/VBAT*%
X148900000Y-71080000D03*
%TO.P,tp1,6,B-*%
%TO.N,Net-(J3-Pin_2)*%
X141300000Y-71080000D03*
%TD*%
D26*
%TO.P,J3,1,Pin_1*%
%TO.N,/VBAT*%
X144780000Y-60960000D03*
D23*
%TO.P,J3,2,Pin_2*%
%TO.N,Net-(J3-Pin_2)*%
X140900000Y-60960000D03*
%TD*%
D27*
%TO.P,U1,1,3V3*%
%TO.N,/+3.3V*%
X132080000Y-30480000D03*
D28*
%TO.P,U1,2,3V3*%
X132080000Y-33020000D03*
%TO.P,U1,3,CHIP_PU*%
%TO.N,unconnected-(U1-CHIP_PU-Pad3)*%
X132080000Y-35560000D03*
%TO.P,U1,4,GPIO4/ADC1_CH3*%
%TO.N,/BAT_CHARGE*%
X132080000Y-38100000D03*
%TO.P,U1,5,GPIO5/ADC1_CH4*%
%TO.N,/GP_Y*%
X132080000Y-40640000D03*
%TO.P,U1,6,GPIO6/ADC1_CH5*%
%TO.N,/GP_X*%
X132080000Y-43180000D03*
%TO.P,U1,7,GPIO7/ADC1_CH6*%
%TO.N,/TFT_DC*%
X132080000Y-45720000D03*
%TO.P,U1,8,GPIO15/ADC2_CH4/32K_P*%
%TO.N,/MENU*%
X132080000Y-48260000D03*
%TO.P,U1,9,GPIO16/ADC2_CH5/32K_N*%
%TO.N,/VOL*%
X132080000Y-50800000D03*
%TO.P,U1,10,GPIO17/ADC2_CH6*%
%TO.N,/SEL*%
X132080000Y-53340000D03*
%TO.P,U1,11,GPIO18/ADC2_CH7*%
%TO.N,unconnected-(U1-GPIO18{slash}ADC2_CH7-Pad11)*%
X132080000Y-55880000D03*
%TO.P,U1,12,GPIO8/ADC1_CH7*%
%TO.N,unconnected-(U1-GPIO8{slash}ADC1_CH7-Pad12)*%
X132080000Y-58420000D03*
%TO.P,U1,13,GPIO3/ADC1_CH2*%
%TO.N,unconnected-(U1-GPIO3{slash}ADC1_CH2-Pad13)*%
X132080000Y-60960000D03*
%TO.P,U1,14,GPIO46*%
%TO.N,unconnected-(U1-GPIO46-Pad14)*%
X132080000Y-63500000D03*
%TO.P,U1,15,GPIO9/ADC1_CH8*%
%TO.N,/SD_CS*%
X132080000Y-66040000D03*
%TO.P,U1,16,GPIO10/ADC1_CH9*%
%TO.N,/TFT_CS*%
X132080000Y-68580000D03*
%TO.P,U1,17,GPIO11/ADC2_CH0*%
%TO.N,/MOSI*%
X132080000Y-71120000D03*
%TO.P,U1,18,GPIO12/ADC2_CH1*%
%TO.N,/SCK*%
X132080000Y-73660000D03*
%TO.P,U1,19,GPIO13/ADC2_CH2*%
%TO.N,/MISO*%
X132080000Y-76200000D03*
%TO.P,U1,20,GPIO14/ADC2_CH3*%
%TO.N,/TFT_LED*%
X132083680Y-78737280D03*
%TO.P,U1,21,5V*%
%TO.N,/ESP_VCC*%
X132083680Y-81277280D03*
%TO.P,U1,22,GND*%
%TO.N,unconnected-(U1-GND-Pad22)*%
X132083680Y-83817280D03*
%TO.P,U1,23,GND*%
%TO.N,unconnected-(U1-GND-Pad23)*%
X109220000Y-83820000D03*
%TO.P,U1,24,GND*%
%TO.N,unconnected-(U1-GND-Pad24)*%
X109220000Y-81280000D03*
%TO.P,U1,25,GPIO19/USB_D-*%
%TO.N,/USB_D-*%
X109220000Y-78740000D03*
%TO.P,U1,26,GPIO20/USB_D+*%
%TO.N,/USB_D+*%
X109220000Y-76200000D03*
%TO.P,U1,27,GPIO21*%
%TO.N,/TFT_DC*%
X109220000Y-73660000D03*
%TO.P,U1,28,GPIO47*%
%TO.N,/I2S_DIN*%
X109220000Y-71120000D03*
%TO.P,U1,29,GPIO48*%
%TO.N,/I2S_SD*%
X109220000Y-68580000D03*
%TO.P,U1,30,GPIO45*%
%TO.N,unconnected-(U1-GPIO45-Pad30)*%
X109220000Y-66040000D03*
%TO.P,U1,31,GPIO0*%
%TO.N,unconnected-(U1-GPIO0-Pad31)*%
X109220000Y-63500000D03*
%TO.P,U1,32,GPIO35*%
%TO.N,/START*%
X109220000Y-60960000D03*
%TO.P,U1,33,GPIO36*%
%TO.N,/BTN_B*%
X109220000Y-58420000D03*
%TO.P,U1,34,GPIO37*%
%TO.N,/BTN_A*%
X109220000Y-55880000D03*
%TO.P,U1,35,GPIO38*%
%TO.N,unconnected-(U1-GPIO38-Pad35)*%
X109220000Y-53340000D03*
%TO.P,U1,36,GPIO39/MTCK*%
%TO.N,unconnected-(U1-GPIO39{slash}MTCK-Pad36)*%
X109220000Y-50800000D03*
%TO.P,U1,37,GPIO40/MTDO*%
%TO.N,unconnected-(U1-GPIO40{slash}MTDO-Pad37)*%
X109220000Y-48260000D03*
%TO.P,U1,38,GPIO41/MTDI*%
%TO.N,/I2S_LRC*%
X109220000Y-45720000D03*
%TO.P,U1,39,GPIO42/MTMS*%
%TO.N,/I2S_BCLK*%
X109220000Y-43180000D03*
%TO.P,U1,40,GPIO2/ADC1_CH1*%
%TO.N,/ACT_LED*%
X109220000Y-40640000D03*
%TO.P,U1,41,GPIO1/ADC1_CH0*%
%TO.N,unconnected-(U1-GPIO1{slash}ADC1_CH0-Pad41)*%
X109220000Y-38100000D03*
%TO.P,U1,42,GPIO44/U0RXD*%
%TO.N,unconnected-(U1-GPIO44{slash}U0RXD-Pad42)*%
X109220000Y-35560000D03*
%TO.P,U1,43,GPIO43/U0TXD*%
%TO.N,unconnected-(U1-GPIO43{slash}U0TXD-Pad43)*%
X109220000Y-33020000D03*
%TO.P,U1,44,GND*%
%TO.N,GND*%
X109220000Y-30480000D03*
%TD*%
D29*
%TO.N,/SCK*%
X156958100Y-73660000D03*
%TO.N,/I2S_SD*%
X75158600Y-51805800D03*
%TD*%
D30*
%TO.N,/BTN_A*%
X109220000Y-55880000D02*
X110546900Y-55880000D01*
X124171900Y-67655000D02*
X185420000Y-67655000D01*
X205660000Y-68580000D02*
X205740000Y-68500000D01*
X110546900Y-55880000D02*
X123246900Y-68580000D01*
X123246900Y-68580000D02*
X124171900Y-67655000D01*
X186345000Y-68580000D02*
X205660000Y-68580000D01*
X185420000Y-67655000D02*
X186345000Y-68580000D01*
D31*
%TO.N,Net-(SW11-B)*%
X152400000Y-71080000D02*
X174408900Y-71080000D01*
X174408900Y-71080000D02*
X182068900Y-78740000D01*
X198120000Y-86360000D02*
X203300000Y-86360000D01*
X190500000Y-78740000D02*
X198120000Y-86360000D01*
X182068900Y-78740000D02*
X190500000Y-78740000D01*
X203300000Y-86360000D02*
X205840000Y-83820000D01*
%TO.N,GND*%
X79790000Y-33020000D02*
X87150000Y-33020000D01*
X87150000Y-33020000D02*
X89860000Y-35730000D01*
%TO.N,Net-(tp1-5V)*%
X152400000Y-93980000D02*
X188500000Y-93980000D01*
X188500000Y-93980000D02*
X191040000Y-91440000D01*
%TO.N,GND*%
X138200000Y-93980000D02*
X138200000Y-92380000D01*
X138200000Y-92380000D02*
X139140000Y-91440000D01*
X139140000Y-91440000D02*
X179070000Y-91440000D01*
X179070000Y-91440000D02*
X181610000Y-88900000D01*
D30*
%TO.N,/I2S_BCLK*%
X60960000Y-33020000D02*
X60960000Y-37143500D01*
X79650400Y-42103100D02*
X106816200Y-42103100D01*
X60960000Y-37143500D02*
X74690800Y-37143500D01*
X74690800Y-37143500D02*
X79650400Y-42103100D01*
X106816200Y-42103100D02*
X107893100Y-43180000D01*
X107893100Y-43180000D02*
X109220000Y-43180000D01*
%TO.N,/BTN_B*%
X109220000Y-58420000D02*
X110546900Y-58420000D01*
X110546900Y-58420000D02*
X121641500Y-69514600D01*
X121641500Y-69514600D02*
X133245400Y-69514600D01*
X186109100Y-71040000D02*
X187960000Y-71040000D01*
X134180000Y-68580000D02*
X183649100Y-68580000D01*
X183649100Y-68580000D02*
X186109100Y-71040000D01*
X133245400Y-69514600D02*
X134180000Y-68580000D01*
%TO.N,/START*%
X106680000Y-60960000D02*
X106680000Y-54642400D01*
X201349100Y-53260000D02*
X203200000Y-53260000D01*
X106680000Y-54642400D02*
X124731000Y-54642400D01*
X127140900Y-52232500D02*
X200321600Y-52232500D01*
X124731000Y-54642400D02*
X127140900Y-52232500D01*
X109220000Y-60960000D02*
X106680000Y-60960000D01*
X200321600Y-52232500D02*
X201349100Y-53260000D01*
%TO.N,/I2S_SD*%
X109220000Y-68580000D02*
X107893100Y-68580000D01*
X96520000Y-60960000D02*
X96520000Y-60706400D01*
X107893100Y-68580000D02*
X101543100Y-62230000D01*
X101543100Y-62230000D02*
X97790000Y-62230000D01*
X97790000Y-62230000D02*
X96520000Y-60960000D01*
X87619500Y-51805900D02*
X75158600Y-51805900D01*
X96520000Y-60706400D02*
X87619500Y-51805900D01*
X75158600Y-51805900D02*
X75158600Y-51805800D01*
%TO.N,/TFT_DC*%
X109220000Y-73660000D02*
X111760000Y-73660000D01*
X104140000Y-62763700D02*
X104140000Y-51081100D01*
X111760000Y-73660000D02*
X111760000Y-66040000D01*
X106146300Y-64770000D02*
X104140000Y-62763700D01*
X111760000Y-66040000D02*
X110490000Y-64770000D01*
X110490000Y-64770000D02*
X106146300Y-64770000D01*
X104140000Y-51081100D02*
X104421100Y-50800000D01*
%TO.N,/+3.3V*%
X60960000Y-68580000D02*
X60960000Y-67467800D01*
X60331400Y-57791400D02*
X58420000Y-55880000D01*
X60960000Y-67467800D02*
X60331400Y-66839200D01*
X60331400Y-66839200D02*
X60331400Y-57791400D01*
D31*
%TO.N,/ESP_VCC*%
X94366900Y-84360000D02*
X98906900Y-88900000D01*
X197130050Y-88900000D02*
X205490000Y-88900000D01*
X124462700Y-81277300D02*
X189507350Y-81277300D01*
X189507350Y-81277300D02*
X197130050Y-88900000D01*
X98906900Y-88900000D02*
X116840000Y-88900000D01*
X116840000Y-88900000D02*
X124462700Y-81277300D01*
X205490000Y-88900000D02*
X210570000Y-83820000D01*
D30*
%TO.N,/I2S_DIN*%
X109220000Y-71120000D02*
X107893100Y-71120000D01*
X107893100Y-71120000D02*
X106566200Y-69793100D01*
X106566200Y-69793100D02*
X79953100Y-69793100D01*
X73660000Y-63500000D02*
X66040000Y-63500000D01*
X66040000Y-63500000D02*
X60960000Y-58420000D01*
X79953100Y-69793100D02*
X73660000Y-63500000D01*
X55880000Y-30480000D02*
X60960000Y-30480000D01*
X60960000Y-58420000D02*
X60960000Y-51343500D01*
X60960000Y-51343500D02*
X55880000Y-46263500D01*
X55880000Y-46263500D02*
X55880000Y-30480000D01*
X60960000Y-30480000D02*
X63500000Y-33020000D01*
D31*
%TO.N,/BAT_CHARGE*%
X182173500Y-83820000D02*
X182860000Y-84506500D01*
X182860000Y-84506500D02*
X182860000Y-88880000D01*
X182860000Y-88880000D02*
X185420000Y-91440000D01*
%TO.N,/+3.3V*%
X132080000Y-33020000D02*
X127000000Y-27940000D01*
X127000000Y-27940000D02*
X99060000Y-27940000D01*
X99060000Y-27940000D02*
X99060000Y-40640000D01*
%TO.N,GND*%
X83820000Y-84360000D02*
X85820000Y-86360000D01*
X85820000Y-86360000D02*
X89440000Y-86360000D01*
X89440000Y-86360000D02*
X91440000Y-84360000D01*
X83820000Y-84360000D02*
X81820000Y-86360000D01*
X69706900Y-86360000D02*
X67166900Y-83820000D01*
X81820000Y-86360000D02*
X69706900Y-86360000D01*
X67166900Y-83820000D02*
X66040000Y-83820000D01*
%TO.N,/BAT_CHARGE*%
X181610000Y-83820000D02*
X180483100Y-83820000D01*
X180483100Y-83820000D02*
X180483100Y-84946900D01*
X180483100Y-84946900D02*
X176530000Y-88900000D01*
X176530000Y-88900000D02*
X173990000Y-88900000D01*
D30*
%TO.N,/+3.3V*%
X73460000Y-68580000D02*
X60960000Y-68580000D01*
X88700000Y-55880000D02*
X76200000Y-55880000D01*
X73460000Y-43180000D02*
X60960000Y-43180000D01*
X220980000Y-72390000D02*
X214630000Y-78740000D01*
X226060000Y-72390000D02*
X220980000Y-72390000D01*
X194310000Y-45720000D02*
X191770000Y-43180000D01*
X226060000Y-45720000D02*
X194310000Y-45720000D01*
D31*
X82456900Y-40640000D02*
X74836900Y-33020000D01*
X99060000Y-40640000D02*
X82456900Y-40640000D01*
X73660000Y-33020000D02*
X74836900Y-33020000D01*
D30*
X45920000Y-55880000D02*
X47770900Y-55880000D01*
X58420000Y-55880000D02*
X47770900Y-55880000D01*
X190638300Y-42048300D02*
X191770000Y-43180000D01*
X180201700Y-42048300D02*
X190638300Y-42048300D01*
X179070000Y-43180000D02*
X180201700Y-42048300D01*
D31*
%TO.N,GND*%
X201349100Y-49221800D02*
X201349100Y-48260000D01*
X199770900Y-50800000D02*
X201349100Y-49221800D01*
X197920000Y-50800000D02*
X199770900Y-50800000D01*
X203200000Y-48260000D02*
X201349100Y-48260000D01*
X185420000Y-50800000D02*
X197920000Y-50800000D01*
X218240000Y-63500000D02*
X205740000Y-63500000D01*
X185420000Y-30480000D02*
X197920000Y-30480000D01*
X215700000Y-30480000D02*
X203200000Y-30480000D01*
X215700000Y-48260000D02*
X203200000Y-48260000D01*
X200460000Y-66040000D02*
X187960000Y-66040000D01*
D30*
%TO.N,/SCK*%
X132080000Y-73660000D02*
X156958100Y-73660000D01*
%TO.N,/TFT_DC*%
X132080000Y-45720000D02*
X130753100Y-45720000D01*
X99060000Y-50800000D02*
X100886900Y-50800000D01*
X100886900Y-50800000D02*
X104421100Y-50800000D01*
X126750000Y-49723100D02*
X130753100Y-45720000D01*
X105498000Y-49723100D02*
X126750000Y-49723100D01*
X104421100Y-50800000D02*
X105498000Y-49723100D01*
%TO.N,/BTN_A*%
X205740000Y-68500000D02*
X218240000Y-68500000D01*
%TO.N,/BTN_B*%
X187960000Y-71040000D02*
X200460000Y-71040000D01*
%TO.N,/START*%
X215700000Y-53260000D02*
X203200000Y-53260000D01*
D31*
%TO.N,/ACT_LED*%
X151186900Y-39313100D02*
X160020000Y-30480000D01*
X111873800Y-39313100D02*
X151186900Y-39313100D01*
X110546900Y-40640000D02*
X111873800Y-39313100D01*
X109220000Y-40640000D02*
X110546900Y-40640000D01*
D30*
%TO.N,/SEL*%
X182436000Y-54666900D02*
X183569100Y-55800000D01*
X134733800Y-54666900D02*
X182436000Y-54666900D01*
X133406900Y-53340000D02*
X134733800Y-54666900D01*
X132080000Y-53340000D02*
X133406900Y-53340000D01*
X185420000Y-55800000D02*
X183569100Y-55800000D01*
X197920000Y-55800000D02*
X185420000Y-55800000D01*
%TO.N,/VOL*%
X177943100Y-50800000D02*
X185563100Y-43180000D01*
X132080000Y-50800000D02*
X177943100Y-50800000D01*
X186690000Y-43180000D02*
X185563100Y-43180000D01*
%TO.N,Net-(SW4A-D)*%
X88700000Y-60880000D02*
X76200000Y-60880000D01*
%TO.N,/GP_X*%
X126943100Y-46990000D02*
X130753100Y-43180000D01*
X103105100Y-46990000D02*
X126943100Y-46990000D01*
X100372000Y-49723100D02*
X103105100Y-46990000D01*
X72196900Y-49723100D02*
X100372000Y-49723100D01*
X63500000Y-58420000D02*
X72196900Y-49723100D01*
X132080000Y-43180000D02*
X130753100Y-43180000D01*
X49851000Y-60880000D02*
X49851000Y-72440000D01*
X45920000Y-60880000D02*
X49851000Y-60880000D01*
X49851000Y-60880000D02*
X58420000Y-60880000D01*
%TO.N,Net-(SW2A-D)*%
X73460000Y-73580000D02*
X60960000Y-73580000D01*
%TO.N,/GP_Y*%
X132080000Y-40640000D02*
X130753100Y-40640000D01*
X60960000Y-48180000D02*
X62810900Y-48180000D01*
X73460000Y-48180000D02*
X62810900Y-48180000D01*
X73460000Y-48180000D02*
X75310900Y-48180000D01*
X78740000Y-48180000D02*
X75310900Y-48180000D01*
X82470000Y-44450000D02*
X78740000Y-48180000D01*
X126943100Y-44450000D02*
X82470000Y-44450000D01*
X130753100Y-40640000D02*
X126943100Y-44450000D01*
X78740000Y-48180000D02*
X78740000Y-48260000D01*
%TO.N,/MENU*%
X203200000Y-35480000D02*
X215700000Y-35480000D01*
X222313100Y-35480000D02*
X224933100Y-38100000D01*
X215700000Y-35480000D02*
X222313100Y-35480000D01*
X226060000Y-38100000D02*
X224933100Y-38100000D01*
X195252600Y-41576500D02*
X201349100Y-35480000D01*
X140090400Y-41576500D02*
X195252600Y-41576500D01*
X133406900Y-48260000D02*
X140090400Y-41576500D01*
X132080000Y-48260000D02*
X133406900Y-48260000D01*
X203200000Y-35480000D02*
X201349100Y-35480000D01*
D31*
%TO.N,/ESP_VCC*%
X93440000Y-84360000D02*
X94366900Y-84360000D01*
D30*
%TO.N,/BAT_CHARGE*%
X182173500Y-83820000D02*
X181610000Y-83820000D01*
%TD*%
M02*
